/* XPM */
static char *_fb6a245786549c9b46230a7cbf73a7a[] = {
/* columns rows colors chars-per-pixel */
"100 65 256 2 ",
"   c #020102",
".  c #0A0102",
"X  c #020209",
"o  c #040707",
"O  c #11120D",
"+  c #2F0B09",
"@  c #043005",
"#  c #111528",
"$  c #292729",
"%  c #383938",
"&  c #302E30",
"*  c #221F27",
"=  c #4E0101",
"-  c #6F0402",
";  c #443B3D",
":  c #723100",
">  c #025309",
",  c #005031",
"<  c #0B6B26",
"1  c #664930",
"2  c #383844",
"3  c #010E6A",
"4  c #453C42",
"5  c #04524F",
"6  c #066951",
"7  c #014F6E",
"8  c #03716F",
"9  c #365D5C",
"0  c #484747",
"q  c #58595A",
"w  c #504E50",
"e  c #6A5956",
"r  c #516451",
"t  c #6C655A",
"y  c #555A6A",
"u  c #53726C",
"i  c #686868",
"p  c #777777",
"a  c #72706F",
"s  c #675964",
"d  c #8C0301",
"f  c #A70105",
"g  c #A33502",
"h  c #914F0A",
"j  c #B05405",
"k  c #A4611F",
"l  c #CC7202",
"z  c #C55C17",
"x  c #946C4E",
"c  c #AE704E",
"v  c #8F7670",
"b  c #AE7B68",
"n  c #9B5C4E",
"m  c #C97B5C",
"M  c #C51904",
"N  c #028C77",
"B  c #1C8B63",
"V  c #4A9174",
"C  c #718778",
"Z  c #E68D08",
"A  c #E9B40D",
"S  c #D99420",
"D  c #8F8479",
"F  c #AE8975",
"G  c #B58152",
"H  c #CD9773",
"J  c #D7A46F",
"K  c #EAB76E",
"L  c #D29758",
"P  c #E5C56D",
"I  c #DAAF2E",
"U  c #020A91",
"Y  c #023192",
"T  c #0108B0",
"R  c #0233B1",
"E  c #01768C",
"W  c #084CB2",
"Q  c #036AB4",
"!  c #2557A1",
"~  c #526E94",
"^  c #797A84",
"/  c #6D7B93",
"(  c #506CB0",
")  c #707BB5",
"_  c #495CA8",
"`  c #0327C8",
"'  c #0250CB",
"]  c #056ECF",
"[  c #3769D1",
"{  c #0573E4",
"}  c #2768DA",
"|  c #5576CA",
" . c #587BDB",
".. c #847E84",
"X. c #058F91",
"o. c #0396AC",
"O. c #02A8A6",
"+. c #04AEB4",
"@. c #259EA4",
"#. c #798584",
"$. c #72938E",
"%. c #5794AD",
"&. c #708CB1",
"*. c #52B2B3",
"=. c #73B0B1",
"-. c #5B9A91",
";. c #7CC2BC",
":. c #03B6CD",
">. c #248CD2",
",. c #5289D2",
"<. c #6F90CE",
"1. c #65A3D9",
"2. c #02C8D7",
"3. c #01CBCE",
"4. c #01D6E8",
"5. c #02CBE4",
"6. c #28D2DE",
"7. c #73CBD1",
"8. c #71D7E6",
"9. c #58D6DC",
"0. c #30C2B5",
"q. c #898988",
"w. c #97938B",
"e. c #989897",
"r. c #8E8E91",
"t. c #B89888",
"y. c #AB9691",
"u. c #93A79A",
"i. c #A8A49C",
"p. c #B9A498",
"a. c #9197AD",
"s. c #A59CA7",
"d. c #99A7A6",
"f. c #9BA7B8",
"g. c #92B3B1",
"h. c #A7A8A8",
"j. c #B7ABA9",
"k. c #A8B5AC",
"l. c #B6B3AA",
"z. c #A9ABB5",
"x. c #AAB6B6",
"c. c #B9B8B8",
"v. c #B5ADB7",
"b. c #CB9A8A",
"n. c #CFAD93",
"m. c #E6B994",
"M. c #C6B6AA",
"N. c #D6B7A8",
"B. c #C7BAB8",
"V. c #CDB4AE",
"C. c #E3BCA8",
"Z. c #B9C6BB",
"A. c #A8C4B9",
"S. c #8BC6B3",
"D. c #EACC98",
"F. c #C8C5BA",
"G. c #D8C6B9",
"H. c #D3C9B3",
"J. c #E4CAB9",
"K. c #EDD1AF",
"L. c #DFCCA4",
"P. c #8D9ACA",
"I. c #96A8C8",
"U. c #96A8D8",
"Y. c #91B4CD",
"T. c #A8B8C6",
"R. c #B9BAC7",
"E. c #A9B7D6",
"W. c #B9BAD7",
"Q. c #A7AACD",
"!. c #96AFE4",
"~. c #9BAFE6",
"^. c #C5BDC6",
"/. c #CCBFCE",
"(. c #94CBCF",
"). c #A9C7C7",
"_. c #BAC7C8",
"`. c #B9C7D8",
"'. c #B9D5D8",
"]. c #AFD1D2",
"[. c #92D4E7",
"{. c #BAC7E5",
"}. c #B1D3E8",
"|. c #B2E5EB",
" X c #A3E5EC",
".X c #C4C4C4",
"XX c #CBCCCB",
"oX c #C8C8C8",
"OX c #D6CAC7",
"+X c #C9D3C9",
"@X c #D9D4CB",
"#X c #C8CBD6",
"$X c #D5CDD6",
"%X c #C9D6D8",
"&X c #D4D3D4",
"*X c #DCD4D3",
"=X c #D4D4DB",
"-X c #D4DBDC",
";X c #DCDBDB",
":X c #D9D9D7",
">X c #E7D7CA",
",X c #E3DBD4",
"<X c #E3DCDB",
"1X c #E8D9D7",
"2X c #EDD6C7",
"3X c #DDE3DC",
"4X c #D8E4D9",
"5X c #C9E2DD",
"6X c #F7E3C9",
"7X c #E4E3DC",
"8X c #EBE3DC",
"9X c #E8E7D8",
"0X c #F5E7DC",
"qX c #E9E6D0",
"wX c #C9D8E5",
"eX c #DDDCE3",
"rX c #D7DAE7",
"tX c #CDD4EA",
"yX c #E5DBE3",
"uX c #E8DFF2",
"iX c #C9E6E7",
"pX c #DCE4E4",
"aX c #D9E6E8",
"sX c #DAE8F4",
"dX c #D6F0F3",
"fX c #E4E4E4",
"gX c #EBE4E4",
"hX c #E4EBE4",
"jX c #ECEBE5",
"kX c #E4E4EB",
"lX c #EBE5EB",
"zX c #E4EBEC",
"xX c #EBECEC",
"cX c #F3EBE4",
"vX c #F3ECEB",
"bX c #F6E8E7",
"nX c #ECF2EC",
"mX c #E7F3E8",
"MX c #F3F3EC",
"NX c #FBF3ED",
"BX c #F7F6E8",
"VX c #ECECF2",
"CX c #E6E9F5",
"ZX c #F3EDF3",
"AX c #F7ECF6",
"SX c #ECF3F3",
"DX c #ECF3FB",
"FX c #E7F6F7",
"GX c #F3F3F3",
"HX c #FCF4F3",
"JX c #F4FAF4",
"KX c #FCFCF4",
"LX c #F3F4FB",
"PX c #FBF5FC",
"IX c #F5FCFC",
"UX c #FDFDFD",
/* pixels */
"s.KX=XW [ tXqX: p.KXE.W W #XvXCX| ' ! aXvX-X! U f.LXe.= =X%XY U I.PXw.  X         p Z.8X,XMXsX,.} >. .} ,.wXSXB.G.BXF.C . .     X ; JXxX! R E.BXL Z 6XCX~ U eX@XBX{.]  .sX0XcX~.{ }.PXb.j J.UXUXwXU.tXUX",
"xX<XGXCXpXKXxXn.H.JXUXwXsXSXF.8XaXU.rXKXB.LXyX%XLXcXi.t &XKX4X].aXjXaX+X.XZ.B.F.9XUXUX0Xn.9XDX!.{ >.} >.<.fXKX,XG.NXUXUXxX:X&X&X$XVXcXNXrX$XBXcXK.D.0XUXMX*XPXj.+XPXtXsXUXJ.0XUXDXKXLXAXC.NXKXUXUXJXPXL.",
"b.c n.lX3X).wXHXJX].].MX,Xt.F M.qXKXjXM.F t.gXIXc.l.gX0XmX].SXJXN.b N.2XcXUXIXhXoX.XB.@XUX,X7XpX!.{ { 1.tXKXN.qXHXl.l.v.Z.jXKXUX6XC.H L 0XNXk.a.FXHX+X$.&XKXe.k y.F.KXKXK.b.L 2XKXk.-.zXIX4Xd.Z.IXUXJ.l ",
"F.h t.kX<.E o.kX5XX.O.(.vXk h yXlXtXfXnXb - ZXx.5 6 _.MX;.+.*.FXn.f b.1XcX_.#.. .   . '.<Xb.jXIXCXtXtXCXGXBX,XN.9Xc.        q.+XVX1XS Z 0Xd.@ @ +XnX6 6 8 xXj.- 7XIXR.oXIXJ.M 0X].> B d.UX$.< > 7XIX8Xm.",
"sXH.yXZXg.E @.CXpXX.X.(.cX,XOXVX<.` <.dXOX:XhX).6 8 ).bX*.O.*.mX6XL.cX7X0 o     X $ :XUX<XKXlXl.DXJXGXIX*Xp.PXcXMXKXF.          p nX6XgXKXZ.6 , @XJX-., $.bXBXnXbXE.3 U $XbXjXUXVXV < Z.KXk.> u.UXUXUXUX",
"FXkX].sXjXY._.jXGX(.'.MX<X`.7XaX_ W ` aXFX%XsXsXx.=.;X0X).=.pXGX|.FXKXq.. O   * D gXKXfXx.3XOX7XcXN.qXC.UX+X8Xj.w.4XKX:Xw.$   .   fXIX)._.NX;X_.9XpX+Xk.AXvXd.XXUXs.U U XXKXg.k.KXJX+XfX-XJX+XUXUXIXUXUX",
"FX9.o.=.DX8XHXN.N.IX0XnX&.8 u.sXE.U I.JXx.8 -.dXzXMX=Xn.KXqXNX[.2.8.BX+X  w l.3XIXBXw.  w 0XUXIX1X6XGXJ.8XkXIX<X. 0 p KXUX9Xc.0 e.UX].< 6 Z.8XfXJXpXUXXXIX$.O 5 3XGX_ / JX+X> , A.ZXxXHXjXKXlXGXUXUXUXKX",
"dX@.o.o.iXN.G c j k N.zX%.5 E CXkX`.sXDX=.X.8 %X>Xb v 1 F M.dX4.4.4.dXKXpXhX8XKX:X$     Z.UXF.r.KXhXXXHXXX% mXKXw..   i MXKX8XBXJXKXA.< 6 k.1X8X&XR.<X7XgXr , 5 :XKXSXcXNX%X, , $.nXnX{.!.rXSXGXUXUXIXUX",
"dX%XY.`.kXB.d b p.t.M.vX8Xu.).kX'.UXXXeX_.*.).LX>Xc x x = G.IX|.8.|.VXV.G.F 1X,X$     w MX@XX D UXF.q PX;X  q nX,X  $   i BXJ.H m.J.ZXZ.].xX0X;XR U / xX<X;Xl.4XKXm.K.D.m.KX&X+XaXHXeXW R [ DXUXKXKXUXUX",
"eXDXzXDXB.d F SXxXyXzX@XCXJXeXPX-Xz.:XxX<XcXGXfXaXxXVXcXc j B.KXPXUXOXg d >X;X* . . & pXlX.   r.UXq.o 8X;X  X w.UX_.. &   ..UXb.f b.PXKXUXyX*XR.T ! Y ;X@XUXIXKX2XZ L Z L BXUXHXGXpXrX' ' ' AXPXPXUXUXUX",
"sXd.u ].MXn.GX.X# 0 y 3 / =XwX-X; . % &X#XxXd.% y q w =XhXt.jX5X(.wXxXt.b.nXh.o   w 1XKXu.    f.nX$   l.vX  . * 9XUX+X  . . vX1Xn.8XpXC $.F.JXxX<.W I.GXMXd.6 #.>XC.0X0XqXaXr % k.UXGXU.| tXMXJXUXUXUXUX",
"%X6 6 ! CXLX_.  X .   X . e.UX.XX %   l.BX.X.   o o X . oXAXaX*.O.0.CXcXnXBX3Xt w gXKX8X$ o   ,X3X. o q.UXq..   v.MXjX%Xv -XKXCXFXUXk.> > d.pXOXGXgXIX@X;X6 , 5 OXHXtXeXKXZ.o   D eX@XNXzXUX4XZXIXUXHXUX",
"CXa.8 x.PXv.  & X q p w d.mX_.pX#.. t wXoX<XC & t % X O X XXxX7.+.;.DXpX*.'.KXvXGX2XqXx.X X #.UXiX. X w.UX+XX   i ZXt.yXIXKXwX{ <.CX*X6 6 8XPX9X9XXXGXfXKX'.6 d.BXXX' } CXSXa r 7XUX9XPX_.vXpXFXUXUXUXUX",
"VX=Xk..XCX..X . q.8XrXkXLXuX:XuX3XoX7XaX<X8X0X@X7XqXp o o q JXVX;.sXLXS.O.O.aX9Xm.n.NXq   . XXUX-X. . u.KXBXq     7X>Xd p.GX1.{ ] {.bXOX>XKXA.-.-XSXi.9 oXKXjXGXMXQ.` ` ).UXHXlXKXA.N F.UXoX@ u.JXLXIXGX",
"*X_.mX_.yXx.X p 0XW.U.GXT.,.I.fXXXUX+X:XP.( R.gXE.#X0Xa . y.;X$XLXoXpXS.O.;.mX>Xz J 0Xl.  a xX9X%X  . r.0X6XXX0 h.GXOX- n bXyX<.<.tXK.D.NX+X6 7 A.JXr @ @ cX7XF OXCXI.Q.FXK.m.HXaX6 8 -.UXu.> o @XKXJ J.",
"jX.Xk.zXGXrX=XqX&X&XgX3X<X#X%.aXaXx.zX7X( ;X8X9X@XwXpX6X@XOXjXaXeXrX8X4X4XdXJXmXm.2XKXUXhXGX>XOXpX    T.0Xm.HXNXUXMXcXV.OX>X8XbX2X9XD.Z 6X&X6 6 F.KXC   C JXb.f b.BXBXKXMXK Z D.FX$.8 A.UX+X, w.IX2Xl m.",
"oX+   i wXc.1Xz.f.ZXi.0 s.3XE.xXg.X.(.xXR.lXi.p v.jXI.E.kXF.fXp % XXZXZ.mX5X;.5XKXFXA.).KX0Xc b.SXfX*XGXK.Z m.UXZ.9 S.JX*XV -.9XK.Z K K.6XUX,XoX7XcXhX=XJXKXjXb >XnXq.e.GXK.K vXUXIXfXHX1XvXCXKXUXMXJXJ ",
"z.  & . T.lXk.3 xXc.. X 0 3XMXiXX.o.@.;XLXlXq     F.yXW wXUXl.  X . ;XGX].O.O.;.JXA.X.N ].6XM b.cXSXCXnX2XS K.jX5 8 9 lXA.N 6 S.BXK P JX{.W.xXMXb.1 OXUX&Xe.SXG.>Xl.  X c.6X6XfXw.OXUXK.z m.KX.X) ~.IX1X",
"-X% o ^ pX^.XX$.T.fXa   h.lXP.rX).$.'.eXP.xXs.  ^ <XE.<.yX&X+XX . 2 7XfXpX*.+.;.JX'.X.X.5XJXgXbXsX| ] }.KXgXVXMXd.5 u.HX_.N V 4XNXIX0X$X{ { ~.GXb + B.lX  o q.nXbXl.  X B.NXJXq   X xX2Xl m.SX[ T } AXPX",
"sX'.R.eXzX#XtX$Xc.sXxX&X<X3X( Q.nXxXMXQ.| lXlX@XcXxXeXlXvX3XDX.Xr.aXMXXXIXnX).pX,XcX).-XHX|. XLX%XQ >.!.MX'.$.%XDX#XqXOXhX3XmXKX].=.SXVX[ { ~.KXlXF.p.vX& * X 3XKXz.    j.UX#X. + u bXD.NXHXPXE.` E.PXUX",
"-X^.UXF.=X;.o.~.cXs.z.hXi.gX,XjX=X) {.CXJX7Xc.cXQ.W.xX(.*.|.:X4XKX&XfXl.e.#XBXOXc qX9X8XiX4.4. XLX~.>.DXhX6 @ #.CXB.bXZXKXmXhX5XO.X.S.KXiXE.HXGXoXxXOXxXh.    h.UXd..   c.UXp . . R.HXcX'.e.ZXUXCXLXIXJX",
"HXrXf.uXlX1.>.:.wXc.a.gX;XE.a.`.kXtXkX{.E.=XpXcX .W.#XO.+.(.lXuXrXCXhX& .   #X<Xh c m 0XiX2.5.[.GXAXdX9XCXu @ u SXjX$XI.I.>XJX].@.O.'.JXbXNXJXq.. q zXUX*X  o w PXh.  . c.xX. o ; hXUX.Xo . t PXpXG.MXUX",
"sX) Y P.lX(.Q 1.kXpXpXU._ R U rXyXM.1X/.T [ P.tX>X,X;X*.:.].PXY.o.|.LXp X #   eXhXd b 8XxX}.|.nXG.H.H.H cXaX&XgX*XFX&.Y Y _.7X>XhXpXDXH.j 2XJX  * . w mXUXi   . ;X-X    <XoX.   e.KX^.X &   #.UXH f G.PX",
"3X^.PXz.yXvXiX9X^.z.:XE.( T $.lXt.- V.rX' T ! R.7Xz.;XqXXXcXeX].1XY.ZXjX0 . X   mXM.g H lXKXcXmXb.l L l >XVX4XMX@X7X&.Y Y _.VXaXhXgXIXJ.l G gX*X  $ X 0 MXeX    @XUX% i KXZ.. * mX#X  % . a GXC.J F gXUX",
"NX@Xy.kXeX) j.*Xa.R.<X0XrXW.hXvXOXx N.BX=XQ.yXnXjXI.#XxX`.{.mX<XOXbXpXhXaXw . . pXM.j AX|.8.9.|.@X>XJXJ.4Xu 6 -.3X0XH.a.).CXSXZ.6 8 A.nX0XhXH.HX+X  O   q.UX-X  oXUXR.R.IXl.. :XIXa     q GXHX<XPXGXPXUX",
"*Xw   y.bX^ e.>XOX1XF x G.cXXXh.=X7X7XR.@XnXG.b n.DX8XCX<.E.8Xq.X F.VXY.LXe.X $ pXM.c >X|.3.4.(.PX'.{.KX&X6 5 9 gXyXJXBXIX7X&X#X, , d.IX;Xd.:XDXUXeXX .   @XIXXXF.0XVXZX8XoXOXBXF.    i MXUXgXc.0 .XUXUX",
"oX. X p yXOX1XU.Q.1Xx d B.F.X   w.PXq.X $ XXp.f F xX`.rX9X8XoX. . a bXvXFXi .   +XhXcXmXmX(.6.iXaX,.Q R.KXA.V oXJX4XmX@XsX'.aXZXu.V 4XGX4 X   p c.AXVXh.& r.yXqXIXn.qX=XM.UXOX>Xv i .XUX;Xr.O X . O xXUX",
">Xw...*XOXj.1X! | #XB.OX8Xl.#   w.MXp   % ;XgXN.2XyX[ U.zXR.LXi.w y.,XwXIXr.  $ 4XCX=.g.hXSXpX9X'.Q ] 1.MXnXGXMXZ.B =.BXsXo.*.-XFXzXjXaX% .   X   0 :XUXxX#XgXH ,X@X1X,XOX@Xt.FX7XMXUX.XX o o o   r.UX2X",
"&X<XVXyXeX,XQ.R T Q.0Xz.M.6XOXa c.VX.X0 B.AXeXyXcXU.` | fXbXHXIX:X>X7X1.AXVXq.XXUX).X.X.).9XJ N.CXI.U.aXbXm J.gXB < V nX_.o.E g.KXC.J mX;Xi.q         .XMXOX8X,X@XSXCXgXNXyXyXcXOXHXc.X     X q.&XMXK.Z ",
"&.wXkXu r.qX) R ) <Xc.    R.gX<X1XXXCX$XkX&Xi s OX#XR ` E.BXI.#XSXE.%.U.yX&XUXkX,X].X.%.FXqXz H OXBXDX>Xn.j H vXZ.V g.NX,X%.=.pXmXL Z m.1XKXxXoXr.p i a gXF.y.gX1XXXrX=XrXLXLXn.gXGXr.r.e.c.GXUXUX6XK.n.",
"DX4X:XrXR.1XXX$X*XgXh.  X q.1X+X2XJ.ZX%X4Xw.% X h.VXrX`.W.:X).aXnXeXwXpXvX<X=XpXxXFX&XhXKXjX>Xb.1X$X+X1XV.J.3XpXBX9X9XJ.qX;XHXxXlX>X>X0XjXvXlXUXHXGXJXyX,XhX<X<X{..XH.N.&XtXpXLX<X@XHXUXUXUX<X<X;X%XDXMX",
"%X~ X.=XuXz.*XG.b M.uXh.i.G.pX1XM.L.n.:XIX:X#.i @XG.B.bX9X$XGXhXS.%XBXoXxXe.* a ;XoXxXxX<.I.<X>XwX| ! #X1X2XR.~ f.9XJ.A K MXwX_ <.xXIXR.y v p t p c.hXnXG.n.>XCXT.y.t i w.I.CXvXn.@XxXXXq.0   o *   ; MX",
"#.8 E Y.yX~ #Xt.= F pXZXPX-X&X@Xt.H.n.OXpXSXLXjX<XG l G.wXP.mX(.0.O.'.zXoXX & . d.HXrX] ] W #XGXa.! ! | <XlX&.W Y d.NXJ 6XDX&.R U {.vXX X . . *   X   h.LX8X9XrXz.a u s C z.wXMXvXUX.X      X     . . :X",
"$X=.%.#XyXoXyX$Xj.OXpXe.r.OXxXyXn.n.C.>X,X>Xj.c.7Xl.n.7XrX`.mX}.0.;.lX^.3Xp   % F.:XfXP.] <.@XyXR.W ' E.<X>XZ.! &.iXJ.A P SX%X| &.pXZX^ 2 % O $ 0 D _.aX&Xp.<XeXT.j..XH.h.R.CXHXp.B.KXZXoXq.i i ^ ^ h.UX",
"rXyXwX^.a.rXz.XXyXbXd.X . ^ pXeX:X@X>XM.;Xr.X   R.vXNXfX#XCXc.zXwXxXnX,XSXfXz.F.DX=X9XbX#XaXcXv.lX#X#XnXOXM.xX=XgXHXfXD.qXJXKXhXCX*X:XnX-X+X,XpXmXUXUXxX>X*XjX1X`.f.e.w.h.wXzXGXHXpXhXGXLXVXUXUXPXgXHX,X",
"~ v.yX) a.uX..U _ yXc.    .X3X:XMX-XFX-XkXh.    v.hXU.<.U.CX_ f.LX{.1.(.kX%XLX+XaX'.g.Z.JX@Xp.b j.vXPXG.b.b t.cX%Xp k.VXSX).Y.dX1Xx c t.G.JXHX;Xi.e.D a iX>Xb.GXxX=X_.R.#XZXIXh.XXSXp X q i e.;XIXcXV.n ",
"OX/.OXOXoX=X).Y U Q.bXj..XvX<Xi.-XyXOXh.pX8Xw.h.0XI.` 1.tXzX3XaXLXkX'.,.eXyXrXhXvX=.+.O.'.*X- F cXpX%XhXeXd t.fX0   . :XiXO.O.=.7Xc n >XxXc.i   X . . z.bXJ.1X,X,XHXDXCXSXcXqXxX&XAXvX0       . a .XKXB.",
"N.q . q..Xh.$X( Y #XB.OX<XG.$ X h.LXe.X q @X0X>XqXrX' U.gX%XGX^.r.B.lXY.GXXX  h.LX).O.o.3XvX+X1XwX%.Q I.8X*XgXAXq.  0 xX-XO.O.'.VXMXqXSX^     X   X .XKXnX&X8Xy.oX8X@XqX6XhXN.LX&XfXUXPXq     $   . ;XUX",
"F.. X   B.8X8XQ.f.<Xb - G.V.    q.IXp     #XH.j H IXE.R.vXLX$X& X i vXMXDXa X o eXJX].=XAX_.'.IXwXQ Q <.HXwXg.eXFXk._.-X:X'.4XGX+Xg.aXJXi   X w e.yXhXk.0 a gX;XUXN.H.nXL.UX9XHXd.  e.fXUX+X#.    o fXnX",
">Xw.  w.yX&.a.yX=X@XF x B.cXl.q.$XGXB.a l.nX@Xj F GXnXxXP./.AXs . s.MX`.pXp X % eX1X>XPX'.N 8 _.nXE.Q tXxXu > $.nXCXSX8XmXSX&XG.r   C IXrXp oXmXUXxX0   o #XUXeXXX0X,XzXGX<Xc.UXfX  . X XXUXHXgXd.XXUXc.",
"*X$XB.1XXXr.a.*Xz.f.:X7X%X#XyXjX@Xp.>XcXcX=X8X2X8XwX`.yX&.P.KXXXr.0XhX(.PXi   2 kXn.S VXg.X.N _.PX<XsXkXmXu , 6 ;XGXeX{.tX7X>Xl.@ O C nXGXDX1XKXfX0   X r.UXpXo B.UXZ.q.UXyXX c.UXs.X $ . oXUXoX9XPXZX-X",
"$X..$X/ /.XX^.tX+XQ.>Xx.( T P.gXb.d F gXI.' <.#XVXU.#XAXgX0XtXtXbX%XDXPXx.  &   kXn.G ,XhXZ._.hXOXp.OXb fX;Xx.%X4XSXP.R R W.GXfX3XZ.pX3XL J J.eX%     0 HXzXe   /.PXp   SXxXO . +XKXi o &   XXxXv : j.UX",
"eXh.3 $.yXd.Q %.eXaX@Xz.! U R -XOXG >XkX} ` ' U.DXlXLX[.6.aX<X7.7.~.UXz.  % o q.FXF l n.KXKXPXVXM.h k - l.UXJXJXoX7X) R R P.:XgXUXMXIXJ.z n.GXs     ; -XKXr.X   XXfX    oXSX*   % BXHXi   * o LX$X= i.KX",
"dXOX^.%X;X%.E E {.`.f.gXwXT.) R.8X7XgX+X| U.rXAX}.#XsX4.4.8.PXtX[.PXkX# o   r.IXl.d c FX'.-.%.3XyXp.cXp.nXA.C l.gXNXW.[ | $X9X4X-.B A.nX>XqXNXr.  . eXKXkX&   . pX&X.   r.IXi   . T.UXAXC . a IXNX8XLX%X",
"rXx.sX_.#Xz.@.f.pXa.a.pXl.pXhX4X_.) #X8XkX9X.XMX<.P.VX8.2. XaX:XPXXX;Xp o e.IXV.g H.n.gX(.8 6 x.HX@XXXMX3X6 < , :X:XSXzXCX1XoXF.B B V FXsX{.nXVXc.aX,X1Xc.  . #.KX.X    e.PXx.. . ^ jXOXHX.XvXPXE.{.KX_.",
"eX_.q..XeXF.eX<XoX<XeXXX;X7X<.{.;X:X0XT.f.3XyXGXZXeXZXAXsXsXhXxXrXkXjX7XVXPXjXqXn.kXmXJX7X=.X.:XGX&.Y x.BXu.@ e.JXVXLX*X:XfX1XcXk.B A.mX<.W &.CXGX:Xb.GXq *   .XKXOX    e.UXhX4 * o +XN.N.NXUXE.T ' CXKX",
"$X+ X   /.^.$Xa.f.yXq.. B.uX) rX'.7.iX$X! cX8Xi z.JXU.(.hXR.mXr.  q.4X@XLX X9.iX0X4X+.(.GXVXdXVX3XY Y ( hX9X.XVX7X-.g.GXcX=.=.*XcX3XVXsX[ W ] yXC.f n.SXq o w lXvXXX    h.hXvXe.  X F.,Xf c AXU.T T `.UX",
"s.  &   d.LX`.U CXx..   q gXnX+X+.:.7.kXyXcXa   . v.DX>.].KX_.X # . c.BX|.4.4.8.bX).O.O.].cXn.V.DXf.( ].bXN.2XcX$.6 8 hX5XX.N =.DXD.N.kX}.P.$XNXL.c N.KXlXh.;X1XOXXX  . d.7Xl.GXh.c.LX,Xm F bXHX{.tXLX6X",
".Xt . s oXc.=Xf.a.uXr.+ w.yX#XiX*.2. XzX#X1XD . a ;X`.1.wX;XpX0   & 3XlXiX8.4. XvX+X+.@.pXOX- n yXHXlXKX>XM k 9Xd.8 8 hXZX@.X.].lXZ I 1X1XBXfX=XzXfXLX%XcXUX8XF V.KX^.x.3X5Xx :XSXMX4XFXgXkXCXsXPXHXbXK.",
"*X/.x.$X*X$X*XjX=X-XlXrX*X`.( CXiX(.nXaX( <X,XoXcXbX#XIXHX1XBX&Xe.+XKX-XxXGXiXDXJ.6XqXkXPXyXF p.cXx.w.oXbXm m.bXBX&X;XlXJXaXiXJXgX3XN.j N.1XC   x.UX).8 @.aX@Xd c pXPXLXUXp.- x hX[.2.8.PXxX9.7.|.AXA A ",
"p.R.AXz.c.t ; w.ZX{.U.xXI._ P.oX#XUXXXeX .<.Q.bXQ.Q.UXc.q.+XhX7XKX>X<XdX XeXAXn.j m.jXlXe.XXpXM.8X  X % jXN.,Xh.h.NXMXb.b.LXvXf.a.uXJ.J 2XOX@ @ #.KXg.N N %XhXn.oXDXE.!.aX7Xy.OXpX9.3.6.SXdX:.o.}.HX6X6X",
"G.XXd.pX.X  X   e.lXrXxXZX:XrXyX9X&X7XcXrXtXuXxXsXDXk.X o #.SX9X'.jXZX8.3.3.FXN.M J SXq . . 4X8X;X0   q 7XvXl.  . h.BXk c 8Xf.U 3 R.SXzXMXAXz.5 x.PXiX%.].BX4X4XHXwX' ' 1.PXFXdXLXdX8. XHXnX[.(.FXNXdXKX",
"B.#., f.eX..  % . r p e c.VXl.=Xp X e.aXF.KXx.p s.D X $   h.IX[.3.|.JX}.2.7.hXUXyXH bXr.  o z.KX,X%   0 HXNXt X   Z.1XV.bXbX_.R Y OXpXr.d.gXGX*XFXXX8XcXMX-XC V :XrX,.' {.FX[.4.|.KXCXUXrX3XKXcXIX(.:.'.",
"z.5 7 9 ;XyXp . $ . o o X _.UXd.  $ . %XGXd.  .   X & . w.IXzX3.4.9.FXKXiXDXKXZ.#XbXyX$X  . q MX7X2 . 4 MXXX  o q lX9X7Xj.*XAXXXXXHXk.> > g.rXeXDX,XvX&X4Xu.> < k.UXrX~.BXdX3.4.6.sXXXIXCXzXFX+XdX:.:.7.",
"oX#.u R.XXj.bX^     . X a #XkX$X    0 yX&Xl.+         D qXBXBX[.3. XJX$XlXAXc..   ^.PXAXa     $XnX% X q BXq.    e.KXjXp .   $X8XF.@X%Xu V T.GXzXU.] 1.sXGX#X$.p &X0X1XcXK.SX[.9. XFXKX`.7 ~ &XUXFX|.7.iX",
"R.*X$XyXw.= M.uX#X%XXXR.VXgX#XSXXXq.-XVX&XbXyX$X=XwXXXJ.D.I 6XJXCXLXZ.+ i IXr.X % . _.PXh.. X x.KXt   h.cXw     fXNXa   % X @XOX= v fXjXxXzX&XrX' [ ' tX%XfXIXGXIXD.I P P cXIXIXKX#X9X~ ! 3 f.lX+XPXKXUX",
"/.v.z.`.oXy.- y.j.y..XJX_.f.aXOX#XmXc.-X'.Y.3XKX0X0X6XD.A K.JXFXiXGX,Xt e i.gXa   & . XXSXq . l.UXc.X 1XnXw . v.HXp   &   c.8Xv h y.CXsXiXsXDXDX<.' [ rXSX#Xg.x.VXJ.D.qXD.KX%XA.wXhXKXT.7 Y #XUXzXaX(.3X",
"h.5 5 ~ $Xv x : g : oX`.E 8 =.:X$XR.;X=X@.X.@.fX6XP I A A 6X|.9.4.8.cXpXGXoX<XGXi . X % NXlXX i.KXhXh.SXjXO i.UX.XX $   l.GXOXJ.<X1XsX5.:.8.aX;XsXE.sX4X3X=.< < Z.KXxXhXKXsX6 @ V pX3XLX#X;XDX<XCX+.o.=.",
"B.5 # g.$XR.rXv R.pXpX#XX.7 e.pXP.T {.kX%.8 =.ZXqXnXD.L.JXqXdX6.4.8.IXaXp .XxXHXbX#.    F.UX:X.X1X7XUX*X,Xc.MXLXq     F.KX8XOXy...gXiX2.:.[.zX1XJX=XZXeXkX+X6 6 -XPXU.,.FXIXu.> r.IXgXUXLXxXIXVXUX[.o.Y.",
"yXB.q.`.R.r.x.XXrXf.'.sX`.g.;X#X! R ! rXrXT.eXxX].|.nXMX'.iXJXiX[.dXJXq . o w e.1XJXF.e i jXgXLXB.V.LXw.GX@X8X&X0 h.fXUXZ.D *   X u.bX}.}.pXVX}.-XrXtX XiXnX'.=XUXtXQ ] Y.KXmXA.nXDX]._.VXxX].).IXLXaXDX",
"^.B.M.^.9 o a +Xg.8 @.).#X#XB._._ T <.'.oX&XyX(.3.6.fXaX+.O.).9XMXcXSXp         O V.UXNXOXGXj.OXzXOXxX,XxXj.<XxXhXKXJXr.    X   . v.hX>XfXFX7.X.Y.LX}.:.6.sXxXrXgXiX,.] Y.xXCXAXPX(.N N LXAX+.X.(.UXxX.X",
"v + Q.R.o # u 4Xd.X.Q Y.oX+ e oX.XI.%XrX= x jX9.4.3.zXiX3.O.S.sXb.c fXlXc.i X   X   x.LXV.8XgX,XPXVXeX4XlXMXZXOX+XjXp o   X X #.+XjXj.+ v.dXO.o.*.lX[.5.:.dX=XX p.ZX3XwXZX&X+ y.PX=.N N sXCX0.+.g.LXv = ",
"v + s.OXi.#..XyXrX=.f.aX^.p x r.oXFX/.e.x y.jXzX[.|.LXmX[.(.iXFXF j N.GXUXKX:Xw.p p i aXkXF DXCX{.1.T.!.xXSXgXM.HX.Xi r.q.z.lXUXzXh.v . h.BXiXY.wXlXrX[.}.UX*Xw.w.XXvXKX&Xi.e B.HXz.$.x..XB._.f.+X$Xy.F ",
"=XV.oX/.;XyXoXD l.fXDXR.v._.s.wXwXR.-XF.v.uX#XzXKX8XH.7XGXnXFXsX3X:XGXhXVXxXVXGXHXUXxX8XnXDXuXtX>.>.,.tXMXhXGXGX:X:XzXLXUXGXVXnXkXlXLXOXlXyXZXHX1Xy.j.AXJXtXCXhX^.IX'.{.LXcXl.UXwX%XLX$Xv v XXZX#X_.VXvX",
"z.ZXa.Y / VXp.- y.vXz.3 y W.#XwX( Q U.-XeXT.W ( wX7XL L hXiX,.1.sXIXd.& y 2 2 w h.eXZXOXJ vXsX1.,.,.,.sXLXVXVX;XH OXDXeXd.0 $ % q * ^.UX~.{ <.yX/.- y.DXI.Y I.DXSXwX] ] !.IXGXpXY ! 4XKXD h SXtX! W CXUX"
};
