/* XPM */
static char *_7169_67d3b237b4a313868325121fc60893caa39768dd8fec0e160253d8536ed74a0e[] = {
/* columns rows colors chars-per-pixel */
"64 64 256 2 ",
"   c #020102",
".  c #02010B",
"X  c #080104",
"o  c #0B1011",
"O  c #013200",
"+  c #080C2B",
"@  c #2F2E32",
"#  c #26221F",
"$  c #750103",
"%  c #6F2F14",
"&  c #034B07",
"*  c #005137",
"=  c #036C36",
"-  c #2F5633",
";  c #4D4533",
":  c #383947",
">  c #03105C",
",  c #433B43",
"<  c #01534B",
"1  c #3A4547",
"2  c #046E55",
"3  c #2F6950",
"4  c #076C6F",
"5  c #38756E",
"6  c #08586A",
"7  c #484947",
"8  c #5A5857",
"9  c #4F514F",
"0  c #6B5953",
"q  c #546557",
"w  c #6B665E",
"e  c #596B6B",
"r  c #67686A",
"t  c #797877",
"y  c #6E716F",
"u  c #5D5B66",
"i  c #A0270A",
"p  c #8A4A34",
"a  c #A45B19",
"s  c #C76522",
"d  c #A76E59",
"f  c #827877",
"g  c #91786E",
"h  c #AE796B",
"j  c #935F53",
"k  c #CA755F",
"l  c #4C8A75",
"z  c #708576",
"x  c #068126",
"c  c #E3A11B",
"v  c #85847E",
"b  c #948379",
"n  c #B08672",
"m  c #B8885A",
"M  c #C99474",
"N  c #EAB574",
"B  c #D79E5C",
"V  c #EAC877",
"C  c #E3C259",
"Z  c #01018E",
"A  c #013394",
"S  c #010AAF",
"D  c #1F37AD",
"F  c #02738B",
"G  c #0150AF",
"H  c #3351AD",
"J  c #19599C",
"K  c #71768E",
"L  c #5871AD",
"P  c #6A77B2",
"I  c #515BA0",
"U  c #032FC8",
"Y  c #0301C9",
"T  c #0351D3",
"R  c #0571D1",
"E  c #1D73E0",
"W  c #4D72CD",
"Q  c #6876C8",
"!  c #403D98",
"~  c #8A7D92",
"^  c #049191",
"/  c #028FA4",
"(  c #03A8B1",
")  c #33A2AD",
"_  c #54938A",
"`  c #778F8B",
"'  c #748CB1",
"]  c #54B1B2",
"[  c #71B0B2",
"{  c #66A396",
"}  c #03B8CF",
"|  c #2093D0",
" . c #5090D9",
".. c #6F8FCD",
"X. c #4EB7CB",
"o. c #73B6CE",
"O. c #5A8CE4",
"+. c #03C9D5",
"@. c #03D0E8",
"#. c #37CEDE",
"$. c #77C9D0",
"%. c #74DCEA",
"&. c #5AD1D4",
"*. c #6AC2B4",
"=. c #888788",
"-. c #958A8A",
";. c #97978C",
":. c #948E99",
">. c #8B9598",
",. c #989999",
"<. c #888E8F",
"1. c #AF968F",
"2. c #93A799",
"3. c #A7A29C",
"4. c #B8A69A",
"5. c #B6A98B",
"6. c #8D98AD",
"7. c #AB9CA3",
"8. c #9BA4A6",
"9. c #97B5A9",
"0. c #9CA6B8",
"q. c #8EB0B3",
"w. c #A8A7A7",
"e. c #B6A9A4",
"r. c #A8B6AC",
"t. c #B8B6AB",
"y. c #A9AAB5",
"u. c #AAB6B6",
"i. c #B6B8B8",
"p. c #B5ACB4",
"a. c #CD9A8D",
"s. c #C5AA99",
"d. c #D2AD91",
"f. c #E9B893",
"g. c #C8B5AA",
"h. c #C6BAB7",
"j. c #D5BCB7",
"k. c #D0AFA6",
"l. c #E0A9A1",
"z. c #B9C5BB",
"x. c #B3C3B2",
"c. c #90C2BB",
"v. c #C8C5BA",
"b. c #D8C8BA",
"n. c #D5CCB4",
"m. c #E5CAB8",
"M. c #ECD5BE",
"N. c #EFCEAB",
"B. c #E8CD99",
"V. c #8E97CE",
"C. c #9BA7D8",
"Z. c #91AED2",
"A. c #A8B6C7",
"S. c #B9BAC6",
"D. c #AAB5D8",
"F. c #B7BAD7",
"G. c #ABABCB",
"H. c #95AFE5",
"J. c #AAB6E4",
"K. c #8798E6",
"L. c #C7BEC3",
"P. c #C0BDD0",
"I. c #95CECF",
"U. c #A9C7C8",
"Y. c #BAC6C8",
"T. c #B8C7D8",
"R. c #BAD6D6",
"E. c #ADCFD3",
"W. c #94D6E7",
"Q. c #BAC9E3",
"!. c #B4D2E6",
"~. c #B9E4E8",
"^. c #B0E8EC",
"/. c #A4E5E5",
"(. c #CCCCCC",
"). c #C7C7C8",
"_. c #D4CCCB",
"`. c #DBCCCA",
"'. c #D7C9C4",
"]. c #C8D5CB",
"[. c #D2D4CC",
"{. c #D9D6CA",
"}. c #C8CAD6",
"|. c #D3CCD2",
" X c #D8CBD7",
".X c #CCD2D3",
"XX c #CDD4DB",
"oX c #C9D9D8",
"OX c #D3D4D4",
"+X c #DCD4D3",
"@X c #D5DAD4",
"#X c #DCDBD4",
"$X c #D4D4DB",
"%X c #D4DBDB",
"&X c #DCDCDC",
"*X c #DBD4DB",
"=X c #E5CEC6",
"-X c #E6D7CA",
";X c #F5DBC8",
":X c #E2DBD5",
">X c #E2DCDC",
",X c #EBDCDB",
"<X c #E6D7D5",
"1X c #F0D6D3",
"2X c #CAE3DB",
"3X c #DCE3DC",
"4X c #D8E4D8",
"5X c #D6E2CE",
"6X c #E4E2D5",
"7X c #E4E3DC",
"8X c #EBE3DC",
"9X c #E9E8DA",
"0X c #F4E6D9",
"qX c #EDE7CF",
"wX c #C6CCE6",
"eX c #CAD7E6",
"rX c #DCDDE3",
"tX c #D6D9E7",
"yX c #D8DAF4",
"uX c #CCD3ED",
"iX c #E5DCE6",
"pX c #EBDCEB",
"aX c #C9E6E8",
"sX c #DCE3E4",
"dX c #DCE2EB",
"fX c #D8E8E7",
"gX c #DAE7F4",
"hX c #D5EEF1",
"jX c #E4E3E3",
"kX c #EBE4E3",
"lX c #E4EBE5",
"zX c #EBEBE4",
"xX c #E4E4EB",
"cX c #EBE4EB",
"vX c #E4EBEB",
"bX c #ECEBEB",
"nX c #F3ECEB",
"mX c #F4E9E6",
"MX c #ECF3EC",
"NX c #E7F2E8",
"BX c #F3F2ED",
"VX c #F8F7EB",
"CX c #ECECF3",
"ZX c #E6E8F6",
"AX c #F3EDF2",
"SX c #F8EBF7",
"DX c #ECF3F4",
"FX c #E9F6F7",
"GX c #F3F3F4",
"HX c #FBF4F3",
"JX c #F4FBF3",
"KX c #FDFCF4",
"LX c #F3F4FA",
"PX c #F4FDFD",
"IX c #FCFCFC",
"UX c #FCF5FC",
/* pixels */
"|.sXU XX5.s.tXS T.BXV.G tXcXD 6.4X0 tXI ' lX9 X # X y OXqXvXO.E | O.vX'.qXv.7   #   lXF.S NXB N..X! OXzXK...HXjXO.gXl.n IXZXH.IX",
",XSXxXJX'._.IXdXfX#XtXT.iX+XsXMX-Xf 8XdXeXNX%Xh.i.[.PXHXj.AXH.R E O.VX-X<XIXPX[.OXrX0XNX7XJXN.;XKXSX`.].CXhX1XmXPXPXpX9XIXIXIX=X",
"m a.zXU.vXnXU.MXk.n 7XKXg.h zXOXz.MX2XsXqXM j.HXIXrXt.v.AX8XuX .E yX0X1X#Xw.p.nXKX1XB N.zX6.NX[.9.0Xh b lXVXa.N AX{ 4XVX9.dXVXM ",
"3.1.Q.F E.].^ ~.1.a.cXuXjXj &X5 t 4X] $.b.p m.iX` X . 2.'.'.PXyXgXSXjX'.{.,   # i.pXB B.u.  oX9.O oX1.@XiX(.1Xa.OX& i.2X& i.IXN.",
"xX,XtXF T.sX^ R.qX3XC.U eX:XlX_ _ 1X) $.zXM.3X1 X   e BXMXbX'.VXVX{.`.BXVXz.  o   p.VXSXR.& 7Xx.< ,XDXDXK I kXMXHX5 x.zX- 5XIXIX",
"FXT.FX).rXsXR.lXY.NX' S yXtXhX(.U.cXU.2XaXJXv.X # q 9XVXi.@X8X=Xm.lXcXt.t.JXz.7 . ;.FX9.cX$X9X.X.XiXr.bXL ! JX0.3XVX5XfXMXIXPXIX",
"~./ T.0Xn.n.VX*X6 S.wXP AXl { FXfXt.NXCX#.W.8X9 w.JXkX@ t UXNX0XmX<XAX#X  ;.IXkXz *XoXO i.nX8XAXkXy.  4XL.y.7X  2.FXVXSXnXJXIXKX",
"~./ I.L.a i M oX6 q.cXtXgX/ { -Xm % n aX@.%.DXkXmXBX8   [.#Xr.CX6X).8.JX0   ).VXzXIXv.= x.kXP.P.nX2.O _.IXmX#X3 ` VXJ.J.DXKXPXIX",
"gXE.tXg.d s.h.BXY..XxXsX*Xq.aXmXn g b bX^.~.b.1.m.w.X : zXt p.|.w.kX  4Xr.  8 #Xa.l.,XXXNX#XA I jX6XoX0Xf.N 0XfXNXGXP Y ZXIXVXIX",
"iXZXiXp {.ZX*X XFXCX.Xp.xXzXNX*XZXkXa '.IXHXh n 4X. . z.$X  Y.i.=.-XX ,.MX8   i.-Xa mXHXiX XH H @XbXLXN.c B ;XDXxXlX..U ZXIXIXIX",
"R.4 }.0X|.. . + p.rXy   t.pXv +   i.#X-XI.2Xb.b.).  t IX;.X Y.;.; 3X# 7 HX&XX ;.0X-X%X3 z.PXV.Z.HX8.* j.1XnXsXO =.KXF.D.nXKXPXIX",
"t.+ U.GXr   @   ,.CXe . x.tX+       $XDX( o.DXvX0X` -XAXq   jX<.  lXK X OXvXi.cXvXPXY.  r.<XlXDXlX>.  [.pXyX&XX ` 7XVXMXbXJXKXIX",
"iXe hXp.  9 -.<.vX%Xy.0 XX<X3.y w X y NXX.E.4X] dXKX;X[.+ y JX` o HXy.  h.g.mXAXR C.6X3 zXVX#XiX9X4X2.lXQ W UX>.+XHXiX%XtXVXIXIX",
"pX).oX8.. w.lXCXtXrX6X&XfX+XqXkX{.@   6X4XfXR.^ R.m.d.v.  w.IX` # VX[.  i.n.p jXE ..1X0XbXl %Xz.3 mXLXzXQ W xXUXFX_ x.NXo ].PXlX",
"$X2XtXS.f iXD.sX' D.lXlXT.P (.}.yXt.f *XNX3XR.[ NXl.N mXy |.NXy + :X0X,.bX|.j mXJ.H.N.;XY.  ].r.  (.g.k.sXtX1Xf.>X* 9.2XX y.;XN ",
"@X,.fXpX,X].kXoXoXD.@XY.eXS.3XOX$X:X-XjX].&X9XhXFX7X,XLXIX-X-X8.~ =XN.IXzX#X=Xn.mX0XN B.3Xe 4X).r mXh s.VXVXM.c BXq.Y.BX<.BXM.a.",
";.X :.XX7.Y.i.. P.xXq./ &XjX=.=.$XC.jX(.X i.3X4X*.hXvX[ fXM l.IXnXM.c 8X5 9.NX2 Y.f.C 7XVXfX`.iXDXJX'.=Xr.<.;XM.LXJXmXM.KXLXFX-X",
":.. ` >XK  Xt   v.vX[ ^ oXCXr   `...sXi.  9 HXI.^ R.].2 R.k.l.hXgXM.N.%X+ 2.4X= 9.;XB.uXC.SXd 1.lX<.+X1Xt @ 6X0Xz .XN.s zXL J.HX",
"}.: ].$XS.S.).-.tXZ.%XY.F.Q.h.;.*XD.,X.X# 8.cXsX] 2X2X_ sXGXBX..R FXZXbX2.x.7X{ 5XCXFXC.U yX5.e.z.  i.KXy @ mX|.X ,.1Xf.pXY V.PX",
"eX%XsXR.|.].tXiX[.A.4XpXT.wX,XkXxXzXrXcX).%X&XxXfXOXvXtXbX%.LXV. .dX` Y.xXsXbXFXLX{ eXuX .ZXBXL._.  ;.LXy # zXp.X h.0XGXUXC.eXKX",
"&XtX<Xo.| +X6.=X|.qX|.Z.hXzX-XD.F.I.&.tXSXCXi.y xXa.4.>X^.+.~.dX!.sX  ` sX:XbXmX~.^ c.JXdXzXi.sXiX9 9 vXy @ sXy   jXBXK (.IXLXPX",
"xX' pXZ./ wXY.$XV.6.pXbXF.V.vXF. X] ( ZXF.vX8.  ,.`.i l.aX#.~.nXcXiX` ,.nXS.L &X4X[ oX-XVXt.X r.IXt   &X=.9 &X@ 8 PXp.X <.8Xs.HX",
"T.' T.wXZ.%XsX..Z V.(.s.S.S Q :X<XU.U.lX[ eXOX    tXa.M SXgXzXa.m b.PXnXjX..Z Y.kXUXUXm g.).  . 7Xv.. OX8.y :X  0.&XX . h.l.a bX",
"iX,X$XrXjXy.(.$XP OXe.j  XQ G.3XA.,XiXtXrXXXMX:.  >.j.h vXhX5XM d.m.).].:X3.J iXfXx.%XN.d.0Xt   f CX@ ].).w.:X  3X2.  t bX=X=XKX",
":Xf 7X<.g.L.).b.iXjX`.j.kXrX6X<X}.sXZ.cXi.8XsX$X  8.s.k.^.+.~.NXBX5X  l 8X#XeXnXY.  2.JX:XVXiX    jX(.t.bXiX].e.bX@   &XIX*XJXIX",
"w.X h.P.t.pX1.a {.<.S.jX:.OX5.d LXrXF._.  4.fXtXX >.<Xb.2X+.2XQ.J.9X2 2.AXBXCX8X*X3 u.aXK Y.nX).  3.LX@X-XkX+XMXe.  v.HXi.@ w.IX",
"e.# F.=XG.K.s.s.t.  ,.(.  :.k.a.XXJ.0XY.. =.KX%X  t BXrXlX/.fX..G NXR.sX5X].gXI.7XY.fXp.X X :.nX(.3.{.:X{.`.+X'.i.n.PX`     =.IX",
"_.L.7X'.6.H iX>XM.0 w._.  |.nXkXC...3XUXi.j.XXgXr i.%X/ eX,X5XZ...lXmX9Xx 2.>X/ c.mXpX].; X   ` JXbX'.'.zXjX`.'.DXKX;..   u *X=X",
"S.yXA.#XI H +Xz ).-X).sXu.8Xi.:XV.U sX7XhX[.Z.tX%XzXE.4 R.d.d.dXaX{.s #X2 9.3X^ A.-Xc 6X*X<.7 X i.`._.0XrXZXBXcX-XOX+ 8 w.vXmXB ",
"eXiX>._.V. X).  =.iX-X6XvX}.  ,.uXQ |.A.ZXT.T.:XAXlXeX9.VXn.a.mX0Xl.a.mX].].kXx.ZXqXM 1XJXHXOXi.L.@X'.&X}.(.ZXxX,X:X].ZXKXKX0X;X",
"4Xu.tX`.<Xn.XX8 ;.>X=Xm.&X].  ,.,XpX$XjXfX7XlXZXw.|.xXzXyX#X-XS.A.<X=XT.lX;Xf.VXtXtXDXXXh._.*XKX0X_.pXT.4.5.D.ZX_.,XUX%Xe.,.w.lX",
"` F XXy.j.i (.xX:X#Xg.s.`.CXXXb.M '.}.dXI.c.lXx.  t iXeXH E.3XL G <X_.A q.N.f.fXA ..bX9 @ o @ -.OX;X3XS.8 1 ,.xX8X6Xv         i.",
">./ }.S.L.g [.iX$XiXd.d.b.jXvX>Xm n.Q.uX&.) 4Xu.  8 NXH.S G.6XH G tX[.A ' M.B.%XG V.{.X   . X 7 XX{.iXA.3.3.y.fX,X>Xu.r X @ @ }.",
"iXS.|.|.<X:X]., -.vX`.n.m._.0 i.1X8XtXdXR.fX8X3X=.i.>X:XH.tX>XG.G.>X%XA.gX;XV HXwXwXbXz.;.w.z.GXlXv.3XS.r.e.A.FX<X>XIXbXOX(.).AX",
"A.tX6.F.~ Q.).. v jXcX4XrXi.X =.DXD.eXy.%XtXeXzX%X7XsX@XbX<X4.,XZXg.s.lX>XOXzXtXvX<X4.=XGXGX4XOX).-X<XsXy.,.tXxXjX%X8.i.>XIXmXg.",
"e.`.G. XL ! *X<.$X&X&XdX%XrXw h.G. .eXi.fXwX . XvXbXU.) aXn b bXnXj.i {.8 =.hX] I.e.i `.iX3.8 X 8.:X=XnXxXgXBXkX(.jXX   7 w.kX4.",
"h.~ v.S.6.D -X-X:Xt i.&Xy `.+XzXV.O.4XNX X:XJ.xXr.iXU.^ oXj.b.!.Z.*Xn.&X  y sX/ [ 7Xb.>Xr     r JXmXb.'.bX8X6X{.cXIXOXX     w.KX",
"1.. b #Xi.V.L.4.h.X ,.].X ,.=Xd.}.C.BXtX9 7.FX4X  8.hXq.kXhXMX' G tXjXcXr.w.3Xc.fX8XGXY.. . y &X_.w.OX&Xn.-X0XBXY.r.SXz.@ . 8 KX",
"g.  3.(.F.*X5.p {.w S.6X# v.d.a GXtXtX X  ,.bX}.. :.MXcXXX_ lXD.H BX` q.DXjXkXfX#Xz u.fX8 i.SX_.  ;.FX8X#XbX,XGX*X  ,.IX$X=.i.fX",
"*X7.-X' i.(.h.b.jX>X#X`.+X0X-Xn.4XdXP 0X=.M.!.OX  w.b.=XU.< ].CXeX9XO q BXcXdXlXv.  e PXrXAXLX@   jXOXh.lX].ZX,.DXr   i.IX>XUXsX",
"h.).i.h.|.S.).).P rXj.d mXG.F.kXD.tXOXdX,XZXCXP.. 8.l.k.].q.2X{.OX[.y.9.nXF.P tX:X;.Y.:XN.mX<.. =.IX9 ).*X` LX. {.i.X : >Xj.4.xX",
"Y.e y.Y...%X:X6.Z 0.j.h &XU U dXcXaXaXeXI.!.nX8   u.n.m VXPXkXd i e.FXCX[...S G.CXUXIXM M Y.    +X(.  (.t.7 vX# y GXr   w.|.  8X",
"tX6.tXq.F Q.T.}...' ,X1XT.T !.gXdX%.#.bX$.ZXy.  w lXd s.2XU.fXg.4.v.].(.mXC.Y }.9X9.R.=X;XS.  ;.IX<.  _.,.  rXy   cXpXX y IX[.3X",
"$X$X X6.) T.6._.eX5XY.F.7X XqXD.J.W.@.ZXZX9X:.  ].g.d '.U.< [.9X7XxX= z 9XrXeX:Xv.x { GXZXjXw.&XkXr   bX:.  sX3.  Y.VXi.+XZXFX4X",
"oXA.$Xz.). X).*XtX}.}._.}.{.cXZXeXbX~.fXAXjX*X|.JXd.`.UXXX2 %X}.6.6X- z nXGX:X8X9Xl w.2X .tXDX<X(.  t GX-.  lX).. 3.m.0XPXV.K.AX",
"i.  7.$XP.S._.-.*XV.oXaXp.G.#XY.xXeXdXfX:.i.kXFX/.VX4XI.bX2XFX6.Z [.(.2X%XT.VXu.4X5XZXU.S F.b.a.L.  ,.IX=.  sX3X  t v.k xXG D UX",
"-.X r pX6.wXt X OX>X*.&.eXjX;.. OXH.%XXX  8 9X^.@.~.].^ 2XiXiXG.G cXM.lXl ` fX^ q.zX-XeXQ xXM M CX;._.8X=.  (.<X0.i.,Xi pX}.J.mX",
"3.. v {.V.A.8.  (.hXX.X.dXpX0 X  Xo.tX(.  w pX/.@.~.oX^ }.1.h SXNX:Xs '.4 _ CX^ *.m.B 0X3XmX9XiXCXHX'.`.(.,.@Xt.BXBXNX#XDXUXKX0X",
" X3._.|.iX[.4X_.}.D.aX!.eXL.n.`.iXaXnXbX,.v.bX9XaXxX1XR.LX4.s.>Xv.1Xk qX%X].PXoXjXqXd.a.3Xt *XaX_ fX4.h MXIX[.$ >XW.W.IXI.^.8Xc ",
"e.yXL.-.,.kXQ.tXP 0.rXlXT.W }.$XXX&Xh.sXzX6XZXaXGXd.l.AX_.OX'.,.  ).N.S.7XNXk.IX}.}.m.N L.  r.@X* !.j.g.yXQ.>Xb @X+.&.LXX.o.VXB.",
"h.R.tX9   i.xXCXT.tXiX8XjXQ.xXZXgXy 9 4XhXvX/.+.hXk d._.X i.9X>.  (.8X; :.-Xi 7XI ' cXSXiX< h.gX_ vX7XBXH.T gXFXGX/.%.IX$.~.KXVX",
"i.q ).~   9 -.3.kX_.,.v @XxXL.r.>.  8 NXI.hXhX} aXmXl.v.. <.KX-.  cX*X  <.=X'.zXA K xX9.vX3XXX9XDXfX` 4XH.T gX/.^.UXFX4XlXHXI./.",
":.. y.`.# + #   S.7X:   .X@X- # @ X h.FX+.W.PXaXLXeX,X+X7 1 BX;.  #Xe.X p.mXn.zX}.*X).O r.ZXhXmXjXx.& x.dXT.FX+.&.%XMXDXbXdX#.X.",
"t.6 S.*Xr.  X   i.fX9 . .Xv.. X   g 0XhX+./.cXSX*X  ).IX~ . 5X3.X OXz . [.MX@ <.cX+X(.* i.DXH...ZX].< (.nX0X9X%.%.JXXXI rXPXW.I.",
").<Xh.0 &X}.i.(.xXsX).8.jXpX|.S.].n.V M.gXFXt i.z.  8 MXe.  .Xt.@ {.1 7 GX;.X f n.0 `.mXZX$XW R Q.xXFXcXV C M.PXFXtX6.> u.7XvXIX",
"L.S.wXn ~ s.v.ZXS.$X[.%XOXT.NXUX0XB.V nXgXJXb 0 *X8   w.eX  (._.f zX  i.[.X . h.s.% xXhXcXFXQ T gXrXU.kXN.B.qX2XfXMXG.> Y.IXeX@X",
":.< 0.3.% $ e.U.F r.oXeX)./ q.qXC c V hX#.^.zX@X&Xv.X o mX:.r.zXv.xX9 nX;.  =.iXn.<X%X+.W.7XeXQ.zX9.& z.MXAXMX5 l lXxX}.lXcXX.[ ",
"7.. u.(.3.S.dXA.< z.A.V.eX4 q.HX5XB.qX4X@./.ZXw.vXKX;.  ).mXv.mXDX(.|.CX# @ lXmX3.h.aX} W.jXvXgXvXY.& [.yXZ.PXz y AXPXJXCXUXo.] ",
"P.:.S.0.v._.eXeX0.$XP S eXT.rXaX2XCX2XJX/.FXu.. 8 '.HXv v VXcXL.$X_.nXv.r lX7Xv X e cXW.sXgXoXuX~.NXz.LXZ.G fX2X4XgXY.CXR.vXSXgX",
"'.L.w.X i.q.F Y.eX XP D Y.&XsXX.W.FX( c.hXPXr.  #   h.UXsX[._.:X6X7X).kXBXBX8     r iXmXvX) E.gX} aXZXcXI.R tXSXJX[ { IX] [ UX@X",
"0 7.6.  i.q.F E.t =.S.E.).p oX+.W.aX( I.'.a.ZXw.. X @ rX+XqX>XAXrXlXAX`.9X<.  X e >Xp.g aX/ A.uX} ~.w.7.ZXZXiX0 *X] l JXo.o.tX; ",
"; 1.L.=.(.eXq.eXb j .XgX-.g cX^.aXJX$.aXn.a 6XIX#X=.9 i.+X{.ZXH.C.tXBXOX@Xt =.u.PX%Xy w fXE.2XiXW.LXi.=.,XGXt.f nX8.q._.0.z.).h ",
"OXt.}.iXe.p.bXF.A.x.~.}.h.`.tXAX:X:XFXFX3X<XAXlXAXPXJX9XNXlX!.R K.NXBXbX+XxXPXDXZXcXkX$XxXUX_.e.HXZXxX&XfX~.bX{.gX,X*Xw OXrX}.SX",
"XXi.! tXj e.XX> y.tX..L &X}.G T.b.B NXO.Q.BXu u @ f dX-Xj.ZXO.| H.HXBX{.k.CXY., 1 @ L.ZXT uXs.g gXJ wXLXV.R gXKXP 6.FXp :XC.P KX"
};
