/* XPM */
static char *_337ca3c6abc40fba7d8acd76cdc640d[] = {
/* columns rows colors chars-per-pixel */
"64 64 256 2 ",
"   c #050101",
".  c #0C0101",
"X  c #0A0608",
"o  c #130201",
"O  c #150907",
"+  c #1A1407",
"@  c #160B13",
"#  c #181618",
"$  c #080C16",
"%  c #261607",
"&  c #251A16",
"*  c #280E04",
"=  c #182617",
"-  c #262818",
";  c #342F19",
":  c #191A25",
">  c #231C23",
",  c #1B2627",
"<  c #183728",
"1  c #1E2C32",
"2  c #282729",
"3  c #372B26",
"4  c #3A3729",
"5  c #393737",
"6  c #2C3230",
"7  c #44321B",
"8  c #453529",
"9  c #453934",
"0  c #4F3934",
"q  c #603E11",
"w  c #34472A",
"e  c #364637",
"r  c #304B32",
"t  c #26482F",
"y  c #494338",
"u  c #56463A",
"i  c #4E4D32",
"p  c #6A5036",
"a  c #6B451E",
"s  c #333A46",
"d  c #433E44",
"f  c #335348",
"g  c #1A665A",
"h  c #316955",
"j  c #2E7669",
"k  c #1B5C42",
"l  c #4A4846",
"z  c #584A46",
"x  c #485947",
"c  c #5A5347",
"v  c #575656",
"b  c #445052",
"n  c #644D45",
"m  c #67584A",
"M  c #755A48",
"N  c #685954",
"B  c #735D56",
"V  c #466952",
"C  c #576B59",
"Z  c #527055",
"A  c #6A644A",
"S  c #74624C",
"D  c #696458",
"F  c #766759",
"G  c #79745B",
"H  c #67765D",
"J  c #575A66",
"K  c #4E5462",
"L  c #655C64",
"P  c #547367",
"I  c #676767",
"U  c #7B6C63",
"Y  c #756A65",
"T  c #7A7568",
"R  c #787778",
"E  c #69746C",
"W  c #8A5829",
"Q  c #976935",
"!  c #A77038",
"~  c #995D1D",
"^  c #846B5A",
"/  c #87755C",
"(  c #967152",
")  c #A9794D",
"_  c #846D65",
"`  c #887868",
"'  c #957A68",
"]  c #877A74",
"[  c #947D75",
"{  c #866F76",
"}  c #A37D6A",
"|  c #598872",
" . c #77866A",
".. c #758976",
"X. c #6D8B76",
"o. c #708157",
"O. c #B88731",
"+. c #C7903A",
"@. c #B48A55",
"#. c #89836A",
"$. c #97846B",
"%. c #898576",
"&. c #9C8B7B",
"*. c #978776",
"=. c #99947A",
"-. c #89957B",
";. c #A88565",
":. c #A38C7B",
">. c #A68976",
",. c #A3917B",
"<. c #AA957A",
"1. c #B69679",
"2. c #B48F6B",
"3. c #AFA17A",
"4. c #89A57F",
"5. c #C5924D",
"6. c #D0A452",
"7. c #CB9A6D",
"8. c #C7A57A",
"9. c #D4AE71",
"0. c #E4B672",
"q. c #E1AA57",
"w. c #E5C47F",
"e. c #757B83",
"r. c #937D86",
"t. c #74958D",
"y. c #67A18C",
"u. c #898885",
"i. c #998B84",
"p. c #9C948B",
"a. c #989687",
"s. c #9A9796",
"d. c #89938D",
"f. c #A38C83",
"g. c #A98E87",
"h. c #A39383",
"j. c #AA9483",
"k. c #AC9B84",
"l. c #A49B8C",
"z. c #AB9B8A",
"x. c #A79688",
"c. c #B49C85",
"v. c #B39C8C",
"b. c #B79A86",
"n. c #AB9C93",
"m. c #A69895",
"M. c #B59D94",
"N. c #8AA78B",
"B. c #99A388",
"V. c #9CA995",
"C. c #92B098",
"Z. c #AAA58B",
"A. c #B3A38D",
"S. c #B9A589",
"D. c #ACA393",
"F. c #A9A899",
"G. c #B4A493",
"H. c #B4AA94",
"J. c #BBAC92",
"K. c #B3A49B",
"L. c #BCAB9B",
"P. c #B8A898",
"I. c #A9B59A",
"U. c #BBB39D",
"Y. c #B8B49A",
"T. c #B4B28E",
"R. c #989AA3",
"E. c #A99DA5",
"W. c #9BB6A5",
"Q. c #AAA8A6",
"!. c #B4ABA2",
"~. c #BCADA3",
"^. c #B4A9A7",
"/. c #A8B9A7",
"(. c #BCB3A4",
"). c #B9B8A7",
"_. c #B8B7B5",
"`. c #ADB2B6",
"'. c #C19E84",
"]. c #C5A78A",
"[. c #D8B789",
"{. c #C3AC9C",
"}. c #C6AC97",
"|. c #C3B39C",
" X c #CCB49C",
".X c #C8B798",
"XX c #D6B898",
"oX c #CFAF8C",
"OX c #E2BA96",
"+X c #E4BA8B",
"@X c #C3ADA3",
"#X c #C4B4A4",
"$X c #CCB4A4",
"%X c #C4BBA5",
"&X c #CCBBA4",
"*X c #C4BBAC",
"=X c #CCBCAC",
"-X c #C7B5AB",
";X c #D3BBA4",
":X c #D3BCAB",
">X c #D8BAA6",
",X c #C8BBB4",
"<X c #D4BDB4",
"1X c #C2ADB4",
"2X c #E0BDA5",
"3X c #94C9B1",
"4X c #B9C4AB",
"5X c #B9C8B8",
"6X c #AAC9B1",
"7X c #BDC39F",
"8X c #D9C59A",
"9X c #CCC599",
"0X c #E5C799",
"qX c #ECCC94",
"wX c #C9C5AA",
"eX c #D4C3AB",
"rX c #DBC4AC",
"tX c #D8C7A8",
"yX c #DCD4AB",
"uX c #CCC3B3",
"iX c #C7C7B8",
"pX c #D3C3B3",
"aX c #DBC4B4",
"sX c #D3CAB3",
"dX c #DBCBB2",
"fX c #D4C5BB",
"gX c #D5CCBB",
"hX c #DCCCBC",
"jX c #DCC5BA",
"kX c #CBD4B8",
"lX c #D7D3BA",
"zX c #E6C8A8",
"xX c #E6D4A9",
"cX c #E4CAB5",
"vX c #E3D3BC",
"bX c #E7D5B8",
"nX c #F6D7B2",
"mX c #F2E4B8",
"MX c #DBE0BB",
"NX c #B7B9C4",
"BX c #C5BDC4",
"VX c #BDCCC2",
"CX c #C9C9C4",
"ZX c #D7CAC3",
"AX c #CAD6C6",
"SX c #D8D6C8",
"DX c #D3D5D3",
"FX c #E3D4C4",
"GX c #E7DAC7",
"HX c #F4DCC7",
"JX c #E6D5CE",
"KX c #D6E2C8",
"LX c #E8E2CA",
"PX c #F3E3C8",
"IX c #EDE4D5",
"UX c #FAE9E1",
/* pixels */
"J.$.O Q.*Xl.  a.).wX(.c ] DXCXt.e.ZXv.P.R.J BX_.d.V a.` i.r.n r.r.d ` T G %.w C =.[ v [ z.J.v.U d.NXE.R.L ZX<X@XR.5 M.@XR.& &.A.",
"c.` . V.*X% . D.Y.J.hXo . E.NX1 I fXb. Xs.: r.ZX| < -.a.Q.Q.p.m.u.p.a.%.a.T < C l.F O Y S.1.}.N 1 `.`.6 X ZX}.@XR.@ 0 ,XE.& ` 3.",
" X<.. _.F o . *X#.  gXN . d 1XL Y aX2.].m.1 s R.t.< d.T 1 R.J t.C b d.V H d.- D %.4 2 ] 7.( '.F > `.I $ 9 1X8 B ^.O . U _.% =.3.",
"oX XA.aX3 . ' SXN   <X-X. . ,X@X$X>X@.8.<X{ @ R Q.C V.C 1 t.E $ 1 P N.e f a.H %.` # y G.) Q ].}.i.BX2 @ M.1X. 0 ZXU . u ZXp.].XX",
"}.oX8X|.p 0 #XH.` . P.#X*.  j.;X$X].) 7.b.{.B B &.i.p.D e t.h f < f N.i 8 =.f.&._ o _ <.) ) 2.}.-XL.  m -XM.@ L G.S.0 u $XXX>XXX",
"S.eX}.tX|..X=X(.D . {.-XCXK.A.k.J.{.1.<.[ m.{.[ M.x.n.a.s.W.X.< < C W.i.` &.g.f.r.{ g.>.<.1.b.g.M.L.&.P.@Xm.: L m. X X}.cX XzXXX",
"G.J.y H.H.-Xi.ZXN . -Xh.i.,XF.c ` D.$X[ u.e.^.M.u.L m.Q.p.] p.H H d.u.m.P.:.n { i.m._ T T =.i.U Y m.!.D.p.E.$ K !.` A.=XP.n b.}.",
"A.%.. %.pXG o ^.K.F pXu . !.!.. & ^.M.. J 1 ` @XJ : r.(.Y O { D.a.H . z g.^ . 5 g.{ X 2 # ] m.3 & ] *.9 2 E.L d.^.. S uXm.o ` XX",
"Y.*.  *.=XF X p.=X$Xz.0 8 ~.!.. 3 ~.~.X , , N M.L X Y 1XY . [ G.c.` o & [ M o 3 g.m o : O Y u.2 + u.a.9 d ^.^.1XF.  n ;Xs.. $.>X",
"J.H.m #X$X>Xi._.=X$X}.k.}. X(.Y i.,XZXp.t.d.G.{.m.5 g.M.E.N g.j.' $.8 Y [ *.& Y ` [ z N D i.m.Y c (.#Xf.B M.~.<XK.] @X>X-X3 b.zX",
"|.vXsXtXOX[.FXiX^.x.$XoX+X[.&X#X X$XF.iXF.*XH.P.@XM.M.M.K.m.>.( ) b.g.&.$.z.[ ' ` &.l.x.H.,.D.wXF.eXOX[.].@Xr.NX~.tXOXXXzX1.2X}.",
"&XwX&XoX7.Q ].(.v . &.b.) ( ].&X;XG.X %.P.Z.. F  X$Xg._ 0 g.1.p a 2.b.0 0 &.>.' B . >.:.#.X $.|.uXeXoX9.XXP.s e.K.oX@.5.oXb.XXb.",
"L.<XU ;X7.Q 8.=Xs # x.2XW ) >Xr.P.@X. 5 uX#.  T ~.U L.F X Y c.p q ' ] . 3 *.S =.F . p {.8   z.|.a.aX9.9.0Xm.s b 1XoX! ) 2Xv.:.c.",
"n.n.  A.+X@.oX$XR   n.oX9.@.2X0 F <X& Y hXL.3 p.r.  f.z.o 2 >.W Q 2.u . m a.. F *.o >.v.A . S.` 5 %X7.9.xX).1 K 1XOX) 7.>X* ^ :.",
"{.F.  n.zXzX XhX~.f.tX>XOX2X>Xd 0 ZXz.n.-X$X-XK.I   _ @XB o :.} :.j.O O a.` . u P.>.'.b.>./  Xn l iXtX8XeXeXg.m.}.2XOXOX@X& ` 1.",
"L.l.  D.tX.Xu H..X X}.' ' @XM.n N m.L.v.` 0 n.m.Y . [ g.n.0 [ } ' *.9 D &./ . m >.>.M [ <.<.:.F 9 !.*XH.m {.zX2X}.^ @X$Xx.@ ` ( ",
"J.<.. !.fXD X a.wX3.I.4   a.F.9 u ~.%.n._ . m !.Y . *.&.n.n.n.v.$.j.f.x.,.^ . u ,.M . c G.j.i.m 6 Q.Q.s # D.Z.U.i.X z 1Xr.O _ ^ ",
"S.S.o ^.s.# 5 /.I.; Y.A # l a.8 B E.. %.[ . O %.[ o $.S n n.&.N n *.$.p F ' o u $.% . U k.; *.c + s.I s y l.A  .u.> : R r.0 ^ ^ ",
"<. XF @XE   Y ).H = Z.a.  : a.G x.p.. c D.y . N v.M g.0 o ] p.& % i.` o o >.p *._ o & M.m . ' ,.G n.f 2 U a.< C s.z # l M._ r.) ",
"b.].@X{.] 2 H.Z.H - =.A.v $ %.,.x.x.. F i.%.. D M.<.[ n . { x.8 o *.b.& o ( c.c._ . ' v.#.. / }.}.M.2 l P.Z.4 C F.=.  l g.'.} } ",
"'.$X@X:Xv.,.L.A.=.$.1.A.K.*.j.g.:.M.*.H.h.H.Z.k.v.f.>.[ [ f.c.' M b.@Xb.<.S.|.].}.k.|.J.=X:.P.{.&X=Xm.).,XU.%.B.H.|.G.=.1XU.J.*.",
"} g.0 z.$X<.p =.,.<.=.A ] n.f.n B n.k.` Y D A.*.[ 0 [ f.[ N 1.'.8.>.[ @X&X|.A =. X X$.` $.pX-XR U -X_.).-.%X%XY.D.#.=XH.M.z &.' ",
"} B o U T.i X H ,.=.4.- = s.i.. 5 n.i.  X X N n.L @ B M.v o :.'.'.b.O r.<X[ X N &X$..   . l.Q.5 : R.5XC V I.Y.wXV.w #.iXR X _ ,.",
"( ^ . T .XA + G H.H.I.; 6 V.p.. 3 `.s.  $ X N M.L o B @XN o S.1.8.1.. s ZXf.  v vX` . . . x._.2 @ Q.4XZ x 6XwXlX-.w #.*X..X ` j.",
"' :.8 k.tXJ./ Y.i.f.~.h.=.wX|.m [ 1X=Xi.T ` (.H.Q.& '.2XG.f.dX3.;.xX=.%.zXdXc z.HXcX_ _ g.HX-XU %.uXwXT.I.).P.L.wX%.dX|.H.B <.} ",
"$.}.,.H.A.Y.%XH.z o &.wXwX7XwXwX,XZX<XZX#XpXH.(.pXP.oX].:XdX4X9X.X9XlX9X].0XrX:X<X<XjX>XcX>X:X$XcXlX4XkXiXK.o u |.lXtXU.*X:X2X( ",
",.S.#XY.X.x ).`   = . F.y.r Z.%X#X_.v Q.=X#X  %.<XcX2X) S.4XV 3X6Xx I.8X@.0.xXZXn.. @X<XE.@ @XHXwX4X| y.I.- & . ] *XV H K.cXcXM ",
";.J.G CXE r I.l.  X u iXP f /.A.(._.1 J SXL.  %.FX' cX'..X4XP 3X3X| 4.9X5.qX' SXm.o z.ZXd > E.<Xz.kXj h /.z   . *.!.f E ,Xf. X^ ",
"3.=.O _.Q.y Y.A + O ; G.-.H CXv ] CXP f ^.ZX. (.1Xo v.HXFXsXV W.3X| 7XPXLX$X. R.*X. aXf.# l uX` c VX| P F.0 & 4 B ).x N.NX. ,.$.",
"3.#.O s.AX5XSXuXwXZ.<XcXwX5XAX2 l IX`.6 { JXD.JXn.. K.uX).SXI._.6XN.KX7X4XiX# R pXS.dXS   m.sXi y /.6X5X).U.x.#X~.fXV.VX`.  ' ;.",
";.k.3 Q./.VX4X*.8XbX*.~.5XVXVXD ] lXGX=.f.=XlXsX^.z AXt.f 6XKXwX9XkX6Xh ..4X+ p.|.tX.X&.U sX;X_ F ).W.6XZ./ tX.X$.).6X3X5Xy $.;.",
"$.HX%XSX| P W.h.tXzX$XF.t.h VXAXkXyXxXxXbXjX!.AXJXFXgX .h C.9XzXxXyXN.h ..kXS.zX&XG.8XtXnXnX>X;XpXAXh y.I.S.+XXXc.I.V | AX*X8X} ",
">.bXLX..g g 6XtX5.! zX5Xy.g | 5XLXqX5.0.nX(.  s.8X8XoXS.-.wXxX6.6.xXMXX.9XxX9.9X^.. h.8X0.@.OX>XuXC j y.wXXX! @.[.I.g j X.LX8XM ",
"<.wXwX6Xg j C.yXW Q '.DXP g X.AXMX8X@.5.xX%.2 I 8X2.9.8XMXkXqXq.0.w.mXLXmXT.O.qX*.X #.0X5.! OX>X). .h | gX8.~ ~ [.B.g g y.9XyX@.",
"}.eXwXX.g j 6XtX2.W ;XSXy.g h AXMXyX5.9.xXP.O %.9X[.0XlXI.5XmX0.0.w.yX4.wX8X3.8Xn.o :.OX7.! ].>XwXx f X.#XoXW ! 8.3.k k H 9X.X2.",
"&XlXiXI.| j 6XH.zX].cXI.t.h W.KXKXmXqXmXlXGX=.).yXyXMX4.V C.MX9.0.qX3.- G sXxXxX<X&.cXcXnX[.OX}.wXV.t X.S.0X2.2.2.=.t Z B.Y..X( ",
"cX{.` ZXI.V.wX^ oXcX>.n.I.N.AXa.a.gXJXwXI.gXGXsXY.H gX..h N.MX9X[.9XY.w A sXT J.cXcXcXg.M.cX$X[ R _.%.Z.k.$.].2.p #.H T D.S >.' ",
";X:.. !.lXkXmXeX<X:X=XhXMXiX_.9 ; SXVX# y iXtXwX#.X ).Z.o.5X7X7X7XZ.lX,.l.wX. T jXP.FXn . E.ZXz - Q.gX.X$Xv.j.,.=.Z.Z.s. .o F ' ",
";X:.o ).I.o.9X#.m z U *XV.V.iXu 0 DXe.$ T ZX7 P.%.. &.tX9XI.w I.6Xw ).PXzX.XO =.-Xo jXU 2 v ,XN # Q.d.G j.m 8 4 A *.x ..%.o M ^ ",
"$X;XB CX .w 9XZ.. . z iXe C kXj.&.iX6 1 (.|.o G n.8 1.1.S.$.w N.W.w #.T.2.[.S ).*.o z.Q.# @ h.&.F Q.- = f.N     T F.w P !.n ` ' ",
"].<X{.=X .i Y.`   2 ; )...w Y.rXXXv.. Y ;Xv.o n *.>.2.) 8.' + a.I.- / 3.W 7.}.|._ . *.z.n . _ ,.A.p.- w &.; -   Y ).w H Y.J. X>.",
"].bXrX$XU.wXwX-.8 . ] ,XAXa.eXoX>X Xf.{.b.].' *.f.c.} 5.'.M.>.M.k.=.S.3.} 2.}.v.,.^ b.f.g.' ,.c.J.L.Z.I.%X`   O %.CX).-.Y.dX>XS.",
"}.:X$.=XyX.XI.7Xa.] ).I.).4XwX=.}.M.L.f.' ' b.f.i.n >.].b.>.'.) ;.|.=.:.'.'.L p.v.b.f.g.g.P.|.&.*.,X*XU.I.).A T iX).LX(.uXx.A.3.",
"}.>.o j..Xo.w X.uXpXG.w A T.a.8 8 i.[ o O o ' :XY . ^ :X_ o 1.} ;.b.O 9 >Xf.O L v.' o O * c.L.u 9 CX4XA - Y.sXkXV.e B.SX).3 $.1.",
"b.' o U 3.i w  .wXJ.%.; ; -.p.O O D.Y . . o ' uXI X U hXB o } oX].j.@ 6 @X[ X s {.M o . o *.(.3 > `.4Xw - T.wXkXN.t w kXs.6 %.,.",
"1.' o ' k.-.i -.=.<.=.$.=.a.K.Y Y SXD.y u A &X|.p.+ z.&X-Xm '.2X}.:XL m.$XP.> s.cXb.m m S $X).%.s _.iXZ. .wXkXKX6Xi I.SXVXv H.S.",
"1.S.c.{.U.Z.3.T.*.$.J.T.T.Z.~.(.|.wX].J.pXdXtX X{.k.].S.:X<XrX$X$XfX<XfX<XHX$X<XbXzXrXdXvX|.sXSXiXJXAXGXwXMXkX4XkXlXLXSXLXwXPXS.",
"1.S.b.z.T v Y.D.H i T.8X#.8 !.sX9XS.% c.GXrXu ' }.xX3.p B =X=Xm N ,X=XS M >XHX$Xv.i ;X.XS.. Z.yXMXuXD a.sX4XH  .kXbXi.i.gXlXlX$.",
"}.J.` ,XE X d._.V w T.|.6 # 5X(.U.wX. G dXG . U =Xz.dX7 . !.FXu & BX,X. 7 eXZ.gXl.. G GX#.. U.sXwXKXe < ).kXV | lX%X- I SX,X=X*.",
" X:.O CXs.1 v BX4.H gXG < C SXc T ZX  B.uX  . K.^.o pX] 8 =XdX&.z CXFXu ` %X  Q.,X  . U.T.  wXh.m SXJ f T kXH X.gXY s ..AXB v.[ ",
">X[ X NXZXz # _.SXwXZXu X VXDX4 v IX(.GXD.. D IXp.  F.hXjXvXhXsX$X<XUXFXeXH.. ] IXL . %.hX*.lXc - AX`.< l ZXF.iXBX> 5 CX_.6 i.:.",
">Xr.: BXPX.Xv ,XUXFX-XN f.SX_.v Y ,XGXlXl.% =XpXi.  ,XSXDX*.&XmXbX{.m.iX%X,.  *.fX-X  [ :XaXeX] 6 AXDXu.I ZX<XfX_.# p.SX_.b ] [ ",
"<Xm.# BXHXnXSXJXJX=XGXFXHXPXCXl I JXpXbXdXbXbXhXm.. ~.JXR.$ H.bXcX#X  v gXZ.   .eXbXjX<XcXjXjX{ 5 iXFXGXdXGXpXfXSXwXLXyX/.e T R ",
"ZXg.. pX+X9.mXGXu.v $XzXOX[.FXd N GX8 h.eXyXS <Xm.  K._.s s 4X9X[.tX6 1 I.).  #.eX^ bXaXM.m JXF & iX2XqX8XeXF ..lXyX8X8X).6 F F ",
"cXrX` 0Xq.+.qXwXf s M.0X+.! zX:.#X=X. c FX#.. ] hXD IXE 1 t.lX9.6.nXr., D ZXG #Xn.. &.GXy . $Xv.B zX5.O.8XwX, f wX8XO.6.yXG *.S ",
"zX X;X0Xq.5.0.J.s $ @XqX6.6.0XaXJX(.o *.JXH.. ] fXgXSXv 1 `.tX6.5.qXfX6 4 (.pXJXf.o ' sXG . J.bX>XOXO.O.+XY.$ r 4X0.O.O.8X9X.XQ ",
"&XeXhXrXqXqXzXtXi.{ cXnXqXOXcXvXFX<Xg.<XHXmX@X#XSXIXuXD._.GXxX8X8X0XFX=X}.eXGXPX@Xb.<X:XcX' oX.XcXXX9.qX0X;XG #..XXX9.9.tXHXoXM ",
"sXgXK.JXbXtX&XaX=XFXFX:XcXvXJXi.).sXjX<X&.z.PXJX1Xp.#XFXZXD.sXdXtXtXj.<XzX#Xi.K.:XjXjX~.aXGXzX<.<.cXmXtX.XxXxXwXeX.XzXzXbX{..X( ",
"gXu.  BXZX%.2 Q.hXhX,Xz D AXVX# c CX<X{ J : L.JXR X n.fXd.$ F.lXtXU.& T cX' X E <XG.l e L ZXIXT O pXIX=.4 4XHXcXK.+ f.:X!.% / $.",
"iX%.$ NXJX9 X _.,X*.ZX9 - CX`.  5 _.@Xo 2 X %.fXJ $ f.SXv : F.SXLXH.X z :Xg.> l :X#.# s @ m.DXu & D.SX- - Y.].}.-X  ; jXm.+ _ ' ",
"wX#.& _.cXz.z CXY . pX&.,.lXkXx x.j.cX>.G #.dXPXr.9 L.cX%X%.,X_.4X).D H.cX Xo U  X$Xm N F $XcXB . Y.GX#.A &X7 7 sXS ,.&XL.* ^ *.",
"yXdX-XFX<XcXdXcXc   &XtXxXsXSXiX2X2XzXnXyXlXGXSX#X@XvXdXyXMXSXI x 6XsXvXdXdXM.{.<XFXXXoXXXoXrX$Xz.vXLXdX|. Xo ; =XwXbXS.<Xj.'.>.",
";X:XbX$XF [ 2X'.A + S.yX,.A lXLXzXOX) 7.[.sXC F.%X&XY.%.4.4XP g h P 6X%. .wXcX%X^.F tX9.0.5.[.XXcX X` =.yXJ.* 8 j.J.f.M '.}.XX} ",
"cXXXtXcX9 o 8.XXp . .X9XX . wXJ.2X+X~ O.qX#., u.eX<.kXo.r C.y.k g y.C.w  .KXZ.|.F.o ( +Xq.+.8.oXb.].. o 3.].% % k.<.o * >.b.'.} "
};
