/* XPM */
static char *_7306_6d61c56ccd51c9f815c425efeb0acc511418d65f9f70cc07c00bc129ba640c09[] = {
/* columns rows colors chars-per-pixel */
"64 64 256 2 ",
"   c #2F1318",
".  c #0A0F35",
"X  c #38292C",
"o  c #2B1E31",
"O  c #4C363A",
"+  c #553A3B",
"@  c #462A2F",
"#  c #512A2D",
"$  c #52423B",
"%  c #191942",
"&  c #192242",
"*  c #36395A",
"=  c #282F52",
"-  c #373C65",
";  c #2D3462",
":  c #251F41",
">  c #553B44",
",  c #493743",
"<  c #3C4467",
"1  c #3C4371",
"2  c #39435C",
"3  c #594649",
"4  c #5B4953",
"5  c #564D56",
"6  c #64494B",
"7  c #66534D",
"8  c #644C54",
"9  c #684E57",
"0  c #655354",
"q  c #6B5355",
"w  c #6A555B",
"e  c #6D5B5B",
"r  c #665658",
"t  c #745C5D",
"y  c #75565A",
"u  c #714E4E",
"i  c #76615D",
"p  c #464A69",
"a  c #494C76",
"s  c #495376",
"d  c #545876",
"f  c #534F6A",
"g  c #6C5B63",
"h  c #695764",
"j  c #745D62",
"k  c #795C65",
"l  c #605772",
"z  c #7B6363",
"x  c #7B646B",
"c  c #7D6A6B",
"v  c #756467",
"b  c #7C6975",
"n  c #7D7275",
"m  c #6A6673",
"M  c #50607A",
"N  c #82656A",
"B  c #846C6C",
"V  c #856969",
"C  c #836C73",
"Z  c #886C76",
"A  c #8C7474",
"S  c #8C747A",
"D  c #877678",
"F  c #957879",
"G  c #8C716D",
"H  c #A47C7B",
"J  c #835D61",
"K  c #9A827E",
"L  c #928077",
"P  c #A6837E",
"I  c #585B84",
"U  c #4B5481",
"Y  c #5A6988",
"T  c #67678B",
"R  c #777897",
"E  c #6F7390",
"W  c #767DA5",
"Q  c #897B85",
"!  c #967C83",
"~  c #7D81A6",
"^  c #7F809C",
"/  c #998687",
"(  c #84839A",
")  c #988B95",
"_  c #998F92",
"`  c #AA8483",
"'  c #AC8B8A",
"]  c #A58886",
"[  c #B48C8A",
"{  c #A9928A",
"}  c #B5948D",
"|  c #A58D95",
" . c #A99797",
".. c #B79997",
"X. c #B8A39C",
"o. c #AFA29A",
"O. c #8889A6",
"+. c #8C92A8",
"@. c #9696A8",
"#. c #9798B8",
"$. c #898DAD",
"%. c #A89AA6",
"&. c #B49DA6",
"*. c #AC9FB0",
"=. c #9AA4B8",
"-. c #B8A6A7",
";. c #A8A5BA",
":. c #B9AAB6",
">. c #BAB3BC",
",. c #B1A9A9",
"<. c #C29A9B",
"1. c #C9AA8A",
"2. c #C8A999",
"3. c #D4AC9C",
"4. c #D8AB99",
"5. c #CBB49C",
"6. c #D4B29C",
"7. c #DAB49C",
"8. c #D9B698",
"9. c #D7AF8D",
"0. c #E5AE98",
"q. c #E4B599",
"w. c #E5AF8D",
"e. c #C6AAA7",
"r. c #D5ADA5",
"t. c #CAB5A8",
"y. c #D3B4A3",
"u. c #DBB3A3",
"i. c #D3BBA4",
"p. c #D3BBAB",
"a. c #DBBCAB",
"s. c #D7B7A8",
"d. c #C4ADB5",
"f. c #C9B6B6",
"g. c #D3BBB4",
"h. c #D3BBBB",
"j. c #D8B9B5",
"k. c #D1AEB4",
"l. c #E5B7A6",
"z. c #E7B5AB",
"x. c #DCC3AD",
"c. c #D5C2A9",
"v. c #DBC4B3",
"b. c #DCC3BB",
"n. c #D7C5B8",
"m. c #CEC7B6",
"M. c #E2C4AC",
"N. c #E8C9AB",
"B. c #E3C4B4",
"V. c #E3CBBA",
"C. c #E8C9B8",
"Z. c #ECD3BD",
"A. c #E6D2BA",
"S. c #F5D5BE",
"D. c #F2CABA",
"F. c #DAC49F",
"G. c #9E9BC2",
"H. c #A9A7C5",
"J. c #B9B9C8",
"K. c #B9B8D5",
"L. c #B0ADCD",
"P. c #B8B5E2",
"I. c #C7BBC7",
"U. c #CCBCCD",
"Y. c #D7BECC",
"T. c #BCC4CB",
"R. c #BCC4D4",
"E. c #BCD1D6",
"W. c #BEC5E0",
"Q. c #C4C3CD",
"!. c #C9C5CB",
"~. c #DCC3C3",
"^. c #DDCBC4",
"/. c #D8C8CA",
"(. c #C3C3D3",
"). c #CBC5D3",
"_. c #CBCAD4",
"`. c #CCCBDC",
"'. c #C5C7D9",
"]. c #D6CAD6",
"[. c #DBD4DD",
"{. c #D7D4D8",
"}. c #D4D3CF",
"|. c #E3CCCB",
" X c #E7CAC6",
".X c #F3CEC7",
"XX c #E4D2CC",
"oX c #ECD5CC",
"OX c #E9D5C6",
"+X c #F3DBCC",
"@X c #FBDCCB",
"#X c #F5D7C6",
"$X c #E5CED3",
"%X c #E4D4D3",
"&X c #ECD4D3",
"*X c #ECDBD4",
"=X c #E2D3DC",
"-X c #E4DBDC",
";X c #ECDCDB",
":X c #EBD6D8",
">X c #F3D5D4",
",X c #F3DBD3",
"<X c #F3DCDA",
"1X c #FADDDB",
"2X c #FBDAD5",
"3X c #F1CDD1",
"4X c #FDE3CC",
"5X c #FCE5C9",
"6X c #ECE2DA",
"7X c #FDE3D4",
"8X c #FEEAD4",
"9X c #F4E3DC",
"0X c #FCE3DB",
"qX c #FEEBDD",
"wX c #F4E3D5",
"eX c #FFF2DB",
"rX c #F9F4DB",
"tX c #CACAE5",
"yX c #D2CDE8",
"uX c #CCD1E5",
"iX c #DCD5E2",
"pX c #DADAE7",
"aX c #D6D6F4",
"sX c #E4DCE4",
"dX c #EADCE4",
"fX c #E4DDEC",
"gX c #E8DAE8",
"hX c #F5DEE4",
"jX c #E9DDF6",
"kX c #DDE2EB",
"lX c #DBE2F2",
"zX c #ECE2E4",
"xX c #ECE2EC",
"cX c #E8E7EA",
"vX c #F5E3E3",
"bX c #FCE4E3",
"nX c #FDEBE4",
"mX c #F3E4EC",
"MX c #FDE6EA",
"NX c #F4EAEB",
"BX c #FDECEB",
"VX c #F5E9E5",
"CX c #FFF3ED",
"ZX c #FCF3E6",
"AX c #ECE4F3",
"SX c #EDEBF3",
"DX c #E9E7F9",
"FX c #F4EBF4",
"GX c #FCEDF3",
"HX c #FCEDFB",
"JX c #F5EAF8",
"KX c #FDF3F3",
"LX c #FCF3FC",
"PX c #FEFAFD",
"IX c #F7F5F7",
"UX c #EEF1F8",
/* pixels */
"&.MX3X3Xs.L H } .X.XhX$XS Z k g.7XF.x.F.5.F.7.N.B.x.8X/ k h I.'.d ~ T - - U Y E d pX{ y y -.SXE.E.E.!.T.(.`.R.R.JX| h k ! L.J k ",
"/ :X] P  Xa.N..XF ` f.~.6 Z 9 e.wX8.8.A.8XZ.5XM.i.i.wX/ c 0 >.K.1 1 K.'.P.DXE U f yX .t k &.kX'.T.pXVX6XJXfX(.J.AX*.9 Q Q U.k ! ",
"A hX/ 2.qX@XS.7X XA e.1X3 D 3 -.7Xi.x.8X#XZ.#X8X5.c.8XP 7 r >.`.& ( GX,X:XhXuXM * tX>.3 t ) UXK.).LX X#X~.MX[.J.AX).> Q Z I.x k.",
"Y.&Xh.nXM.3.u.a.7X>X..hXe.O A nXC.x.eXOX5.7.4.S.rXA.A.rXG v UX#.=.PX X3.r.r.6XSXO.R DX%.5 mXlXyXJX>Xr.4.3.B.MXxX(.AXd.> Z I.b %.",
">X` oX2X3.l.3.u.j.0X[ <.*X-.&X>X8.N.8Xi.u.l.u.9.5XA.5.+X;XsXJ.: ;.sXu.q.l.l.e.MX( < $.lXfXAX(.!.NXh.0.l.l.1.6XcXI.).HX>.g I.! C ",
"h.F e.#Xu.u.s.3.C.D.[ F ~.CXMXp.8.N.5X7.l.u.l.7.5XN.c.e.BXLXE f E sXu.w.w.0.a.;XR Y . uXLX].!.!.dXoX4.q.0.4.b.cX_.J.gXhX8 d. .v ",
",Xt.^.wX3.u.6.s.B.CXX.g.*Xn -.nXc.x.eXx.u.2.3.i.5X5X5.rX!._ DX^ #.UXg.8.q.4.p.LXK.& T.`.C GX%X!.KX-Xp.2.u.t.6XIXJ.cXAXx h -.%.e ",
"/ 9Xe.oX7Xr.a.a.qXb.{ 9X .0 0 t.8Xx.A.8Xa.z.6.5X5XF.Z.OXv 3 *.lXE H.mXv.a.a.dX'.E ~ kX/ 0 C MX{./.6X6Xv.m.^.cX_._.SX) j w &.-.h ",
"0 >X..F 1XqX2XBXj.H ] <XA c N V nXi.i.S.8X7X8X7Xu.u.+Xn.3 S r fX~ . =.PXgXjXDX1 U ~ fXg ^ 3 `.sXI.).cXIXSXUX{.T._.SXn c g | d.h ",
"3 >Xk.[ e.k.} k...<...vXA q j i XXv.i.5.Z.c.N.A.a.a.V.|.+ N + iXW 1 s +.m ( $.- U T =Xj r 3 Q.kXI.!.}.uXT._._.!.I.SX| j x | U.h ",
"-.*XvX<X1Xd.! ` 3X;X6XBX~.e.F n.rX6XwX5Xc.5.F.x.>X1XMXMXh./ ~.gXtXR.`.O.p d d tX'.).MXXX_ -.cXcXvXHXpXK.uXT.jXFXmXGX&.t k F Y.k ",
"9XVXL S | VXd.hX/.C n ,.PX<XVX6XrXm.e.e.rXx.m.rXf.e.d.BX&XqX<XnX[.:.f.JX=.2 lX_.:.:.nXoXqX9X{.cX&.| fXDX(.UXiX .&.&.S c N S I.b ",
"^.^.6 j 8 Q JXY.4 v 3 / &Xg.oXg.;X4 3 > -.6XrX-.> 3 q |.b.n.v.1XZ > + ! $XgX/.4 8 X g..Xz.j.vX:.@ y h U.GX[.v 9 9 w v z N c U.Q ",
"CXd.r / C h HX].4 D D v ;X,X' 1X|.x S Q 3 zXKXv z F e g.qXo.V.0X! Z H   Y.HX-.6 S k { nXr.e.VX..k S 4  .PX X6 B D c N B z z d.( ",
"m.6Xe r x HX,._.iXg r / <Xm.qXg.vX| 9 9 =XxX[.SXQ e z <Xm.VX|.,Xj.3 v f.hX&.,Xd.k w Y.oX:XbXV.,Xz z / nXv.,XoXG b Q B z V k >.@.",
"9XKX[.pXJXJ.f f '.UX{.zXCX9X X1XKXdXsXAXhX).Q.pXNX-XdXGXVX/.XXnXbX>X;XMX..` X.*X6X;XbXBX:XI.0XeXwXwXrXOXi.s.+XhXvXFX^.i V 9 I.%.",
"_ SX#.#.$.< f p p +.+.@.6X/ q c [.FX`.iXI.'.!.T._.pX`.GX%.q r -.>X..e.} ' ` P [ e.{  XY.u y A wXA.x.x.c.s.s.s.v.n.^.wXV z e :.;.",
"g pXE ; p yXH.J.yX* < E cXi S 4 I.pX(.).fXcX6XcX_.T.T.SX| x e | >X` ] ..2Xz.#X.XG P g.~.u F 6 oXC.8.5.8X4X#XZXz.c.c.rXB G e %.J.",
"r kX#.= ;.JX:XhXLXJ.- E sXx C 4 I.SXI.).GXoXOX6XZX{.I.LX-.9 x ! hX[ K +XqXD..X7Xa.P e.>X6 Z 7 *XS.8.Z.8XZ..X.X7Xc.c.qX] u C ) >.",
"T.kXI P.JX X4.2.k.jXyXT '.{.3 Q JX_.[.GX.Xy.6.5.*XSX[._.HX! > hX~.} 7X2Xr.u.2.B.7X.X} 1Xj.  -.VX6.5X8XN.3.8.7.S.8Xc.OXwX! > ) I.",
"kX^ < aX=Xr.4.l.y./.DXT s `.}.-XcXT.{.MXe.8.9.a.-.VXkXT.iXhX$X|.[ [ 2XC.u.l.3.3.D.2X[ [ &X^.bX X5.S.S.6.7.7.l.6.5X#X5.+X1X/ S U.",
"=.= d ;.hXr.q.w.3.^.yXa M M UXIX>.(.}.VXs.l.q.8.t.VX!._.(.gXHXd.! [ B..X3.l.z.3.#XC.H ' ..PXbXk.x.N.8X1.7.a.7.4.@XM.s.t.MX/.h U.",
"lX+.o uX9X2.0.0.8.g.LX~ f pX!.^.UXT.{.MXp.4.9.l.t.6XSXJ.sXxX..hXe.K 7X+X2.4.u.u.x.ZX} } nX,./.nX5.C.eXi.8.8.7.7.5X5X2.+X>Xj x I.",
",.cXR ;.zXOX5.7.t.NXyXY R.kX4 q }.kX].mXbXp.u.3.*XNX[._.SX/ + ..0X..t.7X#Xr.u.u.qX X[ >Xn.3 3 XX+XM.5X5Xi.7.8.S.5XC.V.qXG x v J.",
"O =XL.% ^ lXrX6XIX}.< s aX%.N k / cXT._.dXMXbX1XGX/.!.kX}.5 ! + oXg.H <.@XqX2XqXD.H [ >X| N j / qXp.5.@X5X8X5XrXN.6.OX X7 n i ,.",
"4 ).L.* & H.T.~ uX^ 1 & '.-.> Z L UX_.T.`.cX[.-XdXJ.I.}.-X3 B 3 ~.j.F H j.a.<..X<.! F 3Xe.3 B G 6Xc.s.s.5XV.A.Z.t.s.g.oXn c v ,.",
"b jXU.Q =.Y ; U ; E #.@.pX!.b v o.cXkXpXpX'._.T.Q.pXkX[.cX .v F %XXXk.j.o.D ..F e.Y.k.hXY.F e X.nXOX+XOXt.p.c.p.#X7XwXnXv C j  .",
"jXHXjXaXlXDX~ - $.HXjXiXcXCXdXXXZXIXiXAXlXlXT.Q.UXsX}.-XKX9X,X1XBXvX X|.nXd.F e.MXY.|.JXMX>X<XVXZXXXoX|.wXm.t.0X,Xf.XXh.D c g | ",
"n.*Xk.O 5 ;.jX) mX&.4 , d.,Xn.rXf.6XC 4 l jXcXzX=Xr h 9 <Xg.1Xj.|.f.@ 6 ' vX:.BXd.> # ! vXg.0Xe.9XB $ 6 m.9XXX9Xt 6 9 8 c n t ] ",
"c.rXF F ! 4 :.LXt.@ F Z F 0XZ.P ZXn.9 ! N 9 }.NXh C Q J -.BXX.v.KX/ B F 8 | PX/.  ! ! Z ,X,X} 0X*Xv F G X /.PXD y ! Z ! C c Z N ",
"t.wX..  6 y $XsX%XD 3 O D 9Xj.b.n.*XG J S 6 b.6XC j Z 9  X|.p.g.&Xf.  4 > /.}.[.-.@ > 0 ;Xn.C.t.<X/ @ + / MX;X-XZ @ 4 > w N N V ",
"6X9X1X<.<.3X3X! ^.<Xe.&.^.CX>XGX*XVX' y u j.eXOX9XA N q &X,XnX0X9XMXd.:.[.fX5 +.jXI.J./.KXXXZX>XnX=Xd.h.dXsX!.fXdXU.k.U.| N N V ",
"k.hXbX3X2X3X' ' ` u.1X>X<XMX|.! /.XXVX,X7XeXi.c.Z.8X9X<X,X}.,.%.{.GXtXP.yXI T a R tXW._.UX}.` e.dXJXAXSXkXJ.uXJ.pXUXxXHX/.q x C ",
">  .:X/ ` ` 2.' } <.! H f.$XO x ,  .CX^.n.x.c.5.x.c.V.oX9X7 g 0 n iXf I a $.T T O.< 1 Y aXn y + -.SXQ.J._.[.R.pX_.Q.I.gX%X0 D x ",
"k ..&X{ H r.qXA.wXqXP ` k.$Xe S z  .<Xp.i.eX8X8XZXx.i.c.9XB B B n iXR a T JXgX$XLX( < I lXL v x %.cX_.!.NXPXvXHXcX!.I.=X{.4 D c ",
"3 e.>X] 2.2X#X.XV.#X.X} ..bXk c t K CXt.5X5Xx.b.V.eXx.x.nXF t x D UXR T (.MXC.j. XmX+.a kX;.6 e ,.FXI.{.nXt. Xp.nX;X!.`.FX/ r Z ",
"! nXs.} qX@X3.4.3.z.0X#XH 3X1Xy t ,XA.8X5X6.s.r.r..XrXx.OX7XB 3 pXE.< aXCXi.1.8.0.3XHX$.R UX,.b UX{.dXCXx.u.7.4.u.VXSXJ.pXFX! q ",
";Xh.` <.@Xa.4.z.z.0.C.2XP '  X$X|.wX5.#X@X3.y.u.l.3.4XV.6.wXXX{.{.p 1 J.OX1.l.q.z.r.jXQ < ^ pXIXpXQ.!.nXu.8.q.l.6.^.DX'.'.iXvX] ",
"CX_ } H oXZ.0.0.z.0..Xn.] ] ,.CXNXoX5.A.4X3.l.s.3.l.7Xu.c.x.nXFXJ.2 I #.rX1.l.l.u.j.dXE T ; cXLXiXT.!.nXv.8.q.0.6. XDXK._._.PX..",
",.BX} } BXj.3.l.0.s.V.eX} ..MX .n 9Xn.5X4X6.u.u.l.3.8X@Xi.eX-.5 DXW.. R.IX5.l.0.z.k.LXW.. aXuXn SXpX).KX X6.u.7.i.^.PXtX'.LXd.6 ",
"3 p.2X} p.qXC.r.u.B.7Xj.' 1Xf.6 i K qXb.5X5X1.x.6.8X5Xc.8Xb.6 x v fXG.T ).xXt.v.t.FXyXR +.DXc r Q SXiX[.VX*Xt.j.v.KXfXR.DX].8 V ",
"B V <X..` 2.0XqX7XqXj.H } 0X! N B i >XOX5.5XeX4X5XeX5.6.>Xt.t A 0 I.tXa * yXKX6XcXfXa 1 J._.w S 3 {.kXT.`.FXMXbXCX-XK.'.lXI.0 V ",
"V z <X} H P  Xr.e..X[ ! ] >X! y F X oXoX5.x.Z.x.+Xc.i.p.*Xh.  A > H.yX% ; T tXE H.H.; % ( gX@ Z O !.cXL.T.[.iX].;X{.J.I.gXI.0 B ",
"y { 1Xh.j.k.` P [ F r. X&.bXh.N v  .&XCX9XqXV.i.y.Z.qX<XBX&X .c ! Y.aXG.L.#.. I < s L.H.J.AX*.J / /.IXkXkXuX(.(.J./.AXfXGXhX9 A ",
"%XVXCX*X&XbX<X' ` h.MXXX*XNXKX<X&XnXvX&.-.-.bXC.B.nXe.&. .9XCX*X3XMXmXsXiXjXU.a d pXcX}.{.nXCXoX,XBXmX{.uXUXpXI./.GXgX!.=Xh.t N ",
"9Xt.BXK 0 q |.1Xe.BX/ q 3 ^./.^.9Xm.1X9 9 8 { 2X0X..> k > ,Xn.OXOXg.vX4 e n jXJ.I.mXe r i 9Xi.+XB.oX|.X r n AXAXmX!.4 g q y Z B ",
"-.0X|.7 A z y !.KX| q B z K CXb.X.7XY.k Q S @ h.>XX Q Z C  .qXi.2.qX-.y V c r JXLXh x A i ..ZXe.a.nX..N L v v LXmX3 C C F G V N ",
"j.b.>XA N A 3 ,.UXn z Z k X.&Xp.p..X$X9 h 3 _ zXFXI.4 h , e.+Xi.i.OX|.8 7 $  .cXgXf.4 8 @ y.,Xj.j.oXB.+ 7 + -.nXVX-.3 q 6 6 N V ",
"ZX XnX| > > %.AXK.lX( 6   h.9XoXCXXXMX,.| _ NXsXQ.IX!.) _ &X*X*XnX^.BXe. .o.CXd.| MXh... .;X;XVXMX*XbXX. .X.ZX^.c.rXg. .-.o.D c ",
"X.*XvXvX=XgXJX#.& H.DX[.:X:X9XXX&.-XFXNX6XIXsXQ.`.`.AXJXAXKXNX/.,.hXbX<X9X*Xn.] ..' <XhX&XBXvXf.&.%XMXvXwXeXA.c.c.c.8XqX*XKXo.7 ",
"h g %.fXG.H.#.* 1 ; G.L.;.SX_ r g w =XzX_.`._.R.J.R.uX_.I.cXI.> t 8 ;Xd.' <.H [ H [ [ [ !  Xb.O i i <X Xi.c.i.a.F.c.8.a.i.wXt.r ",
"E g ) iX; . L.jXL.DXH.. & aX%.h D 4 {.pXJ.T.DXUXAXHXfX).I.xX!.0 S u &Xs.! H #X0Xz.bXj.H `  Xh.8 G y XXb.a.u.5X8X@X8X@X5.9.#Xv.7 ",
"Z C ! fXp I gX,X2X+XJXQ & aX@.0 F 3 }.SXT.}.NXXX*X%XNX/.I.sXsX> S 6 ^.~.H } qXOX2X.XqX<.! z.3X+ A 3 *X*X5.B.7XZ.@XC.7XC.5.5XoX3 ",
"b > ].iX@.AX7X4.9.1.|.HXL.P.fXv 3 ] LX(.{.PXXXt.6.X.>XBXzX!.FXd.# | BX..j.nX2X2.u.2..XnXj.} hXj.@ { BXv.OX8X4X2.2.7.Z.nX#Xi.9Xt.",
"b I.jXf H.HXk.q.w.q.r.dXaX. tX{.! FXcXQ.kXzXt.7.q.N.2.oXGX!.).LXk.1XY.F j.7X3.u.u.z.3..X2X` ..1Xt.nX|.e.Z.8X2.q.q.w.1.D.8Xi.n.eX",
"I.JXQ a m fXa.4.w.M.e.MX#.s = fXLXmXJ._._.NXl.q.w.q.4.0X=X(.`.).LX3XG <.` 0Xz.r.0.l.4.@Xj.` ' ..PX7Xt.B.i.8XN.4.9.q.q.#XOXi.6.c.",
"A f.gXf +.IX2.q.q.8.t.$XaXo =.cX .AXfX).{.GX5.7.q.q.3.|.FX'.U.UX].&Xj.H e.qX3.s.l.z.3.j.0X' ' ,X^.OX,Xy.V.8Xu.9.F.q.9.l.eXt.c.5X",
"i q [.`.+.UXwX6.5.1.v.HXtXO.JX) O ) DX`.pXNX7X6.9.4.g.bXFX'.DXpX3 ! vXg.<.7X2Xu.u.4.z.0X0X[ b.9X7 A ,XXXi.eX4XM.1.9.M.8X8Xv.OX5X",
"C N g DXR Y gX%XA.^.GXK.= P.].> D 7 ;.IXJ._.VXOX#Xb.bXzXI._.SXQ x 6 o.9X{ P OXwXC. X#X@XP ] 1X{ i e _ ZXc.t.+XwXZ.S.#XwXx.p.qXo.",
"Z S x pXW . ( LXXX6XDXp . G.].t D v  .SX_.Q.{.IXNXvXGX_._._.cX_ Z z _ 9X{ { ..eX0X#XCX<.] } <X .i n L 6Xc.x.v.eX5X5XrXZ.i.i.9X-.",
"k e O pX#.$.O.R f T ^ $.R J.].  k 3 Q JXJ.T.'.`.I.`.uXI.Q.Q.FXQ 3 q v ;X` [ F ..<.H <.! ` G %X-.X J $ wXA.1.5.i.v.i.b.i.6.6.wXf.",
"/  .^.zXDXpXDXK.< - R.JXiXAX%X].&. .-XGXLXDXJX`.tX`.'.DXSXNXPX<X-._ *XMX2X2X>Xr.! <.H  XbX&XVX6Xt.H &XeX8X8XeXwX5.x.i..XqX7XZXXX",
"9XCX9X*XA F / cX;.J.AX! S z 9XVX,XnX0XvXd.f.J.JX).).JXiX,.>.*X9X0XZXoXBXp.d.j.bXr.F oXvXe.-.*XnXhXMX1XnXm.-.o.wX+X5.2XqXX.e.e./ ",
"XXg.^.<X+ J u D SXDXS u N 6 ^.}.m.XXg.wX7 r 3 >.HXsXfXh r X f.*Xf.XXg.bXc 3 3 ..hX XMXz 7 O  .bXd.&Xk.MX/ $ 7 L 5X#XnX/ 3 e 7 i "
};
