/* XPM */
static char *_988094837454cbdcc4b44548c186381[] = {
/* columns rows colors chars-per-pixel */
"50 64 256 2 ",
"   c #0A090C",
".  c #322813",
"X  c #3B362A",
"o  c #383938",
"O  c #2C2F34",
"+  c #151E2A",
"@  c #4B3A27",
"#  c #4B3C30",
"$  c #6B3C17",
"%  c #3C4332",
"&  c #56482A",
"*  c #49453A",
"=  c #574739",
"-  c #524F30",
";  c #644B38",
":  c #69553B",
">  c #775839",
",  c #74552B",
"<  c #7B6233",
"1  c #61531F",
"2  c #323946",
"3  c #1C394C",
"4  c #433A42",
"5  c #3C4B52",
"6  c #384E6C",
"7  c #4C4B4C",
"8  c #474746",
"9  c #554D47",
"0  c #575448",
"q  c #494C56",
"w  c #544D54",
"e  c #495558",
"r  c #535354",
"t  c #585758",
"y  c #4B534C",
"u  c #68594B",
"i  c #775B48",
"p  c #665A56",
"a  c #775B58",
"s  c #654C46",
"d  c #5B645E",
"f  c #696349",
"g  c #696459",
"h  c #766858",
"j  c #7A7358",
"k  c #78684D",
"l  c #4C5669",
"z  c #565C65",
"x  c #485874",
"c  c #675D64",
"v  c #605F71",
"b  c #596468",
"n  c #546A75",
"m  c #676868",
"M  c #766A66",
"N  c #6C736B",
"B  c #7A7469",
"V  c #666B77",
"C  c #6B7677",
"Z  c #797977",
"A  c #786B76",
"S  c #8D6C38",
"D  c #A77631",
"F  c #9F5A23",
"G  c #C74B1B",
"H  c #D0542D",
"J  c #D96836",
"K  c #D57233",
"L  c #E4753B",
"P  c #E26639",
"I  c #865C47",
"U  c #896648",
"Y  c #8B754A",
"T  c #947647",
"R  c #866957",
"E  c #89765A",
"W  c #977859",
"Q  c #946C4F",
"!  c #A6774A",
"~  c #AD7451",
"^  c #887868",
"/  c #957A68",
"(  c #887A75",
")  c #937877",
"_  c #876969",
"`  c #AA7B64",
"'  c #DB7448",
"]  c #E77845",
"[  c #F97959",
"{  c #EC714A",
"}  c #F67666",
"|  c #7A827A",
" . c #A48834",
".. c #DA8833",
"X. c #EB8C3D",
"o. c #9A8459",
"O. c #99894C",
"+. c #A88959",
"@. c #B5865A",
"#. c #A89656",
"$. c #B79759",
"%. c #B18C47",
"&. c #BBA45A",
"*. c #988569",
"=. c #888679",
"-. c #988777",
";. c #9C9379",
":. c #8A8A6E",
">. c #A68A69",
",. c #B78867",
"<. c #B99868",
"1. c #A58877",
"2. c #A89779",
"3. c #B89777",
"4. c #A79767",
"5. c #BBA566",
"6. c #B8A577",
"7. c #B1AA77",
"8. c #9DA157",
"9. c #CB965B",
"0. c #D49858",
"q. c #CC904D",
"w. c #F88956",
"e. c #F7975A",
"r. c #E98E4D",
"t. c #DAAA59",
"y. c #CEAD54",
"u. c #E7A85A",
"i. c #EEB059",
"p. c #C68C66",
"a. c #C79869",
"s. c #C49B79",
"d. c #D6986F",
"f. c #C6A669",
"g. c #D8A76A",
"h. c #CDB667",
"j. c #DAB868",
"k. c #C7A77A",
"l. c #D7AA77",
"z. c #D9B775",
"x. c #C9B67A",
"c. c #E3AD65",
"v. c #E8B869",
"b. c #FBB768",
"n. c #E6BA76",
"m. c #F9BA75",
"M. c #F0AC6E",
"N. c #F69A6B",
"B. c #DEC35A",
"V. c #D9C866",
"C. c #D7C978",
"Z. c #E8C469",
"A. c #E7C778",
"S. c #F8C678",
"D. c #F8D57A",
"F. c #F2CF6D",
"G. c #F4E57A",
"H. c #55708A",
"J. c #687986",
"K. c #777B86",
"L. c #657A95",
"P. c #6E768F",
"I. c #677AAB",
"U. c #4F5680",
"Y. c #3A4D8F",
"T. c #8B7C85",
"R. c #79848A",
"E. c #6B879A",
"W. c #778698",
"Q. c #728C94",
"!. c #7B99A9",
"~. c #7491B0",
"^. c #78A4AF",
"/. c #598194",
"(. c #888988",
"). c #958B86",
"_. c #999688",
"`. c #888B94",
"'. c #8A9597",
"]. c #969896",
"[. c #919090",
"{. c #A88B83",
"}. c #A79787",
"|. c #B59986",
" X c #A79995",
".X c #B79995",
"XX c #AD8D90",
"oX c #9AA297",
"OX c #94A38A",
"+X c #A9A687",
"@X c #B9A687",
"#X c #A8A599",
"$X c #B7A996",
"%X c #BAB491",
"&X c #8897A8",
"*X c #889BB6",
"=X c #9297AA",
"-X c #AB9CA2",
";X c #96A5AA",
":X c #89A5B6",
">X c #97A7B7",
",X c #98B4BB",
"<X c #8AAEB7",
"1X c #A4A5A6",
"2X c #B5A8A6",
"3X c #B9B3A8",
"4X c #B1B3B5",
"5X c #C69A8B",
"6X c #C9A886",
"7X c #D7A985",
"8X c #CCB786",
"9X c #D8B987",
"0X c #C8AA97",
"qX c #C5B89B",
"wX c #D8B295",
"eX c #E7B984",
"rX c #F1BC8E",
"tX c #C6B9A7",
"yX c #CAB9AE",
"uX c #BDC1B1",
"iX c #BCC386",
"pX c #D9C687",
"aX c #D5CC94",
"sX c #E6C588",
"dX c #F6CB85",
"fX c #F8D887",
"gX c #E8C896",
"hX c #F0D58F",
"jX c #FAE694",
"kX c #D6C6A8",
"lX c #C8C4B8",
"zX c #D6C7B7",
"xX c #D2D1B2",
"cX c #E9D4B9",
"vX c #ECCCAF",
"bX c #F7E4A2",
"nX c #8A98C5",
"mX c #97B7C9",
"MX c #94AFCD",
"NX c #A5B7C7",
"BX c #A9B4D0",
"VX c #ACBBF2",
"CX c #99C2D1",
"ZX c #AFC6D2",
"AX c #B4CEE9",
"SX c #C7C9C7",
"DX c #D6CEC3",
"FX c #D7D4C8",
"GX c #C8CDD4",
"HX c #D5D7D7",
"JX c #CAD5D5",
"KX c #E8D7C6",
"LX c #CBD6E4",
"PX c #F6F8F5",
"IX c #E3E4DF",
"UX c #C2BCCA",
/* pixels */
"} } { } { P P P P G G G H } } } [ [ [ [ P G G { J P J J J K J K J L w.w.P G J J J ' H J J J J F ' vX",
"' { J J L L w.{ L L { J H G H H P H H G H { w.[ { L L X.r.] ] ] w.J G L J G L w.e.L w.r.r.e.e.N.5XvX",
"X.X.K ..X.K P P P { [ w.w.{ P P G G ' ' } } { H P L L L ] ' ' { L ' L r.r.e.i.i.e.b.i.u.9.~ D ! ` vX",
"......K r.w.r.w.{ L K K ' r.{ } ] { { ' P H ' r.r.X.r.r.] r.r.r.r.q.u.M.S.b.S.S.S.dX! S ,.Q ~ E ) KX",
"..r.' K u.m.M.b.r.r.r.L L H G K } ' ' K ....X.r.b.m.m.b.b.b.b.F.b.m.S.m.m.z.,.Y W ^ ^ B ( =.C R. XHX",
"Q ! ~ ' p.d.l.bXdXm.b.e.r.X.L ..' ' ' ..r.b.F.S.m.m.eXeXeXn.n.Z.z.sXl.U < W E g p Z =XW.x n J.5 K.GX",
"A A K.B s ; I ' 0.0.m.m.S.S.b.r.[ N.N.i.F.b.t.z.U U R M _ h h h R R R a s p p K.R.W.x H.L.~.VXnXJ.GX",
"w A K.7 # p > , $ Q a.7Xg.d.l.0.d.d.0.g.c.%., < k h B A A M M M c m c 7 7 w 8 e C n H.nXAXMX~.MXBXLX",
"Q I I I I a ( ( _ A a a a a a a h _ a a a a R *.3.aX9X8X3.6X3./ {._.+X=.=.OX(.| b 5 Q.mX~.nXnX~.~.LX",
"0.0.p.d.p.s..X).) ).) ) ) ) _ ) R ^ ( ( _ ) 1.6XbXpXsXx.rXwX5X0XtXxXuXxXDXuXFX'.N R.=XR.&XNXBX*X*XLX",
"q.i.v.n.l.l.n.d.l.d.l.f.l.S.l.n.A.n.eX9X7X7X9X9Xz.x.sXhXkX{.XXT._.#X].oX=.(.[.[.(.`.1X'.'.| =.;X4XLX",
"S.m.j.v.n.m.v.0.q.q.u.q.y.B.i.S.Z.t.c.c.n.n.sXn.f.x.3.3.2.M T.A m 1XuX].V 4X(.`.].[.].#X_.#XoX(.1XLX",
"a.,.~ %.%.%.<.f.&.A.jXy.F F  .t.D D D D D D %.@.p.6X>./ }.[.7 e z 5 l t N Z d % 8 % y '.`.`.T.P.`.GX",
"l.eXeXgXsXz.C.hXC.j.h.9.i.D.Z.Z.dXsXn.S.i.v.v.n.9.>.) yX4X].C e q l V z   `.C 7 y d e O O 3 x v R.GX",
"D.D.Z.fXbXhXz.5.h.z.z.h.n.A.F.D.A.F.F.F.G.D.v.n.pX3.^ $XR.C ZXmXR.5 P.l R.;XK.5 e l V `.=XV J.R.K.SX",
"q.Z.S.S.A.n.pXsXgXpXx.pXpXV.j.t.V.V.V.B.F.Z.Z.fXeXsX6.:.:.y d oXm V q K.NXP.5 l 5 J.;XZXR.R.Q.y '.GX",
"&.&.M.m.hXA.fXC.C.pXaXxXaXaXC.V.G.G.F.B.B.D.F.F.c.0.l.9X6X6.^ }.a w V n `.H.l q t OX,X| n l 5 | ;XZX",
"2.;.>.a.l.M.fXA.fXhXaXaXaXhXfXF.V.V.G.fXF.t.t.q.%.f.7X6X>.>.6X0X$Xh z v x >X`.8 r g | /.5 l Q.&X>XLX",
"BXnX'.).d.d.r.i.0.c.v.B.F.G.fXdXhXl.eXn.$.+.#.4.2.;._.}.2X.XT.XXtX#XK.l *X>X8 t r z e 5 Q.;XZXBX;XAX",
"*XBXNX`.) ` d.p.l.n.S.S.G.hXaX0X<.3.5X3.W >.tXxXDXxXlXHX2X) yXyXlX3Xz K.NX=XO 7 8 (.l | AXZXNX=X1XIX",
"5X_ ).SXNX:X>X`.-X X|.2.2._.'.R.OXOX}..X3XqX}./ 1.1.{./ }.0X$X%XoXd O ZX>X2 e t g O R.^.CXnXx ,XK.GX",
"` 7XXX).&XmXCXnX=X=X-X X-X;X;X<X3XuXlXvXtX X1..X.X.X.X0X;.:.OXj 5 e <XJX'.O w w 8 R.E.H.U.6 mX`.g ZX",
"@ *.$.<.3.).`.>X4XyX4X3X4X3X3X3X1.1.T.T.XXXX.X2X( c m e 5 l 6 n <XCXCX| + =XK.8 t K.H.L.E.x &XK.r SX",
"OXf & o./ 1. X]. X[.).).).)._._.0XXX5XXXXX-X=Xv n l R.J.n :XmXmX<X/.3 n =XNXZ 7 q 6 n H.~.>X=XV t SX",
"#X;XQ.>XE.V '.| N =.=.| :.| (.(.( w l z l 3 6 | ^.<X,X,XNX>X&X*Xn n nXCXBXW.v q e l J.mXmX&XJ.o m DX",
"^ oXmX^.nXZXW.R.e | (.g y O     + O 3 6 /.Q.<XCX| ^.;.OXoXN t =XNXMXMXMXnX6 2 l q V ZXW.!.+ b Z N SX",
"l./ '.*XL.W.&XJ.>XP.>XBX*X^.!.!.~.^.~.^.<XZX!.d f 7.7.8.5.8.7.%XK.=XQ.x + I.=Xv 8 r N b 5 n Z =.( SX",
"S l.) 2X=X5 &X:XP.BXI.nXVXMXmXmXCXCXCXCX^.N % & 8XpXC.G.h.h.hX7.0 O b &XnXnXBXT.* 0 y t t ].)._.).SX",
", S 7X`  XNXL.:X*XP.^.~.H.nXI.I./.J.J.H.b y j wXeXg.i.D.F.j.hX9Xk.:.g /.MXnXE.y 9 * . X $X#Xm =.).uX",
": > ! ,.*.(.,XE.,X!.^.^.I.6 6 U.l l K.K.].B 2.x.0.m.i.i.M.v.A.z.l.x.0 Q.~.BXn 5 * ^ -.;.uX+XB ).(.lX",
"h R @ W 6X>._.R.H.MX^.^.MXmX&X'.W.&X=X`.(.f 6XgXy.i.u...i.Z.V.A.j.f.f | ^.!.n % h 2.cXqX2.j =.M m GX",
"_ 2XE & W <.U ].E.E.~.Y.H.^.;XR.K.K.A V g = 6.f.S.Z.i.t.y.F.sXV.Z.z.1 f ZXE.5 Z 7.aXaX%X-.h / ^ 9 SX",
"v Z :.E $ p.3.).mXL.6 !.CXH.n V J.J.`.).;.Y f.j.q.D.Z.A.C.&.C.C.A.f.D 4.OXC o {.sXhX%X:.g :.wXI 9 GX",
"K.V h 5XS U 5X1.`.mXE./.ZXZXE.*XW.*X'.m 2.#.$.A.y.j.A.hXh.V.h.A.n.$.&.<.% 5 _ 0XhXh.+X=.=.;.5XF s GX",
"g tX_ T.) & Y 6.*.$X<XH.J.BXAXZXZXZXe X |.3.a.A.Z.V.fXV.B.V.t.i.D.%.D 7.* g 8XbXn.k._.V 0 +Xn.S u ZX",
"u ) 2X).B h : Y 5.o.'.NXW.x L.H.L.L.R.=.i S f.z.j.j.G.y.B.Z.F.t.t.%.#.@X@ 7.bXV.k.W ( `.B 7.p.@.h SX",
"c h ) 5X{.^ B & o.<.+.).,XE.H.L.I.I.~.| | &.&.hXpX&.%.y. .i.v.g.v.n.5.#.4.bXV.y.3.s ) tXxX7.a.d.^ SX",
"c XXi W @X^ =.E = E a.>.'.,XK.P.Y.I.*X| 8.iX8.8.C.C.V.&.j.D.c.v.n.dXvXS 5.A.V.h.U a .X$XxXxXeXp.-.yX",
"a g *.Y W 5X/ ) ) # / |.>.+X4XAXnXnXnX&X| | iX8.5.pX8.S $.a.A.C.%.A.>.. &.fXy.O.S ) XX2.pXaX7X` -.tX",
": @ h *.I 3.5X/ ) A 9 E k.o.h ].BXLXMX~.| | | iX8.#.O.pX4.+.bXO.y.$.> Y pXZ.$.9.wXtX}.- 8.C.wX` -.tX",
"S j O M _ Q s.s./ / ^ = / 1.%Xj k _.4XLXnX=Xy +X%XO.<.<.<.5.C.&.h.S W 3.9Xf.j.hXvXwX).M >.k.6X>.*.wX",
"S 2.) O _ |.U 7X5XQ ^ ^ i # o.3.7.W -.(.UXUX)._.@X>.4.O.#.5.#.5.$.< 6XkX>.<.fXn.9.~ M ) 3.7X6X*.*.yX",
"* a 3.R g m R Q a.a.,.>.) p : : *.>.6.T 1.2._ a 0X1.x.O.%.A.h.$.W E k.9XQ s.dXy.p.Q T.XX6Xl.k.*.*.yX",
"w # Q wXh X -.R Q l.l.s./ / R i > i T <.$.>.I R .XW pXC.V.C.&.#.^ -.k.f.; 6Xc.0.` _ T.-Xk.l.6.;.*.kX",
"w p s >.3.U u =.E , ! l.W *..XT.s i ; < S $.<.$.9XS o.8XC.#., x./ g 6.f.  k.m.0.> _ .X6Xz.sX3._./ zX",
"# m * i p.d.R u -.i i >.W >.>.; ) ) u R & > S x.x.< S O.O. ., 7.@Xu +X7.  7XrXp.> >.8Xl.A.hX|.).=.yX",
"7 t 9 : I ` k.U s M p 9 k ,.k.k.>. X#XN 5 =.f @Xx.S f.9Xk.8X| 7.aX| ;.$X~ 7X7Xa.T T <.g.eXhX@X-.( SX",
"- 0 k # ; I ,.d._ ).(.C p > $.sX@X;.lX8 t R.N %XaX$ O.aXaX;.. %Xx., | 2X5X~ ` 6X3.Y 5.sXdXgX3.E ( yX",
"- - :.^ u ; U ` 5XI u -.B u : *.4.qX X. (.Z # 3XqX1 : %XxXk . wXm.D W ^ _.].].1X$X^ *.hXhXz.z.4.h ZX",
"+X- f +X-.= > I >.5XI s ^ M u f j E & u =.u 9 _.$Xg X j j * 0 |.a.@.s./ ( (.].].oX_.*.gXgX0.dXsX^ SX",
"qX6.: u ;.).u # R 6X7XI @ ;.].y f 0 - ^ =.# w # OXf * : * - 0 N Z g ^ <.p.! ! / ].oX[.:.x.g.c.dX;.lX",
">.qX%X-.X M  Xu ; ` ~ 7XW :.3X'.(.= * B ).o y (.N * y N M 0 7 t &Xz . > ` q.! ` ^ | oX-.@Xl.g.z.2.zX",
"FX^ ;.xX2.. B =.h @ > 6.` 1.( (.#X).8 d K.m 5 ].d y * | [.o r 7 V (.d & ; i W 6X@.S U *.2.@XsXf.*.zX",
"3XxXk 1.qX@X& k ^ k = R i *.}.^ g ].y o `.'.A C y 8 r C | 5 w r t `.).8 t p i i @.eXa.U R +.+.3.^ zX",
"( 3XzX^ qX-.*.E E ^ p 9 p 0X|.KXyX).9 2 (.m `.C 8 2 C Z t e 7 r 9 B ].v 7 p f 0 a cXKXeX%.%., 1.( lX",
"$X/ 3XIXyX$X+X*.E ^ =.c # yXcXwXDXg 7 t w v `.m 5 7 N ].* 8 b 7 # p [.[.o (.Z p A T.1.bXg.9.,.i =.SX",
"6X|._.].4XFX3XqX2.*.j ^ M 9 zXcX#Xp 9 9 4 [.A 8 r y | Z 9 7 r w t # Z (.O [.1X-Xr X 0 _.cXeXq.D u DX",
"E qX_.B OX:.lXxXqX;.*.;.^ 9 p yX X# t t 4 [.K.4 8 N [.9 y t w r w # M =.p Z K. X:.9 0 h XXvXrX@.>.DX",
" Xh }.@Xj }.:.=.lXuX^ : ) -.= 9 p 9 8 9 A K.c 7 8 M ).8 7 0 9 w v 5 0 {.  #XSXT. X( # ; ; 3.wX~ wXKX",
"(._.:.*.4.> :._.oXuX3X0 = _ ).9 = M # p ).c 7 w t B A 0 t 9 r w 5 q p @ R qXPXKXB  X}.k & R s / |.vX",
"V 1X%Xo.3.k.^ B (.C HXDXg 0 ( -.h 9 p ).z w w 7 m ].7 * t r 7 w t b q 8 / >.6XvXzX( A 2Xj @ h s _ zX",
"e =.%X@XS 6X0XE _.| b NX4XB = :.=.X Z ].o w 7 w Z (.o 7 9 8 7 r 8 8 q t u U ,.s.zXDXFX].(.( p 0 g DX",
"k g ;.#XkXtXkX/ ^ 3XN SXPX4Xg g =.r ( T.7 m r m [.m 8 N r r p b m 8 B _.^ h E E |.kXtX2X3X].N 2 (.GX",
"xXxXxXFXFXKXkXcXcXxXHXJXIXHXJXDXDXDXJXGXHXGXGXGXJXSXHXSXSXHXGXGXSXDXcXxXKXKXDXzXcXcXcXDXHXIXHXLXGXPX"
};
