/* XPM */
static char *_622584c2ef24835dc735918c8d5b60f[] = {
/* columns rows colors chars-per-pixel */
"64 64 256 2 ",
"   c #030303",
".  c #0B0202",
"X  c #0B0A04",
"o  c #090609",
"O  c #0C0C0C",
"+  c #050A08",
"@  c #120201",
"#  c #1A0202",
"$  c #120D0D",
"%  c #1B0D0C",
"&  c #170808",
"*  c #071306",
"=  c #13130D",
"-  c #1A120D",
";  c #0E0C11",
":  c #0C0112",
">  c #120D12",
",  c #1A0A16",
"<  c #0D1411",
"1  c #121212",
"2  c #1B1312",
"3  c #15141A",
"4  c #1B1A1C",
"5  c #191719",
"6  c #260607",
"7  c #360506",
"8  c #2A1308",
"9  c #260A15",
"0  c #271716",
"q  c #361C13",
"w  c #36100E",
"e  c #3B271A",
"r  c #312911",
"t  c #1B1B21",
"y  c #1A0B24",
"u  c #231B24",
"i  c #321B21",
"p  c #232324",
"a  c #2B2B2C",
"s  c #292629",
"d  c #352A28",
"f  c #2C2B33",
"g  c #342D35",
"h  c #39363A",
"j  c #35342C",
"k  c #1E252B",
"l  c #460405",
"z  c #550602",
"x  c #47170A",
"c  c #470914",
"v  c #4B1A15",
"b  c #571717",
"n  c #570D11",
"m  c #660718",
"M  c #770917",
"N  c #720E0C",
"B  c #56261B",
"V  c #4A2E15",
"C  c #6C2C14",
"Z  c #571825",
"A  c #51152D",
"S  c #680A24",
"D  c #770A28",
"F  c #6A1527",
"G  c #771527",
"H  c #6B1434",
"J  c #442927",
"K  c #5B2924",
"L  c #4A362D",
"P  c #563529",
"I  c #463A35",
"U  c #563136",
"Y  c #673629",
"T  c #772537",
"R  c #683C34",
"E  c #6F2C2F",
"W  c #48433B",
"Q  c #594539",
"!  c #564F2C",
"~  c #68453A",
"^  c #774638",
"/  c #6F572E",
"(  c #6E6732",
")  c #664910",
"_  c #3C3A43",
"`  c #2E3252",
"'  c #282A55",
"]  c #423C44",
"[  c #4D2E4C",
"{  c #6F2F48",
"}  c #503069",
"|  c #703B6A",
" . c #3B4F6B",
".. c #4A454B",
"X. c #584947",
"o. c #4E4952",
"O. c #544956",
"+. c #5A5659",
"@. c #4F554E",
"#. c #694B43",
"$. c #774B45",
"%. c #675348",
"&. c #75554B",
"*. c #665858",
"=. c #7B5C55",
"-. c #734856",
";. c #68665D",
":. c #756952",
">. c #504F6F",
",. c #645963",
"<. c #6E5673",
"1. c #696668",
"2. c #776968",
"3. c #7C7A7A",
"4. c #716D72",
"5. c #566971",
"6. c #860D13",
"7. c #8A2815",
"8. c #870B24",
"9. c #871728",
"0. c #93122C",
"q. c #A81328",
"w. c #8F2D2D",
"e. c #A92D2F",
"r. c #895438",
"t. c #8B6B31",
"y. c #A16224",
"u. c #8A3546",
"i. c #893B65",
"p. c #89574A",
"a. c #845B54",
"s. c #91594D",
"d. c #896658",
"f. c #986759",
"g. c #90704D",
"h. c #A4715A",
"j. c #8D466D",
"k. c #9B6B64",
"l. c #8D7268",
"z. c #987468",
"x. c #887A78",
"c. c #987C76",
"v. c #876663",
"b. c #A57668",
"n. c #AA7D77",
"m. c #AD7078",
"M. c #AD4568",
"N. c #7B827A",
"B. c #B58C2D",
"V. c #B88E1B",
"C. c #C1973B",
"Z. c #D0AA2F",
"A. c #C89D1D",
"S. c #8F8959",
"D. c #B99A56",
"F. c #B08A52",
"G. c #BEAB57",
"H. c #978973",
"J. c #AA8F72",
"K. c #ADA479",
"L. c #D0AA53",
"P. c #C79471",
"I. c #D2B570",
"U. c #EBBC5A",
"Y. c #EDCE73",
"T. c #DCC65D",
"R. c #3B4A83",
"E. c #545787",
"W. c #665894",
"Q. c #736F93",
"!. c #586B95",
"~. c #B57887",
"^. c #9D6894",
"/. c #C57E84",
"(. c #7C8BB1",
"). c #878687",
"_. c #978988",
"`. c #999799",
"'. c #948E8E",
"]. c #A79589",
"[. c #AC9994",
"{. c #AD8F88",
"}. c #B8A59A",
"|. c #B3A88F",
" X c #A998AA",
".X c #A8A6A7",
"XX c #AAA9B1",
"oX c #B5B5B7",
"OX c #B6ABB0",
"+X c #918EB0",
"@X c #CA918E",
"#X c #CFB091",
"$X c #C4B8B8",
"%X c #D5BBB5",
"&X c #CEADAA",
"*X c #EAB7AD",
"=X c #DEAA9E",
"-X c #EFD08B",
";X c #F4E590",
":X c #D6C5BB",
">X c #CEC5B4",
",X c #F3D0B8",
"<X c #ECE3AA",
"1X c #D8D596",
"2X c #BEBAC9",
"3X c #A092C6",
"4X c #CBBBC0",
"5X c #F7BAC1",
"6X c #BFC8ED",
"7X c #CDCDCD",
"8X c #C7C4C3",
"9X c #D7CBC7",
"0X c #D9D3CB",
"qX c #D6CED4",
"wX c #D4D4D4",
"eX c #DADAD6",
"rX c #D5D5D9",
"tX c #D5DADB",
"yX c #DBDBDB",
"uX c #D8D7D7",
"iX c #CACCD6",
"pX c #E3CBC5",
"aX c #F9C7CA",
"sX c #E9D5CA",
"dX c #E6D9D7",
"fX c #F7D3CF",
"gX c #D9E4D4",
"hX c #E3E2DE",
"jX c #EBE4D9",
"kX c #FBE3D9",
"lX c #F8EDD1",
"zX c #DDDEE4",
"xX c #C6D3ED",
"cX c #E6DEE4",
"vX c #FFDFE2",
"bX c #DDE4E4",
"nX c #D7EBF2",
"mX c #E4E4E4",
"MX c #E6EBEB",
"NX c #ECECEC",
"BX c #E9E7E6",
"VX c #F9E9E9",
"CX c #EEF1EC",
"ZX c #FDF3EC",
"AX c #F6F3EB",
"SX c #EBEDF2",
"DX c #F9ECF2",
"FX c #EDF2F3",
"GX c #E5F1F1",
"HX c #F3F3F3",
"JX c #FDF4F3",
"KX c #FDFBF5",
"LX c #FDF3FA",
"PX c #F5FCFC",
"IX c #FDFDFD",
"UX c #F4F7F8",
/* pixels */
"IXIXIXmXyXwXNXIXIXNX7XrXhXIXUXHXgXwXMXPXGXFXMXrXiXMXIXPXFXnXgXGXIXIXDXDXzXuXFXIXIXSXiXtXhXIXKXKXyXhXyXUXIXIXBXuXwXBXIXIXSXuXdXmX",
"IXIXIXyXwXrXCXIXIXNXwXrXmXIXIXIXCXwXgXCXIXSXtXcXFXNXtXoX.XXXoXtXIXBXLXmXqXzXMXIXIXSXwXuXBXKXKXIXuXyXyXUXIXIXBXuX7XmXIXIXUXyXrXwX",
"IXIXNXmXuXmXNXIXIXNXyXuXBXHXIXIXtX7XwXNXIXHXIXmXXX1.f 1     X @.[.mXIXDXyXiXLXIXPXSXbXyXMXAXIXKXuXyXNXNXPXHXNXcXtXNXUXIXCXBXyXuX",
"BXBXyXHXSXIXNXmXmXBXHXNXHXmXNXNXCXIXFXUXNXCXJX).O 2 0 2 s I I W O.X.'.dXLXLXMXzXmXMXHXNXHXhXCXNXBXNXUXBXBXhXNXHXUXHXmXBXmXFXNXCX",
"wXwXrXIXIXIXBXqXwXmXIXIXUXyXyXuXIXIXFXtX7X0X3.X 0 d 0 @ % J j J X.x.d ,.cXIXrXyXrXmXIXIXIXeXgXeXIXIXIXmXrXwXHXIXIXHXwXuXyXUXIXIX",
"uXrXuXNXIXIXNXyXrXBXIXIXUXhXyXuXPXPXIXbXBX[.& 0 @ . . @ 8 r r L I X.2.X...NXBXzXrXMXIXIXUXhXuXeXIXIXIXBXrXwXFXIXIXCXyXzXBXIXIXIX",
"FXNXNXBXNXBXCXNXCXNXNXNXNXHXNXMXGXMXHXHXeXI . L e L P q q v 8 8 # 0 g 2.*..XSXSXFXFXNXGXNXAXCXBXNXCXNXSXBXNXBXNXBXNXCXNXHXNXNXSX",
"IXIXIXBXbXrXCXIXIXUXwXyXmXIXIXIXtXtXtXIX>X. %.U d.d.f.d.d.g.d.z.[.].2 I *.1.dXLXIXUXwXhXmXIXKXIXuXyXyXKXKXIXmXwXwXBXIXIXHXuXyXhX",
"IXIXIXNXrXuXCXIXIXUXrXwXmXIXIXIXzXiXyXNXX.0 &.d.z.b.b.b.k.f.k.J.%X9XX.. J O dXIXIXFXuX7XmXUXKXIXzXuXyXSXIXIXBXwX7XBXIXIXUXwXyXyX",
"BXNXNXNXNXNXNXNXHXCXNXNXNXNXNXNXFXGXSX0X0 J %.f.b.b.b.J.h.s.f.{.%X%X%.0 ... 7XLXHXNXMXMXMXNXCXNXHXCXNXNXNXNXNXNXNXNXNXNXNXNXHXCX",
"wXrXbXHXIXIXNXrXyXNXIXIXHXbXuXrXUXIXIX9X@ Q &.d.f.z.b.f.f.f.k.J.%XVXx.6 d & $XwXrXMXIXIXCXbXwXeXIXIXUXBXuXyXCXIXIXFXrXuXmXIXIXIX",
"uXuXdXHXIXIXBX7XwXBXIXIXHXmXuXyXUXIXIXeX8 Q $.$.d.h.b.k.h.f.f.c.&XsX].X.*.g >XUXwXBXIXIXCXbXgXeXIXIXUXBXuXyXSXIXIXHXwXuXmXIXIXIX",
"CXNXNXNXCXHXBXmXmXNXCXHXNXNXNXNXPXIXHXdXL q Y B Y Y r.s.^ v v P ~ :XpX=.*.*.wXdXcXNXSXSXNXNXBXCXNXFXNXNXBXmXNXHXCXSXBXHXmXCXBXHX",
"IXIXHXBXyXyXNXIXIXNXcXbXNXHXLXIXmXbXdXVXc.6 P v l B p.f.K v B v z.%XkX[.2.*.9XIXUXBXzXcXMXUXPXPXuXyXmXCXIXIXNXyXuXNXIXIXBXzXuXyX",
"IXIXIXmXwXrXNXIXIXNXuXyXNXUXIXIXrX7XeXUX%XV R Y x Y s.b.K R { R J.&XkX[.2.x.dXIXIXNXrXrXMXPXIXIXuXuXyXHXIXIXNX7XwXNXIXIXHXyXuXuX",
"IXIXPXBXwXrXNXIXIXNXuXuXNXIXIXHXBXdXdXKXpXR p.p.s.C p.=Xf.p.&.k.&X&XkXpX}.}.dXKXIXNXrXyXNXIXPXFXmXyXyXNXIXIXBXqXwXBXIXIXHXyXyXyX",
"yXyXrXCXIXIXNXyXuXNXIXIXNXyXyXmXJXAXKXZX:X~ f.z.f.h.r.*X*Xs.s.s.n.%XkXVX}.].dXsXqXVXIXIXUXrXtXtXIXIXUXNXuXuXNXIXIXNX7XyXmXIXIXIX",
"yXuXuXNXIXIXNXyXuXNXIXIXNXyXuXyXKXKXKXkX%Xd.z.b.b.s.p.*XfXm.h.m.n.,XkXkX|.. >XjXdXDXLXLXFXzXtXrXIXIXIXmX7XwXCXIXIXNXwXwXmXIXIXIX",
"zXyXmXNXIXUXNXmXhXNXUXIXHXmXuXyXKXKXZXkX>Xc.z.b.f.^ r.f.b.s.f.b.*XfXkXlX&X%.gXjXdXVXLXLXDXcXeXgXUXIXHXBXuXuXNXIXIXNXyXrXNXUXIXHX",
"HXNXHXBXNXmXNXNXHXNXMXBXNXNXNXNXjXNXjXZXpX=.d.b.s.Y b 7 z r.s.f.=XfXlX:XK.0XjXjXVXNXcXSXmXUXCXCXmXBXNXNXHXHXNXNXNXNXUXNXHXmXNXmX",
"IXIXIXbXuXrXCXIXIXHXuXrXBXUXIXIX0XhX0XKXkX%.a.p.^ B 7 x v Y p.z.=XlXlXkX}.>XKXKXLXCXwXyXdXIXIXIX7XwXyXHXIXIXNX7XrXNXIXIXHXuXrXwX",
"IXIXLXBXyXuXCXIXIXNXyXyXMXJXIXIXwXjXdXVXZX=.=.~ 6 7 x x x 6 x ^ =X,X,XsX>X>XUXMXIXSXyXeXcXJXIXIXuXrXuXNXIXIXNXrXwXNXIXIXHXuXwXwX",
"NXNXBXFXNXHXNXBXBXNXSXCXNXBXNXNXBXCXBXkXkXl.&.~ w R ^ R Y B B p.@X*XlXlX0XCXBXMXMXNXCXNXNXBXNXSXNXNXNXNXNXBXNXHXNXNXNXNXNXCXNXNX",
"7XrXuXUXIXIXBXqX7XBXIXIXHXhXwXrXIXIXIXjX9XH.~ &.^ ~ ~ Y p.d.R d.@X#XkXsXKXKXFXtXwXBXIXJXJXqXrXiXIXIXIXHXrXwXNXIXIXNX7XuXBXIXIXIX",
"uXuXwXCXIXIXNXrXrXmXIXIXIXyXyXrXKXAXAXhXdX&Xe &.=.~ $.d.a.d.&.^ #X%XpXdXcXSXcXzXgXjXKXKXAXyXzXzXIXIXIXNXyXuXNXIXIXHXuXuXbXIXIXIX",
"NXNXNXNXNXHXNXBXBXMXCXNXUXNXNXBXHXPXNXAXkXjXv.L ^ =.z.&.z.c.d.c.J.&X$XvXcXXXIXLXCXAXjXAXAXhXcXnXHXHXHXNXNXNXNXHXCXHXNXBXmXNXHXUX",
"IXIXIXBXhXuXNXIXIXNXuXmXNXIXIXPXuX7XeXKXVXKXsX# #.#.~ P #.l.{.[._.[.OXLXBXp .X9XjXAX>X>XeXHXIXIXzXzXbXNXLXUXNXzXyXNXIXIXCXuXuXyX",
"IXIXIXuXuX7XHXIXIXHXwXuXmXIXIXIXbXrXyXBXJXsXVX[.q V Q P 8 d.z.l.=._.DXLXqX@ W %.H.<X<X<XjXKXPXGXzXuXhXHXIXIXBXwXuXBXIXIXIXwXrXuX",
"UXNXHXmXBXcXNXHXIXHXdXBXmXUXCXCXFXtXmXNXHXKXZX%Xq ~ # q J 8 %.L _.VXDXLX}.8 H.! ( I.<X<XlXgXGXPXMXBXBXNXHXNXNXBXBXBXUXUXIXyXBXNX",
"uXyXBXHXIXUXNXuXmXNXHXIXFXNXeXtXFXUXIXUX$X0X}.:X{.@ Q q J L # H.LXLXIXuXd U g./ ) D.;X<XlXgXtXtXPXIXSXmXuXyXNXIXIXNXmXbXBXNXIXIX",
"rXuXyXUXIXIXNXrXuXNXIXIXUXcXrXuXPXPXmXMXIX'.& sXsX=.q e # @ [.ZXDXLXKXx.8 :.V C G.T.;X;X<XgXGXnXUXLXUXBXrXrXNXIXIXNXuXyXmXIXIXIX",
"yXyXwXCXIXIXNXyXbXNXIXUXHXuXmXmXPXPXUX>X_.0 . :XZXfXc.&.&.%XZXZXBXLXhX%.l.F.V L.Y.;XY.;XK.N.XXiXcXVXLXVXdXdXNXIXHXNXuXyXBXIXIXUX",
"UXIXIXhXyXyXUXIXIXBXBXwXmXHXIXHX8X.X*.0 a r   0XDXvX&Xk.aXVXvXVXVXVX4XY b.F.B.T.T.T.1XS.5.(.W.W.~.@X5XaXDXDXcXdXrXDXUXHXUXwXtXhX",
"IXNXIXmXwXBXCXmXIXHXwX7XHXIX7X`.p O . +.;.d j jXZX%Xc Z m.aXVXLXVXkXJ./ C B.Z.Z.Z.G.N.N.(.5.W.| S S H ~.&X&X4XcXcXcXHXIXHXuXmXgX",
"IXNXIXHXyXcXNXIXIXzXbXHX8X(.j O j p d 8 0 d W gXdX# A { w -.&XcXDXfX}.) B.A.Z.Z.I.( 5.!.5.>.| { T u.u.H 9 # g 3.2XPXIXUXAXhXgXwX",
"yXHXFXBXUXIXmXuXmXNXtXH.=   5 j 2 . 0 2.;.X 4.eX&X{.u.Z A -.4XpXdXpXd.t.V.A.Z.Y.S.h >.E...[ H S S F S A U J 2 + h ).wXqXmXPXAXPX",
"7XyXuXUXIXIXKXhXrXOX+.+ a a X   . d I L +.  H.0XVXvX&X7 c &XDXdXdX}./ G.V.A.L.B.x.6X(.E.} R 9.8.H n c w 9 i 5 _ 4.o.oXNXyXPXIXKX",
"NXrXyXIXIXUXFXXX+.  * p 5 1 a 5 0 . X.j d   `.AXvXDX~.c { =XvXLXkXg.Y.L.U.U.D.r +X6X3XE.U F N N H 7 6 6 0 , < h 1.] ).zXrXCXIXIX",
"CXUXHXmXNXJX).    p t O p 5   1 % 0 J X.W   $XLXvXvXF E b aXVXkX|.t.Z.V.L.G.! ` E.E.<.{ m M m G c 7 9 # & 3 o a +.1.4.7XKXBXCXPX",
"IXIXFXdXmX`.+ a a < o 1   O O 2 0 @ X.2.0 . $XDXVX[.n $.n ,XZX*X/ t.y.Z.G.L k E.' } { m G M 9.Z 7 6 w , > ; O h +.@.h wXIX7XmX8X",
"IXIXIXyXuX(.  p O O O < > 1 $ 1 0 @ Q ;.@.& :XZXfXc E C E aXaXF.D.B.B.I.:.`.(.R.>.[ m M 8.8.m c 9 6 2 0 * + t _ _ o.,.`.LXzXwXbX",
"NXHXNXBXBX+.X p O < = ; ; = 1 2 0 # d h W d pXVXn.l E l r.*XP.F.U.C.D.( ).6XxXE.` H D 6.6.G v # 0 % - 5 < < < f f o.+.3.cXMXmXNX",
"rXmXuXHXCXp 5 5 O $ ; $ < 1 < > % @ j ;.+.#.aXaXF E C x h.-XY F.U.Y.J.I 5.(.+X>.A H 8.8.D b w @ % - 3 * + < t k k o.,.+.7XUXIXUX",
"uXuXyXIXhX  p = O O < O $ 1 > = - . W 3.I *.aX/.z w.7.l P.I.y.I.U.F.# `  .` [ A D D 8.D F 7 # X - - < + + 3 t t k o.+.O.oXIXIXPX",
"BXmXNXNX8X  t O O $ O < < ; 1 > - * 4 j X =.aXu.N w.N z F.D.G.I.J.7 o.' ` <.{ m 8.D S F c 9 & = - 2 = + + t t 3 s ] O.O.`.HXUXFX",
"UXHXIXNX.X  p O O < O 1 > = 1 = X = * p X.c./.M 6.6.z 7.t.G.T.G.:.OXiXE.` A H S 8.8.F c 9 2 5 3 = = = + < 3 3 < u h [ ,.4.iXbXbX",
"UXIXUXNX'.X 4 X $ O O > = ; < 1 $ = + @._.=.u.m 7.N N 7.D.D.T.( @.nX6X<.A H D H D N x 6 & 3 t 3 < 1 < O + < 3 , u g h ,.+.XXbXtX",
"NXIXHXFX).< 4   O O < O < 1 = 1 2 < + _ X.w C G 7.N 7.y.I.1X( *  .!.<.-.A D 0.0.G z 7 # $ ; ; y > = 1 < + : : 3 u i _ +.o..XGXbX",
"HXyXmXUX3.  p = O O O < $ > O 1 % 0 , . [ ^ R G 7.C y.Y.;XJ.j  .` ` [ { H S D H z 7 6 & 2 , 9 , $ $ 1 O O ; ; ; u a 4 ..O.'.MXIX",
"dXrXmXHX1.  5 + O O $ O O < $ > : u % @ J v.p.z y.w.y.-X#X;. .k O.[ A A S D m S w 8 - - , 9 9 , , O O 1 > O O > 4 s a _ o.4.zXIX",
"hXuXmXmXh + o o < O O < O = < > , o - X H.~.~ C P.y.C.,XK.3.iX+X2.{ H S D H S c 7 6 - 2 3 , , , > > $ O O $ ; ; 3 p f g o.O.qXIX",
"HXNXFX7XO 2 + O O O O O ; O O > ; 0 - . =.H.x Y r.r.-X=X} 4XLX3Xj.u.S S D F m 7 6 , 2 5 < + ; < 1 > O O O O O ; 3 u t s ....oXSX",
"IXIXIX8X  p o < O O O O O < O > t : = * X e ^ r.h.I.>X;.f +X3X^.u.0.D D S S 7 6 # % 5 5 < * * * 1 $ O o X O > 1 3 t t a _ ..).zX",
"IXIXIXXX  a o X O O O O O O O ; , t   * r @ / r.g.I.H.` E.} } i.0.0.8.8.S c 9 6 , > 1 < * * * + < 1 O o o o ; > ; 4 p f f _ ,.zX",
"HXNXNX'.  p +   O + O O O O O ; y o * r . / h.7 g.#X;.f E.} i.M.q.q.0.D m 7 6 2 , > O * * * * * 1 < o o o o $ 1 > > s f f ..o.iX",
"mXuXrX1.  5 +   O O O O O O ; > y + r   ! |.g.t.Y.F.W  .R.} j.0.q.q.0.D c 6 : 5 t 3 o + * * * * 1 = O     o $ 1 t o p p h O._ 2X",
"wXyXeX..  t O   < O < O O O O $ : i = X |.#Xr.g.G.S.@.5.Q.| u.e.q.q.9.z 7 0       s ] d o = * + O X O o O O ; ; 3 3 3 4 f h g ).",
"NXNXtXf X 5 1   < $ ; O O O O ; y , . :.#XS.@XI.D.K.;.+.} -.e.e.q.0.M l # % 1 h < ] 1.. & % &   o o o O o O O O 3 3 3 t f _ g Q.",
"IXPXwX2 4 < = o O O O = O O O > , q . K.J.r b.h.( K.'.+.[ { w.7.w.N l 6 8 - + j N.'.4X&XX.I @ & . O O o O $ O ; > ; > u g h g +.",
"IXIXoX  a O O + O O O O ; O O $ 9 . :.|.r J.#Xp.( H.|...J K w.7.w.7 6 6 0 5   1 oXXX^.dX_.@ 2 $ o o o o O o ; O >   ; p g h f ..",
"CXUX`.  a < o + O O O O $ ; 1 $ e . K.S.H.H.{.&.X.2.].Q P B E E Z 7 9 & % $ % I 3.*.X.x.$X*.  , o X o o o O O ; ;   ; t f h h f ",
"hXBX).  a O   o + o O O O 1 = = . ! 1X/ g.}.d *.I I %.Q V B C E 9 9 0 # @ @ % W X.e I X. X`.  5 o . o o O o ; o : o ; 3 a h _ h ",
"mXzX3.  p   O   o + o O O 1 1 = * S.1X:./ :.x.XX2X`.2.%.V B Z A 9 : 5 , & @ @ e x.Q . . X.  t ; o o X o o o ; o o ; > ; s f _ _ ",
"NXyXN.  p   1   o X X O < = = = * S.K.( r Q ,.x.W.<.%.! B ~ U 9 y : y 9 9 # # d [.x.. s h a   3 o o o o o o o ; + 3 1 : t f ...."
};
