/* XPM */
static char *_8636_16b16fa4c46d39b312f3775f83a2b049901ab09b3372f01d0f298c40cda0d6fe[] = {
/* columns rows colors chars-per-pixel */
"64 64 253 2 ",
"   c #0B0E09",
".  c #37361B",
"X  c #342813",
"o  c #1A3527",
"O  c #393829",
"+  c #3C3C36",
"@  c #29332B",
"#  c #472D17",
"$  c #4A331C",
"%  c #54351B",
"&  c #40240E",
"*  c #4C3C2B",
"=  c #473827",
"-  c #533C25",
";  c #5C3D25",
":  c #523E2C",
">  c #5A3F29",
",  c #473D33",
"<  c #4D392F",
"1  c #613E22",
"2  c #354715",
"3  c #284536",
"4  c #364639",
"5  c #35522E",
"6  c #54422D",
"7  c #5C442D",
"8  c #5A492A",
"9  c #49453A",
"0  c #544433",
"q  c #5B4633",
"w  c #5C4934",
"e  c #5C4B3B",
"r  c #54493A",
"t  c #59513D",
"y  c #4A4C2C",
"u  c #63442C",
"i  c #6A462B",
"p  c #6B4A2C",
"a  c #664627",
"s  c #744D2D",
"d  c #654A33",
"f  c #6C4C34",
"g  c #644E3B",
"h  c #6B4F38",
"j  c #634731",
"k  c #724E33",
"l  c #754F38",
"z  c #6D5234",
"x  c #65523D",
"c  c #6C523C",
"v  c #6B5939",
"b  c #745235",
"n  c #74543B",
"m  c #7B563A",
"M  c #75593D",
"N  c #7C593D",
"B  c #7A5535",
"V  c #74512E",
"C  c #4E6735",
"Z  c #41521B",
"A  c #375247",
"S  c #366B49",
"D  c #4B4942",
"F  c #524C43",
"G  c #5A4C42",
"H  c #415747",
"J  c #5D5443",
"K  c #59564A",
"L  c #455956",
"P  c #5E5B53",
"I  c #565853",
"U  c #635344",
"Y  c #6A5643",
"T  c #645946",
"R  c #635B4B",
"E  c #6C5C4B",
"W  c #685748",
"Q  c #725642",
"!  c #755A43",
"~  c #7C5C43",
"^  c #735C4A",
"/  c #795D48",
"(  c #625D53",
")  c #6B5C53",
"_  c #725D54",
"`  c #644E4A",
"'  c #4A6858",
"]  c #586856",
"[  c #526C4D",
"{  c #6D614D",
"}  c #67604D",
"|  c #7D6145",
" . c #75634C",
".. c #7C624B",
"X. c #786749",
"o. c #6C6354",
"O. c #65635A",
"+. c #6B645B",
"@. c #666758",
"#. c #726452",
"$. c #746B5C",
"%. c #786757",
"&. c #79735A",
"*. c #647755",
"=. c #527064",
"-. c #6A6A63",
";. c #776C64",
":. c #697865",
">. c #7C7263",
",. c #787668",
"<. c #7A7671",
"1. c #667673",
"2. c #835B3C",
"3. c #835837",
"4. c #8A623E",
"5. c #825E43",
"6. c #855E47",
"7. c #846244",
"8. c #8B6444",
"9. c #84644A",
"0. c #8A654A",
"q. c #856A4D",
"w. c #8C694D",
"e. c #886945",
"r. c #936C4B",
"t. c #946A49",
"y. c #97724D",
"u. c #846A53",
"i. c #8C6C52",
"p. c #866957",
"a. c #926D52",
"s. c #966F58",
"d. c #8C7255",
"f. c #8D735B",
"g. c #867559",
"h. c #947155",
"j. c #9B7454",
"k. c #94745B",
"l. c #9A765B",
"z. c #947A5D",
"x. c #9C795C",
"c. c #9D7A50",
"v. c #84714E",
"b. c #A27B5C",
"n. c #A57957",
"m. c #A0734F",
"M. c #867868",
"N. c #9C7C62",
"B. c #967C66",
"V. c #8A7970",
"C. c #A27E63",
"Z. c #A77F65",
"A. c #688558",
"S. c #73895D",
"D. c #5A876A",
"F. c #778C67",
"G. c #7B966C",
"H. c #778577",
"J. c #6E8D73",
"K. c #6F976F",
"L. c #8E815D",
"P. c #A7845D",
"I. c #A3935F",
"U. c #8A816C",
"Y. c #9C8364",
"T. c #98866A",
"R. c #878776",
"E. c #988976",
"W. c #97987B",
"Q. c #8C9975",
"!. c #A48265",
"~. c #AB8363",
"^. c #A4856A",
"/. c #AB866B",
"(. c #A38B6C",
"). c #AC8B6D",
"_. c #B38A69",
"`. c #B9916E",
"'. c #A88D73",
"]. c #A89477",
"[. c #B79779",
"{. c #AE926E",
"}. c #8FA479",
"|. c #B6A77A",
" X c #AFA677",
".X c #C19978",
"XX c #C7A47E",
"oX c #7A9189",
"OX c #79A38D",
"+X c #879785",
"@X c #999989",
"#X c #8A9D96",
"$X c #95928D",
"%X c #A49784",
"&X c #B89B81",
"*X c #A39A97",
"=X c #89A58A",
"-X c #96A689",
";X c #8AA896",
":X c #97A897",
">X c #95B592",
",X c #A8A587",
"<X c #B8A789",
"1X c #A7AD95",
"2X c #BAAB91",
"3X c #A7B597",
"4X c #BBB697",
"5X c #ADB38A",
"6X c #99B7A6",
"7X c #99A9A4",
"8X c #A7B9A6",
"9X c #B7BAAA",
"0X c #AEACAB",
"qX c #C4A88A",
"wX c #C6AD94",
"eX c #C7B698",
"rX c #D4B999",
"tX c #D0B38B",
"yX c #CEBCAA",
"uX c #E2BE97",
"iX c #B8C59B",
"pX c #9AC3AE",
"aX c #AAC5AC",
"sX c #BAC5A9",
"dX c #ABCAB4",
"fX c #B9C8B7",
"gX c #BAD4BC",
"hX c #C9CA97",
"jX c #C8C8A8",
"kX c #DAC9A7",
"lX c #CAD8A8",
"zX c #C6C9B6",
"xX c #D4D1B2",
"cX c #E5CAA8",
"vX c #ECD7AB",
"bX c #F7DCB6",
"nX c #EFD5B0",
"mX c #E9E6B7",
"MX c #F8E6B9",
"NX c #F8F3BD",
"BX c #EFE5B1",
"VX c #DCD2A1",
"CX c #BAD4C1",
"ZX c #CFD5C5",
"AX c #D7E7D6",
"SX c #D7ECD4",
"DX c #FEEBC4",
"FX c #FDF4C5",
"GX c #FAF5C8",
"HX c #E8F3DA",
"JX c #E9F7E4",
"KX c #FCFAE8",
"LX c #FCFCF3",
/* pixels */
"0 < r e 6 = r w w v Y j f u i ! 3.3.3.m.m.m..Xh.x.n f 9.u.> 7 c w e q : _ W q 6 ^ ....9.7.5.1 B u 7 l a k m B i 7.a.i d g : e 6 ",
"U 0 0 e q r w * x x h f ! i k 5.3.3.4.n.t.4.x.2.N N N ! ~ d n Q U g E x x g Y q - Q p.9.7.h.k a i ; f i m m m i m a.n h c 6 q 0 ",
"0 r r e r q 0 6   - / j u i m l 3.3.m.n.m.y.~.c.f 7.i.n c u ! c g g Y e e q c x 7 ! q.~ n h.e.b f ; k i m m l i 1 9.n f 7 - : * ",
"< r e e w 0 0 q - j ! h h f ! 5.3.4.n.n.y.c.j.3.w.h.k.q.M > d Q q W e * ^ W x ..d c ..9.5.h.r.b f 1 h i m l B s 1 6.~ h d : 0 : ",
"G G < 0 G x 0 = w q g j d 1 h l 3.3.n.m.y.~.b.t.x.h.l.k.u.u Q p.Y ..Y q %. .^ ..c j c | 7.r.h.m f 1 k i m m m f 1 M n h d : : q ",
"G e e 0 r U e 6 $ 7 / c f f m l 3.t.n.Z.y.8.N l w.h.a.9.7.c 9...p.^ %.^ x c ..Y h d z n 7.l.^.8.i 1 k f 3.5.m s ; l c w q : * q ",
"e G G e 0 e Y w ^ - 7 h n 1 f m s t._..X_.b.t.m 7.h.a.~ n n ..c u.c ..Y q j ..g > d ! 7.z.C.).8.f 1 l f ~ 6.m 1 a b n j j e 0 g ",
") g e q 0 x Y = $ - Q h j j ~ m 3.n.m.y.r.n.n.6.7.l.x.9.9.~ 9.n / Y c d c Y ..^ g z n N h.h./.l.l s m i m 6.m % % c Q > : j 0 0 ",
"G W e 0 0 U U . $ * c Q d d n 5.8.t.Z.Z.Z.3.b.b.l.l.0.w.0.9.f / f...u c ..c n c c ! M b l.x.[.b.B f k s l 0.k % % i h q q g e e ",
"U U U R g : q 8 = 7 c Q f i n 5.8.t.t.m.4.3.l.Z.j.w.9.a.i.5.5.0.i.p./ ..u.! / ../ ~ n p 9.b.P.r.m B 3.B B 7.k % - 7 d h g d e W ",
"G W G Y W Y U = 7 w n ! f d m 5.8.t.2.n.t.3.8.t.a.a.C.a.5.i.Z.B.u.B.f.9...! ..9.d d n 7 p l.x.!.2.3.7.3.m 0.l a % d h g g x g g ",
"= G W Y G T Y 6 6 7 c ! h f ~ 0.t.t.3.t.8.3.s.t.7.h.C.6.~ 0./.C.a.N.f.~ c n ..9.f N w.p f 8.j.c.6.6.7.2.N 8.b ; # i Q g g Y g < ",
"= * < G U U T w 6 7 h Q l l ~ 0.0.t.5.6.r.j./.n.r.a.l.a.a.m w.!.k.x.i.n f ~ ....n 9.i.N 0.7.l.8.t.3.6.3.~ 6.l - $ 7 h E W : = < ",
"< < . * e E E * 6 7 d Q c h ~ 9.r.0.3.6.r.r.C.2.0.n.C.s.s.6.6.b.k.k.q.n M 9./ 9.f ~ | p N p P.x.8.3.3.3.2.6.l % # > h h g - # = ",
", r < < * w U 6 : - d ! n h m 5.m.t.1 l 2.6.a.6.r.Z./.l.0.0.i.l.l.i.i.7.9.i.| i.| 9.i.n i a 8.b.t.3.3.B 2.0.f ; & > h q - - < : ",
"%.0 $ q r 6 6 8 * - d Q Q l ~ 5.t.3.1 j.b._.Z.Z.`._.[..Xl.C./.[.!.l.x.i.i.i.9.N.d.k.!.h.7.2.B r.t.3.3.3.5.w.l ; # ; 7 q : = : W ",
"Y ..Y 6 6 w 0 6 - 8 a v V V 6.5.w.V % c.!.`././.P._..XP.m._.[.Z.B.k.w.w.s.a.i.a.9.i.f.d.| V 3.8.t.2.3.3.2.a.n % & > g q - g u. .",
"; Y j Y  .w y 8 X $ 8 V b b 6.0.r.3.p !.{.qX&X[..X`.`.`.P._.&X'.Z.N.N.Z./.b.b.~.C.N.k.h.v.N 4.t.t.8.2.2.N h.m u # ; d h n ..d c ",
"| $ j x U 6 w 8 X.d.X.b v b 0.l.c.4.M C.N.C.s.s.P.m.m.P.m.y.b.l.k.s.a.0.6.6.0.0.6.~ M 7.e.4.4.y.t.8.3.3.m h.i.~ m Q ~ h d u X 8 ",
"T.f $ 7 - - Y - v d.v.z z p ~ a.~.4.V c.s.6.5.t.y.4.4.4.3.3.6.8.p.s.0.B b 6.7.n 9.~ 7.9.e.8.3.j.b.r.8.3.k 0.5.n ; > Q j % $ 6 z.",
"l.%X% d j q d - 8 d.d.M l Q f.Z.`.m.7.!.Z.C.C.Z.P._._.P.n.j.b.b.0.t.l.C.z.!.!.k.l.k.l.i.s.6.6._.P.j.8.2.b 0.6.~ i 7 ..c 8 & v ..",
"Z.Z.f.1 j c d 7 b z.v.b i h s.Z.b.t.6.j./.&XqX&X[.qXtXXX.X.X.X.X_.C.Z.`./.!.'.[.].'.[.!.Z.t.3.b.P.r.8.2.N h.i.9.j ; c c j 8 g.| ",
"tXi.&Xf ; h h 7 d v.k.w.m ~ s.N.[.b.r.l.l.i.r.7.w.P.~.Y.r.t.t.t.Z.8.6.6.~ | g.z.z d f m s.s.3.n._.j.7.2.m r.6.n f u f f 7 / d.v.",
"uXqXN.s.j n j - b q.d.~ i f i.l.).8.5.b.C.6.9.a.(.{.|.{.x.8.2.8.n.2.m ~ X.T.E.B.T...f i 6.a.l s.).j.m l b i.~ c ; i n M 6 ..u.[.",
"cXuXZ.s.f / ~ j - f q.7.k b 7.C.C.5.a.Z.!.a.N.T.].T.T. X{.!.j.t._.4.x.| E.T.%XU.T.T.v.M w.l.Q s.~.w.2.b l a.~ d $ h n Q f 9.z.[.",
"cXuX[.Z.h n h u 1 l w.N p b 9.!.l.m 8.j.b.v.(.<X].eX4X,X'.).n.c._.4.N T.U.W.@X,XW.].z.M h.b.5.i.!.r.~ b l w.~ i ; f z c ! f.T.<X",
"bXnXrX'.9.n Q j z | h.| p f 0.!.l.p 2.l.!.z.E. X4X,XW.eXeX<Xx.c.n.m.a.'.$.@X1X@XE.T.].X.d.C.6.w.C.a.5.B l i.5.h u h n b | B.[.|.",
"MXcXrX).q.n Q u n e.l.| p s 9.^.h.k 6.C./.x.,X<XsX@X3XsX5XE.).Y..Xm.k.%XR.+X-X+X*.&.<Xd.w.z.9.p.C.h.6.m n w.~ h u l / n | z.[.&X",
"MXnXVX{.d.! ~ u b 9.k.4.i z w.).h.l 0.b.Y.Y.2XjXxX3XfXaX5XM.].)._.j.g.E.-XoX+X+X[ &.4XY.u.B./ p.N.l.| N l 6.~ l i f 7.! q.N.<X[.",
"NXMXMX<XY.9...c z 9.x.N a b 0.^.h.f N x.!.].4X1XZXaXaX;XZX].g.(./.^.M.R.+X#X6X;XH.}.hX].f.B.9.p.x.x.N N f 5./ f d c ~ ~ i.[.qX{.",
"MXBXbXtXY.v./ d M i.C.7.a p 9.!.N.f ~ l.).<X4XQ.pXgXgX=XzX1Xg.(.qX!.M.@X+XoX;X6X=X4XjX XB.B.....l.l.N n f ~ 6.l i c ~ 9.i.[.qX{.",
"NXBXvXqX(.B.| f N a.P.7.p V w.^.h.m a.!.(. XjX3XSXZXCXdXaXQ.Y [.qX^.R.@XoXoXpX;X-XfXxX<XL.k./ ..B.x.N N f 5.u.~ j n ~ i.| '.qX'.",
"GXMXMXcX).L.X.V s t.n.4.i l w.Z.h.z e.).'.eXjX=XAXAXsX>X:XF.X.[.[.^.R.:X$X:XdX=X:XzX3X5X'.z...X.N.N.5.l 1 t.a.l 1 l q.d.h.|.qXrX",
"GXDXbXcX{.(.v.V 3.m.P.4.i ~ 0./.Y.V M !.'.kXlXQ.SXJXiXsX8XR.w {.&XB.$X0X<.+XdX=X6XCX8X5XY.Y.! X.N.N.6.~ l 0.s.5.l l 9.i.f.<X2XkX",
"GXmXMXcX(.(.v.p 3.m._.t.p N w.`.c.p | !.(.kXlX-XfXAXsXxXsX-XX.!.[.Z.+X8X] >X3X=XdXZX3XiX(.l.| ^ l.C.6.5.l s.a.5.1 l ~ 9.N.qXwXcX",
"NXmXbXcX(.Y.v.a 3.n._.y.p M w.`.l.p w.^.Y.kXlX-X:XAX-X,XdX1X9.).&X^.-.<.:.aX=X=XdXCXG.sX(.d.! c l.C.6.3.l 0.a.~ i 3.6.p.z.&X<XyX",
"GXDXMXnX(.T.e.p 3.n._.t.a B e./.!.i 9.^.^.cXlXG.8XfX,XsXfX@XM.).[.T.R.] :.=XK.oXdXgX=XsXT.N./ Q B.l.5.n k 0.s.~ i m u.i.B.<XqXrX",
"NXGXDXnXY.(.v.p 3.n._.t.a B w._.Y.p d.).Y.kXlXF.ZXCX}.3XJXZXT.{.{.T.R.D.A A.D.D.>XdXgXlXN./.Q / N.N.m k i 9.f.6.u f 9.i.z.rXyXcX",
"mXDXDXnXY.T.X.z 3.~..Xt.a M w.).x.d z.'.x.kXlXF.:X1XW.Q.+X$XM./.{.E.&.J.3 D.S S OXpXgXxX'.N.Q Y B.N.Q k u 9.k.6.h Q s.s.f.wXrX&X",
"mXDXbXcXY.'.q.f b b.`.t.a b 0./.^.7 i.^.N.vXlXS.ZXsX}.sXCX9Xp.N.|.T.*.5 S ' 5 S OXdXpXHXwXp.p.` B.f.Q f j 9.f./ f h p.B.p.qX&XB.",
"GXGXGXbXB.M.%.M m Z.).h.b | !.[.(./ f.(.[.GXjXC zXzXQ.iXJXAXV.N.[.].*.4 =.=.S S OXCXpXSX2Xk.%.^ B.T.f.^ Y g.M._ Q g f.Q / wXrXp.",
"FXGXbXMXqX].g.z 9.{.&Xz.v v N.'.f.U %.f.Y.MXlX*.aXsXQ.S.AXAX%.9.(.E.] 3 ' S S oXpXpXpXSXT.> p.` %.g.X.g g p.B.f.^ Y p.B.&XqXwX..",
"hXNXbXDXrXU.%.8 j l.Y.X.t d B.'.g.g  .u.L.mXhXC 3XsXW.C dXZX` ^ X.,.A 3 A A S oXOXOXpXSX].= M.0 } X.#.r < J W e # G ..z.].[.&Xd.",
" XMXnXcXT.8 { x Y B.T.X.y y %.M.e = g  .Y.mXlXZ >XsX5X*.7X8X) ^ u.U.4 o S ' =.S S OXdXSX,X$ E O J R e O = J ;.%.r W Y = g.qX].u.",
"tXMXcXrXg.. T y = / _ 0 X . W %.o.q %.X.Y.mXiXC }.3X}.S.:X#X;._ T.,.+ 3 A =.=.S A ;X6XAX1X# T r } K t @ X + F ,   6 { x B.&XE.q.",
"vXbXvXcX].= w . = ^ #.w O 9 >.R.o.y #.&. XGXlXC Q.-X*.S.;X$XV.^ V.} A ' L L =.L =.7XOXJX9X< @.9 P O.P r D I P D = , X w T.].wX].",
"BXBXnXwX].t J r ^ U.U.R O 9 $.M.&.y J &. XNXhX2 F.-X*.:.6X0X$X_ U.+.1.oX1.=.=.' oXOXoXJXyX= @.4 O.O.P 9 + F O.( r K e %.T.T.eXqX",
"hXBXDX|.].g.o.T U M.>.J 5 F <.V.+.O } S.5XmXlXZ A.>XS.J.CXdX$X%.@X$X#XoXL A A A oXOXOXJXzX= @.9 P O.] D + K -.O.F K +.E g. XeX].",
"XXNXNXhX<X .o.t E M.>.T 0 9 $.V.,.4 R g.iXGXlXZ K.G.A.K.7XZX+X) 7X7X0X7XL L A o oX;X1.HXfX+ -.+ -.<.K D 9 K O.O.r ` R E U.wXkXv.",
"|.NXMXkX<X{ #.G W M.M.T 6 0 ;.E.$.= T &.5XmXlX2 G.>XK.K.1.H.-.;.*X7X7X7X=.L ' @ K.OXD.AX9XF P + -.<.P 9 , F @.@.9 K ) %.E.eXkXd.",
" XBXFXkX<XE E t T M.M.T * r ;.E.%.6  .g.|.NXmXZ }.}.A.A.F.O.) ;.*X*XL L L A L A D.OX1.JXyX( -.D ;.<.P 9 y K +.o.9 G o.>.].eXkXz.",
"I.MXGXcX2X{ #.t U V.U.K * < ;.E.#.* ^ u.|.NXlXZ }.}.A.C ,.-.} g.*X$X  @ o + +   =.;X-.JXyX, _ , ;.<.( 9 + P $.+.F ` ) &.E.eXkXL.",
"I.BXGXkX2X#.o.T J R.U.T , 0 ;.E.%.< ) _ <XGXVX. }.Q.A.A.K.H.-.<.0X*X      @ P   :.:XR.KXyX, +.D ;.1.O.D , ( +.O.D ` ) %.E.rXkX&.",
"I.BXGXVX2X{ o.J J M.U.J = r ;.V.;.< ) _ <XGXxX2 }.}.A.A.H.+X,.-.*X*XI L @ + 1.  oX6XaXKXyX< ) F ;.-.( F , P @.) 9 ( +.$.@XeXhXM ",
"`.BXFXVX2X} { t J U.M.K = r ;.M.$.O J  .|.NXlX2 G.G.A.K.' H *.,.0X7X-.L 4 A H   =XpXaXJX9X, I D ;.P I F + P } ) F ` +.g.W.eXeXv ",
"I.BXFXvX2X{ } J K R.M.J y r $.,.$.2 T *. XGXmXC G.}.C K.H 5 *.:.0X1.o L @ H A 3 =XaX:XJX9X+ -.+ -.I G F + P @.O.F ( +.M.E.2XwX| ",
"c.vXGXkX2X{ } t t &.F.t = 9 E ,.;.X } X. XNXmX. A.G.C [ ] [ *.:.0X+Xo 3 o o   A 6XdXG.JXfX@ -.A -.I I F , K K @.F ( +.M.V.wXeXw ",
"I.MXGXkX2X{ } r t ,.U.J = 0 ) >.+.O K #. XNXmXg. X}.G.F.H.:.,.>.9XH.3 -.:.] 4 :.CX>XJ.JXzXX P 4 -.I K D 9 @.( -.D ` +.>.B.4X2X8 ",
"`.MXFXcX4X .E r r ,.U.J * r ) &.+.< G _ wXDXKXKXKXKXKXKXLXKXLXLXzXHXJXLXJXLXLXLXLXJXHXKXyXX O.D ;.P K D + @.) O.D ` ;.M.E.2X2X8 ",
"XXBXDXkXeX .} J 9 &.,.t , < ) %._ < ` p.&XrXrXyXyXjXyXyXZXyXyXZX2XyXZXZXZXZXZXzXzXzXzXzX*X` -., <.P K 9 + @.O.O.F ( -.>.E.4XeXv ",
"uXBXBXcXeX#.o.U r >.>.J = = J $.t X 0 u.~._._.{.{.'.(.(.E.B.B.Z.&XV.M.V.V.V.V.V.M.<.$.>.V.p.) D ;.I I D + @.( ( 9 ( ;.>.W.wX2Xv ",
"uXvXbXcXqXE ) e y o.&.J = = ` M.&.. e u.r.c.!.~.C.d.L.L.B.V.B.B.B.B.R.;.p.p.V.;.>.R.>.$.V.;.G F <.O.I + + ] ( I D ( ;.,.%X2X<Xv ",
"uXbXMXvX2XE #.e = ( $.Y < # G M.J X 0 &.| | 9.i.f.X.X.&._ p._ ..%.#.( +._ _ ` ` K ( ` G ;._ D + <.-.I , O O.( I D ) M.>.E.<X2XX.",
"uXbXMXvXqXE #.e 9 E ;.R = X < ;.J o , #.M v Q f.%.x X.} ` _ ^ Q ^ ^ ` ) ` ` ` _ ( F I ` _ D D + <.I D + + -.;.) D +.>.o.V.W.4XX."
};
