/* XPM */
static char *_684_43633738fc7caf33766ae58dc57261f6b7770baca4abb14e1aa766f3e50df9c8[] = {
/* columns rows colors chars-per-pixel */
"64 64 256 2 ",
"   c #0E0105",
".  c #370302",
"X  c #270201",
"o  c #490401",
"O  c #580204",
"+  c #4F1707",
"@  c #660203",
"#  c #671801",
"$  c #7B1003",
"%  c #562C0B",
"&  c #692602",
"*  c #772A02",
"=  c #693501",
"-  c #733C01",
";  c #783703",
":  c #6F3918",
">  c #693928",
",  c #7B4804",
"<  c #764514",
"1  c #69420E",
"2  c #774827",
"3  c #784832",
"4  c #715132",
"5  c #5A4220",
"6  c #795447",
"7  c #7D624C",
"8  c #873903",
"9  c #903308",
"0  c #8D0E00",
"q  c #844302",
"w  c #894705",
"e  c #954905",
"r  c #8B5503",
"t  c #9B5301",
"y  c #9A5804",
"u  c #8A5719",
"i  c #995A19",
"p  c #884818",
"a  c #A75903",
"s  c #B55A02",
"d  c #A45C16",
"f  c #A95009",
"g  c #966315",
"h  c #A96305",
"j  c #B76504",
"k  c #BB7104",
"l  c #A8641C",
"z  c #B66719",
"x  c #B37316",
"c  c #874C26",
"v  c #895628",
"b  c #975928",
"n  c #875937",
"m  c #955937",
"M  c #8E4D34",
"N  c #A75C2D",
"B  c #99642B",
"V  c #8A683A",
"C  c #986639",
"Z  c #8F612D",
"A  c #A96928",
"S  c #B76A27",
"D  c #B97629",
"F  c #A76936",
"G  c #B66B36",
"H  c #AA7338",
"J  c #B77538",
"K  c #A9732C",
"L  c #C87506",
"P  c #C97110",
"I  c #C77829",
"U  c #C67937",
"Y  c #CF772B",
"T  c #C85F00",
"R  c #885A44",
"E  c #975E4B",
"W  c #896649",
"Q  c #996947",
"!  c #987348",
"~  c #966B55",
"^  c #987457",
"/  c #886E59",
"(  c #A66B47",
")  c #AC7343",
"_  c #A9774A",
"`  c #BC7B43",
"'  c #B67948",
"]  c #A76B55",
"[  c #AB7B5B",
"{  c #A77856",
"}  c #B77A57",
"|  c #B56D49",
" . c #987864",
".. c #98756C",
"X. c #A87B64",
"o. c #B67C64",
"O. c #AE7B74",
"+. c #A05D40",
"@. c #C47B47",
"#. c #C67C55",
"$. c #C06F42",
"%. c #C67E66",
"&. c #B6833C",
"*. c #C98439",
"=. c #CE8633",
"-. c #E38D32",
";. c #DD8219",
":. c #BA844A",
">. c #AB835B",
",. c #BC8454",
"<. c #BB845B",
"1. c #BC8B5C",
"2. c #B68657",
"3. c #B98E57",
"4. c #9B8368",
"5. c #998872",
"6. c #AA8568",
"7. c #B88867",
"8. c #BC946D",
"9. c #BA9468",
"0. c #AA8977",
"q. c #B88A76",
"w. c #A9947B",
"e. c #BC9473",
"r. c #BC957A",
"t. c #BD9B7D",
"y. c #B69677",
"u. c #AB9367",
"i. c #B9A477",
"p. c #CB8C4D",
"a. c #C78647",
"s. c #D48947",
"d. c #CD934B",
"f. c #D7934B",
"g. c #C78957",
"h. c #D58A56",
"j. c #C99359",
"k. c #D79658",
"l. c #E39751",
"z. c #D3A15E",
"x. c #C38C64",
"c. c #C78A67",
"v. c #CB9363",
"b. c #C4936A",
"n. c #CB946B",
"m. c #C99967",
"M. c #D59867",
"N. c #C58C75",
"B. c #C39473",
"V. c #C49B7B",
"C. c #C89877",
"Z. c #D69B75",
"A. c #D58D6A",
"S. c #E39D66",
"D. c #CDA26E",
"F. c #D9A36A",
"G. c #C9A47A",
"H. c #D8A678",
"J. c #D4B47D",
"K. c #E6A569",
"L. c #E3A877",
"P. c #E6B374",
"I. c #E1A056",
"U. c #AB9989",
"Y. c #B89986",
"T. c #B69B94",
"R. c #AF8F89",
"E. c #BAA588",
"W. c #BAA796",
"Q. c #BCB298",
"!. c #AEA892",
"~. c #BBB1A5",
"^. c #9F9387",
"/. c #C49B83",
"(. c #C49D8B",
"). c #CA9B85",
"_. c #C59D96",
"`. c #D0978A",
"'. c #C4A384",
"]. c #CCA384",
"[. c #C4A48C",
"{. c #CAA48C",
"}. c #CBAB8C",
"|. c #C7AA88",
" X c #D3A584",
".X c #D3AB8D",
"XX c #D8AA87",
"oX c #CBB48B",
"OX c #D7B48A",
"+X c #CBA592",
"@X c #C4AB94",
"#X c #CBAB93",
"$X c #CBAC9B",
"%X c #C4A799",
"&X c #D3AD94",
"*X c #D5AC99",
"=X c #CDB394",
"-X c #C3B29B",
";X c #CCB39C",
":X c #CCBA9B",
">X c #C5B595",
",X c #D3B49B",
"<X c #D2BA9D",
"1X c #D8B797",
"2X c #E2B487",
"3X c #E3B490",
"4X c #C7ABA4",
"5X c #C5B4A4",
"6X c #CBBAA3",
"7X c #CBBCAB",
"8X c #C8B5A8",
"9X c #D3B4A4",
"0X c #D4BCA4",
"qX c #D4BCAC",
"wX c #DBBCAC",
"eX c #D9B8A6",
"rX c #CABBB5",
"tX c #D4BBB3",
"yX c #D7BEB6",
"uX c #D4ABA4",
"iX c #E3BAAC",
"pX c #D4C296",
"aX c #CCC4AB",
"sX c #CDC4A9",
"dX c #D4C3AC",
"fX c #DBC3AC",
"gX c #D8C5A6",
"hX c #CBC6B8",
"jX c #D3C4B3",
"kX c #DCC4B3",
"lX c #DCCAB4",
"zX c #D4C4BB",
"xX c #DBC4BB",
"cX c #D4CBBC",
"vX c #DBCBBC",
"bX c #D3CAB3",
"nX c #DAD3B8",
"mX c #D7D1AD",
"MX c #E3C6AB",
"NX c #E4C8B6",
"BX c #E2D1BA",
"VX c #D3B8C1",
"CX c #E5BDC3",
"ZX c #CDC8C2",
"AX c #D4CCC4",
"SX c #DCCCC3",
"DX c #D7C8C7",
"FX c #DBD3C3",
"GX c #DCD3CB",
"HX c #D6D4C8",
"JX c #DBD8D3",
"KX c #E2CBC5",
"LX c #E4D6C8",
"PX c #E3D7D6",
"IX c #E8CED1",
"UX c #E2E5DA",
/* pixels */
"o.1 2 s.S.` ` p.*.' .Xa.S } Z.OXv + + u.OX>.b M.OXZ.I h.a.p. XgX:XiXlXdXxX9.= e &.S.j.L.K.#.aXlXU.M N M.3XOXOXOXgXZ.T l.L.M.Z.3X",
"G.g < J M.:.F K.d 6.OXB.[ c.3X_ * e < . G.x.; 3. X,X.XL.f.S H.yX7XC.OXBXiXt ; v M.v.H.F.k.} dXD.9 [ ) * 1.MX2XZ.1XXXf S j.H.K.D.",
"wXF w A p.h.k.p.0 w.OX#X=XD.1Xq X.=XL.( _ 8.@ } OXC.XX3XM.K i G.eXI G.0X} z J k.j.m.H.Z.=.( <X( C.f.k l c 0XXXU L.2Xz e K.P.L.d.",
"XX8.n.A a.F.n.U 8 y.XXa.v.=X'.$ [.eX1XOXj.Z.& ) Z.K.F.F.p.h.J 9 a.2Xn.r A -.g. XOXF.D.k.=.] *Xg.gX1XOX' e oXL.T L.OXa ` P.OXk.U ",
"v #X1XJ s.k.j.l.} r.XXD ` wXe.$ e.OXH.G.H.g.y c.L.D.x.J P h.S | 1X1XH.w 2 Z D m.XXM.Z.M.-.^ }.J }.h.OXc.0 Q.XXA.XXiXS a.P.2Xf.a ",
"& / 3Xp.s.d.a.:.j.OXZ.@.@.M.>.$ >.1XM.b.wXV.S D.H.2Xk.U f.a { gXfXj.G.uX( - c ` s.H.3XS.-.6.dX` t S OXZ.8 4X3XF.gX1XU l.K.L.f.; ",
"r W 1Xp.=.*.=.=.a }.XXm.M.f.` & ..pXgXwX1X].x k.p.j.x D a /.lXjX1XD y.NXVX5.* * H j.J.L.f.} 7X&XC.*XMX=.s Y.P.L F.J.G k l.I.=.p ",
"= N.2Xa.h I J P S '. X` OX1X#.i 8 ) XX0XwXE.D J Y.4X,X(.+XNXjXdX#Xk t.=XkXzX0.R.X.#.f.P.S.U dXcX0XtX1X-.Y y.P.P k.H.h t L -.P e ",
"{.0X9Xx q.#X=X%X4XkX(.@.c.=X7.P G ; , C NX+Xt {.FXdXcXLXLXxX:X@XdXH.|.kXoX0XFXlXFX:Xp.f.S.J qXyXJ H Y f.P *X Xj Z.fXuXr.Y.`.A.j ",
"1XsXG.@ {.gX).*XXX}.H.M.p.|.n.z :.*.y > kXE.[ dX|.0XlX=XaX:XJ /.wXdX1X,X).qX:XcXLX1XB.c.U A KX<X9 T K.L.I $XZ.Z.XX*XBXpXIXFXKX} ",
"<XB.; $ `.'.'.c.n.G.j.C.Z.oXB.D h.f.D : .X{./.6X#X1X[ d { N y.<X:XvXpX$Xc.a.a.6.Y.N.1XpXx [ NXW.a l.P.L.z +XL.P Y S.k.Y V.M.<XB.",
"dXw 9 8  XG.&XN.#.=Xv.g. X Xc.=.I.=.&.+ F M.$X=X5Xb 6.,X5X<X6XqXjX$X=XdXGXrX:Xv.s e ;XBXC.y y * N S.L.k.k B.=.L I G.=.J xXXX1X>.",
"Y.9 H h +X{.h j.G.;X&X X1XoXC.P f.d.D : < m.>XwX<.B.fXdXgX0XwX9XN w 4 [.PXUXGXmX1X' { wXG.h F 2 D K.XXH.h j.v.c.@.h.M.l.h.c.eXN.",
"h z U T 8.V.j N.wXMXnXFXbXgX}.T @.p.D : 3 }.,X-Xy.=XqXxXw.E.BX} k @.e V E.8X'.dXdXXX| oXNX_ h v I H.L.L.a.e.cXBXKXBXgX1XL p.wXF.",
"A G p.a y./.2.(.MX6.^ 0.q.} D *.a.Z.J B +X#XiXG. X6XjX[ * 3 7.I s.A A b w 8 O ^ eXyXG.a.OXKX6.s k.P.F.H.F.Y _ Y.'.T.*X;X;XH.KXA.",
"2.D U ; [.#X XoXoXc . X O d @.p.b.d.g.&XG.<XgX7..XSX@X8 _ u c.h.I g.OX` B Q V X !.vX0XU I aXNXC.s.M.F.H.D.S.Y 8 O . e.KXfXOXjXv.",
"9XD t $ 5X{.z N.dX{ = c J j.k.g.n.b.V.<XgX@Xb y.7X3XH Q #X&.].H.x V iXG.J j.J g.@.8XNX=XF B lXMXp.T b x.K.H.K.a.c X ).fXM.L uXC.",
"v.} `.9XFXi.f b.qX) 8 | f.h.#.g.*.#.9X;X}.] 8.qXSX3Xh Z NX7.4XG.P 8 R.lX_ y &.2XM.^ '.nXiX( E.LX&Xh e H H. XK.k.S o @X1XI.g.1XlX",
"q.nXJXgXt.x.).c.tXH a @.f.*.a.k.*.} tXqXC V.gXgX4XX.' _ ,X) |.Y.y %.<.9XE.& '.NXw., 2 :XlX#Xa E.NX8.8 S f.S.z.H.S.8 E.3X;.zX0XZ.",
"KXlX[.X.7.@.`.XX7XF j p.Z.p.v.A.s.} 7X-X) 6XgX6.; c ` o.qX:.eXt.d J e R.jX= 0X=XB | *  .1XdX2.! zX'.s k.L.I.H.D.m.x oXMXZ.1XZ.I ",
"aX1.` ,Xc.j I v.:X} L s.d.h.s.h.d.x.jX9Xq.wX@X> F x.k ] 0X' 4X'.[ (.H = 7XX.4X5XK m.7.@ Y.GX9X] HX1X;.Z.2XK.h.F.S.h.h.NXGX].*.g.",
"7.s U D.B.e.uXpX;X' U a.h.@.m.iXd.6.xX+X'.LX/., Q R.6.W tXS 4X@XDX}.V.r w.=X<X5.^ [.N.i 0.LX&Xg.AXxXL z.Z.F #.K.K.z j l Q.kX0X+X",
"G.n.T @XyXJXFXlX} z g.&.p.1 Y.KXa.R.jX/.J kX}., 0.W.g R ;XJ 7X1Xt.G } i ~ wXaX .. Y.).z 6.ZXtXB.AX@XI f.@.# t F.M.f.$.# o V.MXzX",
"g.:.+XBXvX7X>.= O S j.a.e + } L.H 9.bX7.K j.{.9.+.~ ^ W eXA 5XU.a d ( mX0./.[.[ [ 7.G._ t.PX4X} cX#XL -.f +.).g.U k.g., % +X3XmX",
"I %XFXjXX.J } * 2 4 j /.,X< B f.* Y.0X[ ( H.0X]./.xXzXX.lX' 4XU.= t.8X).' ;Xt.~ Y.7.G.{ 5.dX#X>.dXcXc.A.Y.oXgXV.I =.@.8 W iXOXR.",
"%XvX%X4 X X.pX^ u < M 9.=XwX7.S v $XxX{ 2.<Xq.G.!.& U.LXrXf 4XR.  -XvXJ C.=X4.; a # }.:.c fX9X_ 5XzXDXAXlX<X*X=X7.I U 8 C.NXC.; ",
"kXu.o m m 4 gX-X; * 9.1.1.0XlX8X/.0XrXb .X Xe v i i O U.*XF 6.kXjXdX/ 2 E.wX4.U.u.%XwXJ A T.NX7.e.yX6XjXjXiX7XdXgXy.<.M.iXwX( ; ",
"0Xu.* N v X Y.mXV.&XnX{.].fXgXLX6XvX8X( dXw.F 8.J 6.W.# y./.B W 4.[ v.A 7 4./.;XeX5XW G.:.4 kX;X} 6XBXGXGXOXwXAXwXNXOXG.kX}.I p.",
"@XjX^ t C A ( wXwXb.0._ e.Y.y.W.%X;XQ  .NX#XF 3.b ~ MX{ ..>XF B t A 1.} g r w t z e y X.c.! vX0X#.F } } b n n O.q.n g *XjXM.l.l.",
"r.dX@XF J h.S *XlXi s @.D 8 . X * l d ^ NXqXu b '.<Xu.w.W x.T.q.6.>.0.=X~ 9.J C Q.7.F o.{ -XGXdXJ D U h.U ,   A XXs.' wXSXc.h.s.",
"7.t.lX6.` n.p.>.kXB.k p.k.@.v c @.l.A.~ -XBXW._ '.e.X.(.H K (.X.@X]. .V.U.@Xi { wXe.<.H { 7XvXW.P =.S.K.h.B t h.L.s.b.cX9XS.z.C.",
"F Q 0XV.` g.p.F 7X].a a.H.d.U j.K.k.n._ { qXLXuX{  XG.;XwXF y./ Q.9X2.;X< hX..4 gXB.D ' VXqXsX@.s.Z.j.F.Z.*.g.Z.k.U N.lXXXZ.s.`.",
"} _ ).1X{ ` g.a.E._.q @.H.D.k.p.a.a.a.x.u Y.LX5.F C 6.t.=X>.E.W E.7.>.Q.< w.W.).gX] Y r Q.GX_.L k.f.M.H.C.D.V.j.@.Q 7XjXS.D.@.$X",
"+X<X6.gX[ q ,.' y.:X1 B j.}.g.I Y U *.:.Z uXAXW 7.( X.V.}.4.G.~ >X2.6.[.b ! nX@X;X] } x./.SXV.L P j p.L.F.B.n.M.s ..nX*XM.H.| rX",
"g.6.R.*X8.O ) U N.uX! - g.n.d.` ' g.g.Q ( tXjXC :.Q '.<XQ.Z (.6 y.3.u.].l ^ :X] ;X} [ ^ E.ZX(.r.=X9Xr.` g.h.1.b.e C wX.Xj.N.v vX",
"`.0.] #X0X, p &.:.jXe.+ { K.B W 1XzXnXvX9X6XcXX.h F C ~ t.X.{.y.wX2.4.{.B [.7X6.4X2.k = VXSX XOXLXPXMX| ; ) M.h.C G ). Xv.$.! gX",
"[.0.V.t.gX! p ` z qX%XO Q p.= 7 pX>X/.qXzX#XJXAX7.e A y U.KX%XcXqXC (.0.>.{ y.Y.=XJ b 8XJX7X6.gX@XQ.xXH H ; g.S.z B.;XM.v.j 0.mX",
"'.9.{.7.yXu.* | s.;X@XO i l * ; `.{ 0 ,XaX_ 9XlXFX6X7.d i q.i i B q e.7.'.eXeXX.].W.HXFXUXW.= 9XW ~ GXB.r r N g.I V.tXM.Z.z T.LX",
"$Xq.[ { &Xw.& [ g.Y.gXw.0.q.q.r.].n.| '.aX&  .jXDXJXlX1.V.} b.[.4XwXoXu v u.>.V H.4XQ.(.7.< 6 rX9.6.8X*X+XC.yXkXg.x.D.G.2Xz @X9X",
"7XU.O.! kXt.# ( h.B.NXJXLXJXLXFXbX1XwXdXjX2 + ~ i.zX5X) b.[.[.rXrX-X6.' b.) w _ e.[.:XV e e 4 5X,XV.hXzXwX$X,X=XZ.g.M.XXK.j D.[.",
"dXq.(.t.&X4X* H g.<.,XrXzXrX~.>X}.}.4X$Xy.n u = , 8XHXW o 8 @ * w y { } H d w ` }.6XW.q B B , v v ] GX7X_ f ] q.M.k.C.J.f.' vX+X",
"8X*Xx.e.q.SXwXH } } E Q Q m - + <.3.b c F p.:.} B ] 7XJXR.5.$X0.) Q i.{ ~.ZX'.7X6X}.B.i b G M.j.H v -X+Xz G q d *.M.2Xj.)..XbX).",
"+X}.| u._ [ rXkX>.g.c.g.{.v.D : #X6X} ' b.b.8.2.9.F T.GXPXPXPXSXX.o   / 7XhXZXrX7X0X:.:.&.,.x.k.d.F y./.v.U a.n.p.` x.).NX,X0X,X",
"4X*Xq.0.V.R.0.LX4XS ` H b.F.g.b E.jX^ ,.<.1.G.:.g.{ ^ 4X7XjX-XaXSXR.~.zXlX~.6X6X%X6.G `.8.} C.M.A.G b.n.h.g.j.v.@.t @XFX@Xg.C..X",
"Q.bX9Xq.G.@X( O.lXE.; ] { i.g.J {.*XB.{ } g.7.b.x.1.:.4 ~ ~ ! oX9XsXzXrXbXB 3 4.R 5 N.<.r.x.b.g.a.G j.v.s.o.Z.:.r N.mXyX} @.U j.",
"M { {.rX].Y.7.b y.vX} o >.N.XXU @X6X0X0X6.( b.b.8.n.g.H B O v 9XFXHX:X6XxX<.8 C m 4 N.3.N.{ G h.<./.gXV.) g.A.x v ,XDX[.G.M.h.2.",
"; o E w.:X@X[ $X7.;XdX% 6 <.V.j.!.4X=XqX-Xv C _ 9.m.} H C v ;XLXE.b 3 ~ rXHXw.B Q 7.g.qX0X] w (  XpXIX XU q.v.h T.zX.Xg.1XXXn.;X",
"K % b b X._.{ ,X} ] nXU.# F b.m.'.! u #X-Xb < } x.C.} _ B t.vX6.h } B ; [ ;X5Xr ! C.V.tXyX%X< B 1X<XVX&Xa.N.f.<.qX1XZ.U e.XX,XG.",
"7.e v.6.X } q.>.<.N T.ZXn v p.g.t.H 8.zX6Xd v } g.x.3.1.G b.` h g.' J a.e /.SX' } c.qXFX4X0.w 7.=X' E.C.k.`.f.B.pXuX`.;.' gX1XT ",
"8.z p.A.1 X _ <.[ N.6.bXU.y g.:.Y.B.Q ~ 9X9X; _ N.2.j.' x.oX2.' p.X.X.U s.T.cXY.b.tXrXcXzXm C 5XgXn./.L.c.h.I G.dX}.0Xv.t.UXG.J ",
"/.z 3.m._ % . N.y.`.B.W.HX#.g.a.E.$X:.; >.DXZ A b.2.J J q.#X<._ ) 5XaX_ h 7.GX/.A 0.6.w.y.- 6.NX#X#X,XN.x.v.g.mX+Xa.j.Z.GXwX@ ,.",
"%Xj 7.B.m.V . ..0X8.' q.cXT.g.@.9Xq.( oXj.H C 2 +XCXrXK [ xXE.u ^ sXAXq.- - 5XG.( 9X0XSX .# ^ 7.! g.,X_ C J C.aXj.g.v..XPX[ @ e.",
"'.I g.8.b.} , > 6XeX} ( 4XW.a.J ~.%XS y.KXuX; ~ kXvXGX5Xw nX%X@ Y.J.dX[.l , E._.U.vXe.jXjX& v e.=XA.).<.) 9 B.uXC.XXv.qXyXc , b.",
"(.b <.7.C.m.2.; R.tXe.{.Y.7XB > ~.SX$XF 5XLX4.9.:X^ _.aX] dXY.O y.<XsXhXw 2 HX%XE.qX* R.vX- T.BX:X$XcX<.) - G.H.,.,XG.aX_.9 2.G.",
"Y.% ( b.b.(.C.g.6.AX/.o.0.zX .o 8XW.V 8 W.FXrXW.|.r ^ xXU.W.@X[.K M.x.e.m O.HXY.@X8Xn U.7X>.cXcX+X+XPXq.z ~ @Xv.J 8.&XsX} a 9.eX",
"G * v ' 7.8. Xx.:.VX%Xj } zX^.o ~.Y.# M _.aXcXjX-XW.4X6XW.8X! xX1X&.:.8.:X#XdXT.T.jX6XFXaXkXjXHX+Xh *X(.h ^ ;XZ.a.g.wXeXp.h.<.C.",
"Y.E.X.| e..X[.7.Q :XT.l F ~.T.. !.6.] ( 4.W.@X9XrXzXHX;Xr.DX~ Q.PX}.G.GX%XS ;X!.5XFXJXDXzXDX8XjXY.:.&XY.t U.XX,.G.b.4XeXa.m.7.g.",
"yXGXLX9.'.>X7.Q   8XxX0.q.qX~.O 2 O.T.) b w 0.sX .3 Y.8XU.IX6.T.hX9X@XHXhXe.eX] 4X5X^ !.Y.U.0.{ ^ _ dX] e T.fX7.1Xn.b.g.g.t.$X[.",
"rX8XjX9X9.8./.F o T.aX( [ zX!.- : ^.( D H , Y.tX0.@ 7 zX-XAXQ 4XHX6X%X7XQ.t.q.J t y # ~ } a H H | C sX7.q R.eXX.9.D.XX' F m.:X@X",
"C.m.).)._ Y.n.M.D R.rXH a ~.!.* 3 yX8X0.6. .4X7X4.q 6 7X6X5X~ 4 tXQ.7XHXQ.Y.zX0.E.3.N 4 V.Y.Y.Y.{ C B.Q @ W.t.e g.v.*X1.7.&X7XjX",
"3.e.x.F >.Y.@.j.I ).7X} 9 zXT.O n q.bXtXJXLX].rX0.8 7 7XhX7XZ = 8X5X5XwX& U.DX8X7Xq.H c Y.IXJXFXhX/.E.5X(.4XT.>.} 8. X@.1XyX}.*X",
"7XaX} 7.t.X.} @._ 7.$Xq.(._.JXhX>Xe.[ Y.5X4X8X|.^ i % Y.SXrXb 5 rXrXrX~.3 6 Q.=XGX_.a W ^ w.5XU.7.kXFXUXPX6.N.*XB.7XV.p.|.[ Q v.",
"zXwX{ _ /.R 6.V.9.q.tX6.O.8.W.Y.N.cX$X9 - p W b b B & Q D.X.u 6 rX7XW.~.R o  .wXGX0.G m w i ( & 7 7XjXhXy.v.{ [ a.-X4XN.].F 6 Z.",
"zXrX7.c.y.8 X.x.} e.-X2.A Y.o._ t.}.HXT.C ` } n.:.v H g.a.g.:.X.hX7X6XDX( Z ] ..^ { >.C J m.2.q T.E.6.o.} x.'.o.j i.5Xg.&X' 3 [."
};
